<?xml version="1.0" encoding="utf-8"?>
<!-- Generator: Adobe Illustrator 16.0.0, SVG Export Plug-In . SVG Version: 6.00 Build 0)  -->
<!DOCTYPE svg PUBLIC "-//W3C//DTD SVG 1.1//EN" "http://www.w3.org/Graphics/SVG/1.1/DTD/svg11.dtd">
<svg version="1.1" id="Layer_2" xmlns="http://www.w3.org/2000/svg" xmlns:xlink="http://www.w3.org/1999/xlink" x="0px" y="0px"
	 width="386.631px" height="192.313px" viewBox="323.91 270.687 386.631 192.313"
	 enable-background="new 323.91 270.687 386.631 192.313" xml:space="preserve">
<g>
	<g>
		<path id="bsHcI1VfT_1_" fill="#FFFFFF" fill-opacity="0.5" d="M323.91,335.71l386.631-64.28L403.26,463L323.91,335.71z"/>
	</g>
</g>
<g>
	<g>
		<g>
			<path id="b1tQ6svwH_5_" fill="#D0CDE1" d="M494.5,414.22c2.75,0,4.131,1.38,4.131,4.13c0,2.601,0,4.05,0,4.34
				c0,2.75-1.381,4.13-4.131,4.13c-10.739,0-16.699,0-17.899,0c-2.75,0-4.12-1.38-4.12-4.13c0-2.6,0-4.05,0-4.34
				c0-2.75,1.37-4.13,4.12-4.13C487.341,414.22,493.31,414.22,494.5,414.22z"/>
		</g>
		<g>
			<g>
				<path id="b1tQ6svwH_2_" fill-opacity="0" stroke="#000000" stroke-opacity="0" d="M494.5,414.22c2.75,0,4.131,1.38,4.131,4.13
					c0,2.601,0,4.05,0,4.34c0,2.75-1.381,4.13-4.131,4.13c-10.739,0-16.699,0-17.899,0c-2.75,0-4.12-1.38-4.12-4.13
					c0-2.6,0-4.05,0-4.34c0-2.75,1.37-4.13,4.12-4.13C487.341,414.22,493.31,414.22,494.5,414.22z"/>
			</g>
		</g>
	</g>
	<g>
		<g>
			<path id="iJM93FfcS_5_" fill="#3F3D56" d="M566.29,425.23L566.29,425.23c0,0.34,0,0.53,0,0.57l0,0c-96.199,0-149.649,0-160.34,0
				l0,0c0-0.34,0-0.53,0-0.57l0,0C502.16,425.23,555.6,425.23,566.29,425.23z"/>
		</g>
		<g>
			<g>
				<path id="iJM93FfcS_2_" fill-opacity="0" stroke="#000000" stroke-opacity="0" d="M566.29,425.23L566.29,425.23
					c0,0.34,0,0.53,0,0.57l0,0c-96.199,0-149.649,0-160.34,0l0,0c0-0.34,0-0.53,0-0.57l0,0
					C502.16,425.23,555.6,425.23,566.29,425.23z"/>
			</g>
		</g>
	</g>
	<g>
		<g>
			<path id="a16Rmke85I_5_" fill="#3F3D56" d="M490.47,413.12c-0.08-0.181-0.13-0.271-0.141-0.29
				c-0.04-0.091-4.319-9.03-1.93-17.841c2.38-8.81,10.58-14.369,10.66-14.42c0.02-0.02,0.11-0.08,0.27-0.18
				c0.08,0.17,0.131,0.271,0.141,0.29c0.05,0.09,4.319,9.021,1.939,17.83c-2.39,8.81-10.58,14.37-10.67,14.43
				C490.711,412.96,490.62,413.02,490.47,413.12z M488.95,395.14c-2.09,7.7,1.04,15.51,1.75,17.13c1.44-1.04,8.08-6.21,10.16-13.91
				l0,0c2.08-7.689-1.05-15.5-1.76-17.13C497.66,382.28,491.03,387.45,488.95,395.14z"/>
		</g>
		<g>
			<g>
				<path id="a16Rmke85I_2_" fill-opacity="0" stroke="#000000" stroke-opacity="0" d="M490.47,413.12
					c-0.08-0.181-0.13-0.271-0.141-0.29c-0.04-0.091-4.319-9.03-1.93-17.841c2.38-8.81,10.58-14.369,10.66-14.42
					c0.02-0.02,0.11-0.08,0.27-0.18c0.08,0.17,0.131,0.271,0.141,0.29c0.05,0.09,4.319,9.021,1.939,17.83
					c-2.39,8.81-10.58,14.37-10.67,14.43C490.711,412.96,490.62,413.02,490.47,413.12z M488.95,395.14
					c-2.09,7.7,1.04,15.51,1.75,17.13c1.44-1.04,8.08-6.21,10.16-13.91l0,0c2.08-7.689-1.05-15.5-1.76-17.13
					C497.66,382.28,491.03,387.45,488.95,395.14z"/>
			</g>
		</g>
	</g>
	<g>
		<g>
			<path id="a2kQMFjv6t_5_" fill="#FFA500" d="M490,412.7c0,0,4.301-8.82,1.91-17.631c-2.38-8.81-10.54-14.27-10.54-14.27
				s-4.3,8.83-1.92,17.64C481.841,407.25,487.89,409.85,490,412.7z"/>
		</g>
		<g>
			<g>
				<path id="a2kQMFjv6t_2_" fill-opacity="0" stroke="#000000" stroke-opacity="0" d="M490,412.7c0,0,4.301-8.82,1.91-17.631
					c-2.38-8.81-10.54-14.27-10.54-14.27s-4.3,8.83-1.92,17.64C481.841,407.25,487.89,409.85,490,412.7z"/>
			</g>
		</g>
	</g>
	<g>
		<g>
			<path id="a1kVcxTrSB_5_" fill="#3F3D56" d="M490.6,413c-0.19-0.011-0.3-0.021-0.32-0.021c-0.1-0.01-9.99-0.62-16.53-6.979
				c-6.539-6.37-7.409-16.23-7.42-16.33c0-0.021-0.01-0.13-0.029-0.33c0.199,0.01,0.31,0.02,0.33,0.02
				c0.1,0.011,9.979,0.62,16.52,6.98c6.54,6.37,7.42,16.229,7.43,16.33C490.58,412.71,490.591,412.82,490.6,413z M474.15,405.59
				c5.71,5.56,14.061,6.63,15.82,6.79c-0.21-1.76-1.5-10.07-7.21-15.63l0,0c-5.721-5.561-14.061-6.63-15.83-6.79
				C467.15,391.72,468.44,400.03,474.15,405.59z"/>
		</g>
		<g>
			<g>
				<path id="a1kVcxTrSB_2_" fill-opacity="0" stroke="#000000" stroke-opacity="0" d="M490.6,413c-0.19-0.011-0.3-0.021-0.32-0.021
					c-0.1-0.01-9.99-0.62-16.53-6.979c-6.539-6.37-7.409-16.23-7.42-16.33c0-0.021-0.01-0.13-0.029-0.33
					c0.199,0.01,0.31,0.02,0.33,0.02c0.1,0.011,9.979,0.62,16.52,6.98c6.54,6.37,7.42,16.229,7.43,16.33
					C490.58,412.71,490.591,412.82,490.6,413z M474.15,405.59c5.71,5.56,14.061,6.63,15.82,6.79c-0.21-1.76-1.5-10.07-7.21-15.63
					l0,0c-5.721-5.561-14.061-6.63-15.83-6.79C467.15,391.72,468.44,400.03,474.15,405.59z"/>
			</g>
		</g>
	</g>
	<g>
		<g>
			<path id="a110aY1VEe_5_" fill="#3F3D56" d="M490.29,412.69c0,0,9.811-0.529,16.341-6.899c6.54-6.36,7.34-16.15,7.34-16.15
				s-9.8,0.54-16.34,6.9C491.091,402.91,491.76,409.46,490.29,412.69z"/>
		</g>
		<g>
			<g>
				<path id="a110aY1VEe_2_" fill-opacity="0" stroke="#000000" stroke-opacity="0" d="M490.29,412.69c0,0,9.811-0.529,16.341-6.899
					c6.54-6.36,7.34-16.15,7.34-16.15s-9.8,0.54-16.34,6.9C491.091,402.91,491.76,409.46,490.29,412.69z"/>
			</g>
		</g>
	</g>
	<g>
		<g>
			<path id="a50Kg8B2AE_5_" fill="#FFA500" d="M490.16,352.91c-2.359,0-4.27,1.909-4.27,4.27c0,2.35,1.91,4.26,4.27,4.26
				c2.351,0,4.261-1.91,4.261-4.26C494.421,354.82,492.51,352.91,490.16,352.91z"/>
		</g>
		<g>
			<g>
				<path id="a50Kg8B2AE_2_" fill-opacity="0" stroke="#000000" stroke-opacity="0" d="M490.16,352.91
					c-2.359,0-4.27,1.909-4.27,4.27c0,2.35,1.91,4.26,4.27,4.26c2.351,0,4.261-1.91,4.261-4.26
					C494.421,354.82,492.51,352.91,490.16,352.91z"/>
			</g>
		</g>
	</g>
	<g>
		<g>
			<path id="cuH2Y9UVg_5_" fill="#3F3D56" d="M480.1,425.92c-2.8,0-5.061-2.271-5.07-5.061c0-0.529,0-4.71,0-5.229
				c0.01-2.79,2.271-5.061,5.07-5.061c2.11,0,19.03,0,21.14,0c2.8,0,5.061,2.271,5.07,5.061c0,0.52,0,4.7,0,5.229
				c-0.01,2.79-2.271,5.061-5.07,5.061C497.01,425.92,482.211,425.92,480.1,425.92z M480.1,411.14c-2.48,0-4.49,2.01-4.5,4.49
				c0,0.52,0,4.7,0,5.229c0.01,2.48,2.02,4.49,4.5,4.49c2.11,0,19.03,0,21.14,0c2.48,0,4.49-2.01,4.5-4.49c0-0.529,0-4.71,0-5.229
				c-0.01-2.48-2.02-4.49-4.5-4.49C497.01,411.14,484.33,411.14,480.1,411.14z"/>
		</g>
		<g>
			<g>
				<path id="cuH2Y9UVg_2_" fill-opacity="0" stroke="#000000" stroke-opacity="0" d="M480.1,425.92c-2.8,0-5.061-2.271-5.07-5.061
					c0-0.529,0-4.71,0-5.229c0.01-2.79,2.271-5.061,5.07-5.061c2.11,0,19.03,0,21.14,0c2.8,0,5.061,2.271,5.07,5.061
					c0,0.52,0,4.7,0,5.229c-0.01,2.79-2.271,5.061-5.07,5.061C497.01,425.92,482.211,425.92,480.1,425.92z M480.1,411.14
					c-2.48,0-4.49,2.01-4.5,4.49c0,0.52,0,4.7,0,5.229c0.01,2.48,2.02,4.49,4.5,4.49c2.11,0,19.03,0,21.14,0
					c2.48,0,4.49-2.01,4.5-4.49c0-0.529,0-4.71,0-5.229c-0.01-2.48-2.02-4.49-4.5-4.49C497.01,411.14,484.33,411.14,480.1,411.14z"
					/>
			</g>
		</g>
	</g>
	<g>
		<g>
			<path id="a1ARGIBd5_5_" fill="#FFA500" d="M448.64,295.87L448.64,295.87c0,43.59,0,67.81,0,72.649l0,0c-51.32,0-79.83,0-85.53,0
				l0,0c0-43.59,0-67.81,0-72.649l0,0C414.43,295.87,442.94,295.87,448.64,295.87z"/>
		</g>
		<g>
			<g>
				<path id="a1ARGIBd5_2_" fill-opacity="0" stroke="#000000" stroke-opacity="0" d="M448.64,295.87L448.64,295.87
					c0,43.59,0,67.81,0,72.649l0,0c-51.32,0-79.83,0-85.53,0l0,0c0-43.59,0-67.81,0-72.649l0,0
					C414.43,295.87,442.94,295.87,448.64,295.87z"/>
			</g>
		</g>
	</g>
	<g>
		<g>
			<path id="b1H0oIsSqS_5_" fill="#FF6584" d="M379.33,282.05c-2.479,0-4.489,2.01-4.489,4.479c0,2.48,2.01,4.49,4.489,4.49
				c2.48,0,4.48-2.01,4.48-4.49C383.81,284.06,381.81,282.05,379.33,282.05z"/>
		</g>
		<g>
			<g>
				<path id="b1H0oIsSqS_2_" fill-opacity="0" stroke="#000000" stroke-opacity="0" d="M379.33,282.05
					c-2.479,0-4.489,2.01-4.489,4.479c0,2.48,2.01,4.49,4.489,4.49c2.48,0,4.48-2.01,4.48-4.49
					C383.81,284.06,381.81,282.05,379.33,282.05z"/>
			</g>
		</g>
	</g>
	<g>
		<g>
			<path id="a1dOyZa8ML_5_" fill="#3F3D56" d="M465.461,358.87H379v-73.58h86.461V358.87z M379.93,357.94h84.6v-71.72h-84.6V357.94z
				"/>
		</g>
		<g>
			<g>
				<path id="a1dOyZa8ML_2_" fill-opacity="0" stroke="#000000" stroke-opacity="0" d="M465.461,358.87H379v-73.58h86.461V358.87z
					 M379.93,357.94h84.6v-71.72h-84.6V357.94z"/>
			</g>
		</g>
	</g>
	<g>
		<g>
			<path id="h633ls6Xqp_5_" fill="#3F3D56" d="M437.89,342.84c-0.59,0.32-1.08,0.55-1.2,0.61c-9.17,4.439-19.87,4.42-29.02-0.051
				c-1.171-0.569-2.051-1.109-2.28-1.229c-0.76-0.44-1.49-0.92-2.2-1.42c-14.96-10.521-18.56-31.17-8.04-46.13
				c3.12-4.45,7.29-8.051,12.14-10.511c2.011-1.02,4.131-1.83,6.311-2.42c1.45-0.39,2.649-0.58,2.939-0.649
				c1.881-0.32,3.78-0.49,5.69-0.49c0.39,0,0.78,0.01,1.17,0.03c0.43,0.01,0.771,0.029,0.86,0.04c2.979,0.17,5.92,0.76,8.739,1.729
				c0.24,0.08,0.49,0.17,0.73,0.26c1.25,0.46,2.2,0.92,2.44,1.021c11.689,5.43,19.17,17.14,19.17,30.03
				C455.341,325.86,448.631,337.06,437.89,342.84z"/>
		</g>
		<g>
			<g>
				<path id="h633ls6Xqp_2_" fill-opacity="0" stroke="#000000" stroke-opacity="0" d="M437.89,342.84
					c-0.59,0.32-1.08,0.55-1.2,0.61c-9.17,4.439-19.87,4.42-29.02-0.051c-1.171-0.569-2.051-1.109-2.28-1.229
					c-0.76-0.44-1.49-0.92-2.2-1.42c-14.96-10.521-18.56-31.17-8.04-46.13c3.12-4.45,7.29-8.051,12.14-10.511
					c2.011-1.02,4.131-1.83,6.311-2.42c1.45-0.39,2.649-0.58,2.939-0.649c1.881-0.32,3.78-0.49,5.69-0.49
					c0.39,0,0.78,0.01,1.17,0.03c0.43,0.01,0.771,0.029,0.86,0.04c2.979,0.17,5.92,0.76,8.739,1.729c0.24,0.08,0.49,0.17,0.73,0.26
					c1.25,0.46,2.2,0.92,2.44,1.021c11.689,5.43,19.17,17.14,19.17,30.03C455.341,325.86,448.631,337.06,437.89,342.84z"/>
			</g>
		</g>
	</g>
	<g>
		<g>
			<path id="grpS56gE1_5_" fill="#2F2E41" d="M424.47,271.36c0,0-7.38-1.97-13.55,7.41c-5.74,8.74-13.15,16.931-3.75,20.42
				c0.159-0.35,0.989-2.08,2.479-5.21c0.18,3.601,0.28,5.601,0.3,6c1.36,0.28,2.74,0.49,4.13,0.63
				c10.431,1.051,20.25,2.82,20.44-0.949c0.24-5.011,3.53-13.011,0.63-19.851C432.14,272.7,426.61,273.05,424.47,271.36z"/>
		</g>
		<g>
			<g>
				<path id="grpS56gE1_2_" fill-opacity="0" stroke="#000000" stroke-opacity="0" d="M424.47,271.36c0,0-7.38-1.97-13.55,7.41
					c-5.74,8.74-13.15,16.931-3.75,20.42c0.159-0.35,0.989-2.08,2.479-5.21c0.18,3.601,0.28,5.601,0.3,6
					c1.36,0.28,2.74,0.49,4.13,0.63c10.431,1.051,20.25,2.82,20.44-0.949c0.24-5.011,3.53-13.011,0.63-19.851
					C432.14,272.7,426.61,273.05,424.47,271.36z"/>
			</g>
		</g>
	</g>
	<g>
		<g>
			<path id="ccs8PHWE2_5_" fill="#FFB8B8" d="M408.381,337.73l-0.25,1.971c-0.271,2.22-0.431,3.449-0.46,3.699
				c-1.171-0.569-2.051-1.109-2.28-1.229c-0.76-0.44-1.49-0.92-2.2-1.42c0-0.13,0.03-0.761,0.07-1.91l0.09-2.12l3.399,0.68
				L408.381,337.73z"/>
		</g>
		<g>
			<g>
				<path id="ccs8PHWE2_2_" fill-opacity="0" stroke="#000000" stroke-opacity="0" d="M408.381,337.73l-0.25,1.971
					c-0.271,2.22-0.431,3.449-0.46,3.699c-1.171-0.569-2.051-1.109-2.28-1.229c-0.76-0.44-1.49-0.92-2.2-1.42
					c0-0.13,0.03-0.761,0.07-1.91l0.09-2.12l3.399,0.68L408.381,337.73z"/>
			</g>
		</g>
	</g>
	<g>
		<g>
			<path id="e1ktwxa4rF_5_" fill="#FFB8B8" d="M442.631,339.74c-1.49,1.171-3.07,2.2-4.74,3.101c-0.11-0.37-0.641-2.23-1.601-5.57
				l-0.22-0.729l-0.52-1.83l0.56-0.09l5.811-0.92l0.189,1.579C442.39,337.66,442.56,339.15,442.631,339.74z"/>
		</g>
		<g>
			<g>
				<path id="e1ktwxa4rF_2_" fill-opacity="0" stroke="#000000" stroke-opacity="0" d="M442.631,339.74
					c-1.49,1.171-3.07,2.2-4.74,3.101c-0.11-0.37-0.641-2.23-1.601-5.57l-0.22-0.729l-0.52-1.83l0.56-0.09l5.811-0.92l0.189,1.579
					C442.39,337.66,442.56,339.15,442.631,339.74z"/>
			</g>
		</g>
	</g>
	<g>
		<g>
			<path id="b9Ul2lJnUd_5_" fill="#FFB8B8" d="M424.48,276.35c-5,0-9.06,4.05-9.06,9.061c0,5,4.06,9.05,9.06,9.05
				s9.05-4.05,9.05-9.05C433.53,280.4,429.48,276.35,424.48,276.35z"/>
		</g>
		<g>
			<g>
				<path id="b9Ul2lJnUd_2_" fill-opacity="0" stroke="#000000" stroke-opacity="0" d="M424.48,276.35c-5,0-9.06,4.05-9.06,9.061
					c0,5,4.06,9.05,9.06,9.05s9.05-4.05,9.05-9.05C433.53,280.4,429.48,276.35,424.48,276.35z"/>
			</g>
		</g>
	</g>
	<g>
		<g>
			<path id="fXnNJFOFQ_5_" fill="#FFB8B8" d="M416.93,301h10.399c0,0-1.68-7.04,0-9.05c1.681-2.021-9.06-3.021-9.06-3.021
				C418,291.34,418.94,300.33,416.93,301z"/>
		</g>
		<g>
			<g>
				<path id="fXnNJFOFQ_2_" fill-opacity="0" stroke="#000000" stroke-opacity="0" d="M416.93,301h10.399c0,0-1.68-7.04,0-9.05
					c1.681-2.021-9.06-3.021-9.06-3.021C418,291.34,418.94,300.33,416.93,301z"/>
			</g>
		</g>
	</g>
	<g>
		<g>
			<path id="ev7hsFgn_5_" fill="#D0CDE1" d="M427.5,299.16c0,0-8.72-0.671-10.399,0l-6.37,4.02c0.15,1.41,0.94,8.45,2.34,21.13
				l19.12,4.03l3.021-4.36l3.02-6.38l-1.34-8.05l-0.34-4.69C431.72,301.82,428.7,299.92,427.5,299.16z"/>
		</g>
		<g>
			<g>
				<path id="ev7hsFgn_2_" fill-opacity="0" stroke="#000000" stroke-opacity="0" d="M427.5,299.16c0,0-8.72-0.671-10.399,0
					l-6.37,4.02c0.15,1.41,0.94,8.45,2.34,21.13l19.12,4.03l3.021-4.36l3.02-6.38l-1.34-8.05l-0.34-4.69
					C431.72,301.82,428.7,299.92,427.5,299.16z"/>
			</g>
		</g>
	</g>
	<g>
		<g>
			<path id="aAmX1xTz_5_" fill="#D0CDE1" d="M409.051,304.52c0,0-4.36,1.01-4.7,4.36c0,0-0.33,11.74,0,13.08c0,0,0,2.02-0.33,2.35
				c0,0-1.01-0.33-0.34,0.67c0,0,0.67,1.01,0.34,2.021c0,0-1.34-0.34-0.67,1.34c0,0,1,2.01,0.67,2.34l-1.34,8.05
				c0.38,0.07,2.28,0.41,5.7,1.01l5.699-19.789C411.4,311.72,409.72,306.58,409.051,304.52z"/>
		</g>
		<g>
			<g>
				<path id="aAmX1xTz_2_" fill-opacity="0" stroke="#000000" stroke-opacity="0" d="M409.051,304.52c0,0-4.36,1.01-4.7,4.36
					c0,0-0.33,11.74,0,13.08c0,0,0,2.02-0.33,2.35c0,0-1.01-0.33-0.34,0.67c0,0,0.67,1.01,0.34,2.021c0,0-1.34-0.34-0.67,1.34
					c0,0,1,2.01,0.67,2.34l-1.34,8.05c0.38,0.07,2.28,0.41,5.7,1.01l5.699-19.789C411.4,311.72,409.72,306.58,409.051,304.52z"/>
			</g>
		</g>
	</g>
	<g>
		<g>
			<path id="e1RmYSP2sy_5_" fill="#D0CDE1" d="M435.211,304.52c1.3,0.08,2.449,0.851,3.02,2.021c1.01,2.01,3.69,15.09,3.35,16.1
				c-0.33,1-1-0.34-0.33,1.67c0.671,2.01,0,1.68,0.33,3.021c0.341,1.34-1.34,0,0,1.34c1.351,1.34,2.021,1.68,1.351,2.35
				c-0.681,0.67-1.681-0.67-0.681,0.67c1.011,1.34,1.011,3.351,1.011,3.351c-0.54,0.12-3.221,0.68-8.05,1.68l-2.351-18.78
				C434.12,310.78,434.9,306.31,435.211,304.52z"/>
		</g>
		<g>
			<g>
				<path id="e1RmYSP2sy_2_" fill-opacity="0" stroke="#000000" stroke-opacity="0" d="M435.211,304.52
					c1.3,0.08,2.449,0.851,3.02,2.021c1.01,2.01,3.69,15.09,3.35,16.1c-0.33,1-1-0.34-0.33,1.67c0.671,2.01,0,1.68,0.33,3.021
					c0.341,1.34-1.34,0,0,1.34c1.351,1.34,2.021,1.68,1.351,2.35c-0.681,0.67-1.681-0.67-0.681,0.67
					c1.011,1.34,1.011,3.351,1.011,3.351c-0.54,0.12-3.221,0.68-8.05,1.68l-2.351-18.78C434.12,310.78,434.9,306.31,435.211,304.52z
					"/>
			</g>
		</g>
	</g>
	<g>
		<g>
			<path id="bp4F95jxE_5_" fill="#2F2E41" d="M436.29,337.27c0.24,3.71,0.37,5.771,0.4,6.181c-9.17,4.439-19.87,4.42-29.02-0.051
				c-1.171-0.569-2.051-1.109-2.28-1.229c0.26-0.95,0.52-1.891,0.78-2.82c0.29-0.99,0.52-1.75,0.579-1.95
				c1.5-4.92,3.131-9.109,4.65-10.739c0,0,0-3.69,0.67-4.03c0.24-0.12,0.49-0.521,0.71-0.97c0.25-0.551,0.46-1.12,0.63-1.71
				c-0.069-0.171-0.439-1.03-1.109-2.58c-2.98-6.94-4.63-10.79-4.971-11.561c-0.29-0.689,0-1.479,0.67-1.82
				c0.16-0.079,1.48-0.739,1.65-0.819c0.7-0.351,1.54-0.07,1.89,0.63c0,0.01,0,0.01,0,0.01c0.511,1.03,3.03,6.19,7.57,15.47
				l8.39,5.37l5.881-2.62c0.09-0.04,0.14-0.06,0.149-0.069c0,0,4.37-6.7,3.021-10.061c-0.57-1.43-1.2-3.34-1.74-5.069
				c-0.32-1.021-0.6-1.971-0.82-2.721c-0.1-0.319,0.09-0.649,0.41-0.75c0.17-0.05,0.35-0.02,0.5,0.08
				c0.11,0.08,1.03,0.69,1.14,0.771c0.261,0.17,0.471,0.41,0.601,0.7c0.05,0.109,0.09,0.229,0.109,0.35
				c0.171,0.8,0.99,4.8,2.48,12.01l-3.35,7.04v6.71l0.229,3.601l0.13,1.89L436.29,337.27z"/>
		</g>
		<g>
			<g>
				<path id="bp4F95jxE_2_" fill-opacity="0" stroke="#000000" stroke-opacity="0" d="M436.29,337.27
					c0.24,3.71,0.37,5.771,0.4,6.181c-9.17,4.439-19.87,4.42-29.02-0.051c-1.171-0.569-2.051-1.109-2.28-1.229
					c0.26-0.95,0.52-1.891,0.78-2.82c0.29-0.99,0.52-1.75,0.579-1.95c1.5-4.92,3.131-9.109,4.65-10.739c0,0,0-3.69,0.67-4.03
					c0.24-0.12,0.49-0.521,0.71-0.97c0.25-0.551,0.46-1.12,0.63-1.71c-0.069-0.171-0.439-1.03-1.109-2.58
					c-2.98-6.94-4.63-10.79-4.971-11.561c-0.29-0.689,0-1.479,0.67-1.82c0.16-0.079,1.48-0.739,1.65-0.819
					c0.7-0.351,1.54-0.07,1.89,0.63c0,0.01,0,0.01,0,0.01c0.511,1.03,3.03,6.19,7.57,15.47l8.39,5.37l5.881-2.62
					c0.09-0.04,0.14-0.06,0.149-0.069c0,0,4.37-6.7,3.021-10.061c-0.57-1.43-1.2-3.34-1.74-5.069c-0.32-1.021-0.6-1.971-0.82-2.721
					c-0.1-0.319,0.09-0.649,0.41-0.75c0.17-0.05,0.35-0.02,0.5,0.08c0.11,0.08,1.03,0.69,1.14,0.771
					c0.261,0.17,0.471,0.41,0.601,0.7c0.05,0.109,0.09,0.229,0.109,0.35c0.171,0.8,0.99,4.8,2.48,12.01l-3.35,7.04v6.71l0.229,3.601
					l0.13,1.89L436.29,337.27z"/>
			</g>
		</g>
	</g>
	<g>
		<g>
			<path id="h1FFCLNe8R_5_" fill="#2F2E41" d="M425.77,273.2l-10.62,1.649l-2.189,9.69l5.46-0.21l1.529-3.561v3.5l2.521-0.09
				l1.47-5.67l0.91,6.03l8.97-0.181l-0.37-7.14l0,0L425.77,273.2z"/>
		</g>
		<g>
			<g>
				<path id="h1FFCLNe8R_2_" fill-opacity="0" stroke="#000000" stroke-opacity="0" d="M425.77,273.2l-10.62,1.649l-2.189,9.69
					l5.46-0.21l1.529-3.561v3.5l2.521-0.09l1.47-5.67l0.91,6.03l8.97-0.181l-0.37-7.14l0,0L425.77,273.2z"/>
			</g>
		</g>
	</g>
	<g>
		<g>
			<path id="e14cNB3N35_5_" fill="#FFB8B8" d="M416.26,285.41c0,0.97-0.45,1.76-1.011,1.76c-0.55,0-1-0.79-1-1.76
				c0-0.98,0.45-1.761,1-1.761C415.81,283.65,416.26,284.43,416.26,285.41z"/>
		</g>
		<g>
			<g>
				<path id="e14cNB3N35_2_" fill-opacity="0" stroke="#000000" stroke-opacity="0" d="M416.26,285.41c0,0.97-0.45,1.76-1.011,1.76
					c-0.55,0-1-0.79-1-1.76c0-0.98,0.45-1.761,1-1.761C415.81,283.65,416.26,284.43,416.26,285.41z"/>
			</g>
		</g>
	</g>
	<g>
		<g>
			<path id="a1eNkRAxJC_5_" fill="#FF6584" d="M513.99,299.07c-2.479,0-4.49,2.011-4.49,4.49c0,2.48,2.011,4.48,4.49,4.48
				c2.471,0,4.48-2,4.48-4.48C518.47,301.08,516.461,299.07,513.99,299.07z"/>
		</g>
		<g>
			<g>
				<path id="a1eNkRAxJC_2_" fill-opacity="0" stroke="#000000" stroke-opacity="0" d="M513.99,299.07
					c-2.479,0-4.49,2.011-4.49,4.49c0,2.48,2.011,4.48,4.49,4.48c2.471,0,4.48-2,4.48-4.48
					C518.47,301.08,516.461,299.07,513.99,299.07z"/>
			</g>
		</g>
	</g>
	<g>
		<g>
			<path id="a42QvtsxcA_5_" fill="#FFA500" d="M527.58,386.01L527.58,386.01c0-43.59,0-67.81,0-72.65l0,0c51.32,0,79.83,0,85.53,0
				l0,0c0,43.591,0,67.811,0,72.65l0,0C561.79,386.01,533.28,386.01,527.58,386.01z"/>
		</g>
		<g>
			<g>
				<path id="a42QvtsxcA_2_" fill-opacity="0" stroke="#000000" stroke-opacity="0" d="M527.58,386.01L527.58,386.01
					c0-43.59,0-67.81,0-72.65l0,0c51.32,0,79.83,0,85.53,0l0,0c0,43.591,0,67.811,0,72.65l0,0
					C561.79,386.01,533.28,386.01,527.58,386.01z"/>
			</g>
		</g>
	</g>
	<g>
		<g>
			<path id="c13MO1dGOC_5_" fill="#3F3D56" d="M599.78,376.36h-86.46v-73.58h86.46V376.36z M514.25,375.43h84.601v-71.72H514.25
				V375.43z"/>
		</g>
		<g>
			<g>
				<path id="c13MO1dGOC_2_" fill-opacity="0" stroke="#000000" stroke-opacity="0" d="M599.78,376.36h-86.46v-73.58h86.46V376.36z
					 M514.25,375.43h84.601v-71.72H514.25V375.43z"/>
			</g>
		</g>
	</g>
	<g>
		<g>
			<path id="a14bOCqjOG_5_" fill="#3F3D56" d="M571.99,354.46c-0.399,0.21-0.8,0.42-1.21,0.609c-9.17,4.46-19.87,4.44-29.02-0.05
				c-0.78-0.38-1.54-0.79-2.28-1.229c-1.13-0.66-1.98-1.28-2.2-1.42c-14.96-10.521-18.56-31.17-8.04-46.131
				c3.12-4.449,7.29-8.05,12.141-10.5c0.989-0.51,2.02-0.97,3.069-1.369c1.061-0.41,2.15-0.761,3.25-1.061
				c1.44-0.39,2.641-0.58,2.931-0.649c0.29-0.051,0.59-0.091,0.88-0.141c1.59-0.229,3.2-0.34,4.819-0.34c0.391,0,0.771,0,1.16,0.021
				c0.29,0,0.58,0.02,0.86,0.039c2.83,0.171,5.62,0.7,8.31,1.58c0.15,0.051,0.29,0.101,0.44,0.15c0.24,0.08,0.479,0.17,0.72,0.26
				c1.25,0.46,2.2,0.92,2.44,1.021c1.34,0.62,2.35,1.22,2.609,1.359c10.25,5.9,16.57,16.841,16.561,28.67
				C589.43,337.48,582.73,348.68,571.99,354.46z"/>
		</g>
		<g>
			<g>
				<path id="a14bOCqjOG_2_" fill-opacity="0" stroke="#000000" stroke-opacity="0" d="M571.99,354.46
					c-0.399,0.21-0.8,0.42-1.21,0.609c-9.17,4.46-19.87,4.44-29.02-0.05c-0.78-0.38-1.54-0.79-2.28-1.229
					c-1.13-0.66-1.98-1.28-2.2-1.42c-14.96-10.521-18.56-31.17-8.04-46.131c3.12-4.449,7.29-8.05,12.141-10.5
					c0.989-0.51,2.02-0.97,3.069-1.369c1.061-0.41,2.15-0.761,3.25-1.061c1.44-0.39,2.641-0.58,2.931-0.649
					c0.29-0.051,0.59-0.091,0.88-0.141c1.59-0.229,3.2-0.34,4.819-0.34c0.391,0,0.771,0,1.16,0.021c0.29,0,0.58,0.02,0.86,0.039
					c2.83,0.171,5.62,0.7,8.31,1.58c0.15,0.051,0.29,0.101,0.44,0.15c0.24,0.08,0.479,0.17,0.72,0.26c1.25,0.46,2.2,0.92,2.44,1.021
					c1.34,0.62,2.35,1.22,2.609,1.359c10.25,5.9,16.57,16.841,16.561,28.67C589.43,337.48,582.73,348.68,571.99,354.46z"/>
			</g>
		</g>
	</g>
	<g>
		<g>
			<path id="bdDD2ZFnu_5_" fill="#2F2E41" d="M559.65,278.85c0,0-7.189-0.92-11.8,8.67c-4.29,8.94-10.22,17.57-0.95,19.66
				c0.11-0.34,0.67-2.08,1.67-5.21c0.63,3.36,0.97,5.23,1.04,5.6c1.32,0.101,2.64,0.12,3.97,0.07c9.92-0.32,19.381,0.09,19.07-3.47
				c-0.4-4.73,1.68-12.67-1.91-18.73C567.02,279.14,561.87,280.17,559.65,278.85z"/>
		</g>
		<g>
			<g>
				<path id="bdDD2ZFnu_2_" fill-opacity="0" stroke="#000000" stroke-opacity="0" d="M559.65,278.85c0,0-7.189-0.92-11.8,8.67
					c-4.29,8.94-10.22,17.57-0.95,19.66c0.11-0.34,0.67-2.08,1.67-5.21c0.63,3.36,0.97,5.23,1.04,5.6
					c1.32,0.101,2.64,0.12,3.97,0.07c9.92-0.32,19.381,0.09,19.07-3.47c-0.4-4.73,1.68-12.67-1.91-18.73
					C567.02,279.14,561.87,280.17,559.65,278.85z"/>
			</g>
		</g>
	</g>
	<g>
		<g>
			<path id="c9didvi6an_5_" fill="#A0616A" d="M548.48,342.5l-6.03-7.75l-4.38,2.05l7.11,9.14l3.069,4.07
				c0.011,0.01,0.011,0.02,0.011,0.02s5.029,6.03,8.47,3.45c3.45-2.59-5.31-8.18-5.31-8.18
				C551.03,344.92,550.051,343.99,548.48,342.5z"/>
		</g>
		<g>
			<g>
				<path id="c9didvi6an_2_" fill-opacity="0" stroke="#000000" stroke-opacity="0" d="M548.48,342.5l-6.03-7.75l-4.38,2.05
					l7.11,9.14l3.069,4.07c0.011,0.01,0.011,0.02,0.011,0.02s5.029,6.03,8.47,3.45c3.45-2.59-5.31-8.18-5.31-8.18
					C551.03,344.92,550.051,343.99,548.48,342.5z"/>
			</g>
		</g>
	</g>
	<g>
		<g>
			<path id="cWxkGQ8ul_5_" fill="#A0616A" d="M573.89,332.88l-3.311,3.439l3.08,4.07c0.011,0.021,0.011,0.021,0.011,0.03
				c0,0,5.029,6.02,8.47,3.439c3.45-2.58-5.311-8.18-5.311-8.18C576.44,335.31,575.461,334.37,573.89,332.88z"/>
		</g>
		<g>
			<g>
				<path id="cWxkGQ8ul_2_" fill-opacity="0" stroke="#000000" stroke-opacity="0" d="M573.89,332.88l-3.311,3.439l3.08,4.07
					c0.011,0.021,0.011,0.021,0.011,0.03c0,0,5.029,6.02,8.47,3.439c3.45-2.58-5.311-8.18-5.311-8.18
					C576.44,335.31,575.461,334.37,573.89,332.88z"/>
			</g>
		</g>
	</g>
	<g>
		<g>
			<path id="a1hMLt3Sez_5_" fill="#CFCCE0" d="M575.9,333.74l-3.31,1.87l-4.73-5.739l2.87-0.87l0,0L575.9,333.74z"/>
		</g>
		<g>
			<g>
				<path id="a1hMLt3Sez_2_" fill-opacity="0" stroke="#000000" stroke-opacity="0" d="M575.9,333.74l-3.31,1.87l-4.73-5.739
					l2.87-0.87l0,0L575.9,333.74z"/>
			</g>
		</g>
	</g>
	<g>
		<g>
			<path id="cpphN13Tp_5_" fill="#CFCCE0" d="M571.02,306.75c0,0,2.01-1.721,2.87,3.88l-1.44,7.609
				C572.16,315.94,571.301,309.05,571.02,306.75z"/>
		</g>
		<g>
			<g>
				<path id="cpphN13Tp_2_" fill-opacity="0" stroke="#000000" stroke-opacity="0" d="M571.02,306.75c0,0,2.01-1.721,2.87,3.88
					l-1.44,7.609C572.16,315.94,571.301,309.05,571.02,306.75z"/>
			</g>
		</g>
	</g>
	<g>
		<g>
			<path id="cNxURA2R4_5_" fill="#A0616A" d="M559.1,285.37c-4.2,0-7.61,3.399-7.61,7.6c0,4.21,3.41,7.61,7.61,7.61
				s7.61-3.4,7.61-7.61C566.711,288.77,563.301,285.37,559.1,285.37z"/>
		</g>
		<g>
			<g>
				<path id="cNxURA2R4_2_" fill-opacity="0" stroke="#000000" stroke-opacity="0" d="M559.1,285.37c-4.2,0-7.61,3.399-7.61,7.6
					c0,4.21,3.41,7.61,7.61,7.61s7.61-3.4,7.61-7.61C566.711,288.77,563.301,285.37,559.1,285.37z"/>
			</g>
		</g>
	</g>
	<g>
		<g>
			<path id="c1hfNJAA1m_5_" fill="#A0616A" d="M554.51,297.28c0,0-1.011,4.881-5.03,5.46c-4.02,0.57-10.33,2.58-9.47,6.461
				c0.859,3.869,24.979,3.439,24.979,3.439c0.431-0.66,3.87-5.939,4.3-6.6c0,0-8.899-2.301-8.04-7.471
				C559.9,298.31,555.86,297.54,554.51,297.28z"/>
		</g>
		<g>
			<g>
				<path id="c1hfNJAA1m_2_" fill-opacity="0" stroke="#000000" stroke-opacity="0" d="M554.51,297.28c0,0-1.011,4.881-5.03,5.46
					c-4.02,0.57-10.33,2.58-9.47,6.461c0.859,3.869,24.979,3.439,24.979,3.439c0.431-0.66,3.87-5.939,4.3-6.6
					c0,0-8.899-2.301-8.04-7.471C559.9,298.31,555.86,297.54,554.51,297.28z"/>
			</g>
		</g>
	</g>
	<g>
		<g>
			<path id="c2WhS00QTZ_5_" fill="#CFCCE0" d="M547.33,308.91c0,0-7.54,1.21-6.43-2.7c0,0-0.89-1.32-1.75,2.84
				s-7.32,18.38-6.75,18.95c0.14,0.14,0.86,0.859,2.15,2.149l4.739,9.19l5.03-2.87c-1.04-2.24-1.609-3.48-1.729-3.73
				c0,0,3.3,2.721,4.88-1.3c0,0,1.3,3.88,4.02,4.021c2.73,0.149,20.391-4.88,20.391-4.88s-1.011-4.021,0-5.74
				c1-1.72,2.58-5.17,1.859-7.75c-0.13-1.03-1.16-9.3-1.29-10.34c0,0-5.38-2.221-6.1-1.79
				C562.551,305.75,560.68,309.2,547.33,308.91z"/>
		</g>
		<g>
			<g>
				<path id="c2WhS00QTZ_2_" fill-opacity="0" stroke="#000000" stroke-opacity="0" d="M547.33,308.91c0,0-7.54,1.21-6.43-2.7
					c0,0-0.89-1.32-1.75,2.84s-7.32,18.38-6.75,18.95c0.14,0.14,0.86,0.859,2.15,2.149l4.739,9.19l5.03-2.87
					c-1.04-2.24-1.609-3.48-1.729-3.73c0,0,3.3,2.721,4.88-1.3c0,0,1.3,3.88,4.02,4.021c2.73,0.149,20.391-4.88,20.391-4.88
					s-1.011-4.021,0-5.74c1-1.72,2.58-5.17,1.859-7.75c-0.13-1.03-1.16-9.3-1.29-10.34c0,0-5.38-2.221-6.1-1.79
					C562.551,305.75,560.68,309.2,547.33,308.91z"/>
			</g>
		</g>
	</g>
	<g>
		<g>
			<path id="i2HpHGfvbu_5_" fill="#2F2E41" d="M581.78,344.09c-0.09,1.52-0.14,2.37-0.149,2.54c-2.69,3.189-5.96,5.85-9.641,7.83
				c-0.399,0.21-0.8,0.42-1.21,0.609c-7.14,3.46-15.29,4.25-22.96,2.221c0.05-0.221,0.46-1.94,0.51-2.16
				c-0.1-1.67-0.1-3.34,0.011-5.01c0.12-2.23,0.55-4.431,1.27-6.54c1.15-3.15,2.601-4.24,2.601-4.24c-0.03-0.26-0.19-1.55-0.48-3.88
				l-0.02-0.21l16.93-4.44c1.51-0.399,2.35-0.62,2.52-0.66c0,0,0.061,0.221,0.2,0.58c0.4,1.09,0.97,2.11,1.7,3.01
				c0.31,0.381,0.66,0.721,1.05,1.011c0.2,0.16,0.41,0.3,0.64,0.43c2.58,1.43,7.03,8.9,7.03,8.9V344.09z"/>
		</g>
		<g>
			<g>
				<path id="i2HpHGfvbu_2_" fill-opacity="0" stroke="#000000" stroke-opacity="0" d="M581.78,344.09
					c-0.09,1.52-0.14,2.37-0.149,2.54c-2.69,3.189-5.96,5.85-9.641,7.83c-0.399,0.21-0.8,0.42-1.21,0.609
					c-7.14,3.46-15.29,4.25-22.96,2.221c0.05-0.221,0.46-1.94,0.51-2.16c-0.1-1.67-0.1-3.34,0.011-5.01
					c0.12-2.23,0.55-4.431,1.27-6.54c1.15-3.15,2.601-4.24,2.601-4.24c-0.03-0.26-0.19-1.55-0.48-3.88l-0.02-0.21l16.93-4.44
					c1.51-0.399,2.35-0.62,2.52-0.66c0,0,0.061,0.221,0.2,0.58c0.4,1.09,0.97,2.11,1.7,3.01c0.31,0.381,0.66,0.721,1.05,1.011
					c0.2,0.16,0.41,0.3,0.64,0.43c2.58,1.43,7.03,8.9,7.03,8.9V344.09z"/>
			</g>
		</g>
	</g>
	<g>
		<g>
			<path id="bRg4ow4IB_5_" fill="#2F2E41" d="M561.81,281.31l-10.05,1.561l-2.09,9.189l5.18-0.2l1.45-3.38v3.32l2.39-0.09l1.39-5.37
				l0.87,5.72l8.49-0.18l-0.34-6.76l0,0L561.81,281.31z"/>
		</g>
		<g>
			<g>
				<path id="bRg4ow4IB_2_" fill-opacity="0" stroke="#000000" stroke-opacity="0" d="M561.81,281.31l-10.05,1.561l-2.09,9.189
					l5.18-0.2l1.45-3.38v3.32l2.39-0.09l1.39-5.37l0.87,5.72l8.49-0.18l-0.34-6.76l0,0L561.81,281.31z"/>
			</g>
		</g>
	</g>
</g>
</svg>
