<?xml version="1.0" encoding="utf-8"?>
<!-- Generator: Adobe Illustrator 16.0.0, SVG Export Plug-In . SVG Version: 6.00 Build 0)  -->
<svg version="1.2" baseProfile="tiny" id="Layer_3" xmlns="http://www.w3.org/2000/svg" xmlns:xlink="http://www.w3.org/1999/xlink"
	 x="0px" y="0px" width="386.631px" height="191.561px" viewBox="352.46 964.111 386.631 191.561" xml:space="preserve">
<g>
	<g>
		<g>
			<path id="b8BcOfo5k_1_" fill="#FFFFFF" fill-opacity="0.5" d="M352.46,1028.381l386.631-64.271l-307.28,191.561L352.46,1028.381z
				"/>
		</g>
	</g>
	<g>
		<g>
			<g>
				<path id="bsQWk2tCT_5_" fill="#3F3D56" d="M617.18,1126.671L617.18,1126.671c0,0.31,0,0.479,0,0.51l0,0
					c-25.681,0-39.96,0-42.811,0l0,0c0-0.311,0-0.48,0-0.51l0,0C600.06,1126.671,614.33,1126.671,617.18,1126.671z"/>
			</g>
			<g>
				<g>
					<path id="bsQWk2tCT_2_" fill-opacity="0" stroke="#000000" stroke-opacity="0" d="M617.18,1126.671L617.18,1126.671
						c0,0.31,0,0.479,0,0.51l0,0c-25.681,0-39.96,0-42.811,0l0,0c0-0.311,0-0.48,0-0.51l0,0
						C600.06,1126.671,614.33,1126.671,617.18,1126.671z"/>
				</g>
			</g>
		</g>
		<g>
			<g>
				<path id="d3q12wFJGm_5_" fill="#CFCCE0" d="M510.17,1026.981L510.17,1026.981c-19.12,38.62-29.739,60.07-31.87,64.36l0,0
					c-46.279-22.931-71.989-35.66-77.14-38.21l0,0c19.12-38.61,29.75-60.061,31.87-64.351l0,0
					C479.32,1011.7,505.03,1024.441,510.17,1026.981z"/>
			</g>
			<g>
				<g>
					<path id="d3q12wFJGm_2_" fill-opacity="0" stroke="#000000" stroke-opacity="0" d="M510.17,1026.981L510.17,1026.981
						c-19.12,38.62-29.739,60.07-31.87,64.36l0,0c-46.279-22.931-71.989-35.66-77.14-38.21l0,0
						c19.12-38.61,29.75-60.061,31.87-64.351l0,0C479.32,1011.7,505.03,1024.441,510.17,1026.981z"/>
				</g>
			</g>
		</g>
		<g>
			<g>
				<path id="c6ncd0gt8_5_" fill="#FFA500" d="M506.77,1016.111L506.77,1016.111c-19.12,38.61-29.74,60.061-31.86,64.351l0,0
					c-46.29-22.92-72-35.65-77.14-38.2l0,0c19.12-38.61,29.74-60.061,31.859-64.351l0,0
					C475.92,1000.83,501.63,1013.561,506.77,1016.111z"/>
			</g>
			<g>
				<g>
					<path id="c6ncd0gt8_2_" fill-opacity="0" stroke="#000000" stroke-opacity="0" d="M506.77,1016.111L506.77,1016.111
						c-19.12,38.61-29.74,60.061-31.86,64.351l0,0c-46.29-22.92-72-35.65-77.14-38.2l0,0c19.12-38.61,29.74-60.061,31.859-64.351
						l0,0C475.92,1000.83,501.63,1013.561,506.77,1016.111z"/>
				</g>
			</g>
		</g>
		<g>
			<g>
				<path id="bdqID5WZK_5_" fill="#CFCCE0" d="M473.53,1030.561l-21.08,12.12v-12.32l19.38-10.49l-0.18-0.319l-19.2,10.39v-11.99
					l11.04-10.27l-0.25-0.271l-10.79,10.04v-14.17h-0.37v14.181l-11.78-10.37l-0.239,0.279l12.02,10.58v11.99l-20.27-11.13
					l-0.181,0.32l20.45,11.229v12.32l-22.33-10.25l-0.149,0.34l22.479,10.31v14.15h0.37v-14.12l21.271-12.229l0,0L473.53,1030.561z"
					/>
			</g>
			<g>
				<g>
					<path id="bdqID5WZK_2_" fill-opacity="0" stroke="#000000" stroke-opacity="0" d="M473.53,1030.561l-21.08,12.12v-12.32
						l19.38-10.49l-0.18-0.319l-19.2,10.39v-11.99l11.04-10.27l-0.25-0.271l-10.79,10.04v-14.17h-0.37v14.181l-11.78-10.37
						l-0.239,0.279l12.02,10.58v11.99l-20.27-11.13l-0.181,0.32l20.45,11.229v12.32l-22.33-10.25l-0.149,0.34l22.479,10.31v14.15
						h0.37v-14.12l21.271-12.229l0,0L473.53,1030.561z"/>
				</g>
			</g>
		</g>
		<g>
			<g>
				<path id="e2dF3nEtRA_5_" fill="#3F3D56" d="M455.83,1058.58L455.83,1058.58l-0.02-0.05c-0.11-0.45-0.181-0.7-0.19-0.75
					c0.15-0.03,0.3-0.069,0.44-0.109c-2.221-0.671-4.42-0.49-6.23-0.07l0,0c-0.46,0.1-0.89,0.22-1.3,0.35
					c0.24,0.04,0.47,0.08,0.71,0.11c-0.01,0.03-0.05,0.189-0.11,0.47h-0.02l-0.92,3.44l2.84-0.01l5.67-0.021L455.83,1058.58z"/>
			</g>
			<g>
				<g>
					<path id="e2dF3nEtRA_2_" fill-opacity="0" stroke="#000000" stroke-opacity="0" d="M455.83,1058.58L455.83,1058.58l-0.02-0.05
						c-0.11-0.45-0.181-0.7-0.19-0.75c0.15-0.03,0.3-0.069,0.44-0.109c-2.221-0.671-4.42-0.49-6.23-0.07l0,0
						c-0.46,0.1-0.89,0.22-1.3,0.35c0.24,0.04,0.47,0.08,0.71,0.11c-0.01,0.03-0.05,0.189-0.11,0.47h-0.02l-0.92,3.44l2.84-0.01
						l5.67-0.021L455.83,1058.58z"/>
				</g>
			</g>
		</g>
		<g>
			<g>
				<path id="a27p7Ax6IS_5_" fill="#3F3D56" d="M498.95,1062.101h-86.63V989.83h86.63V1062.101z M412.77,1061.651H498.5v-71.37
					H412.77V1061.651z"/>
			</g>
			<g>
				<g>
					<path id="a27p7Ax6IS_2_" fill-opacity="0" stroke="#000000" stroke-opacity="0" d="M498.95,1062.101h-86.63V989.83h86.63
						V1062.101z M412.77,1061.651H498.5v-71.37H412.77V1061.651z"/>
				</g>
			</g>
		</g>
		<g>
			<g>
				<path id="dlDfqdoO5_5_" fill="#CFCCE0" d="M503.13,992.461c-0.21,2.84-2.68,4.97-5.52,4.76c-2.84-0.2-4.97-2.67-4.76-5.51
					c0.05-0.711,0.25-1.41,0.58-2.04c0.109-0.21,0.239-0.41,0.38-0.61c1.66-2.3,4.89-2.83,7.189-1.16
					c1.23,0.88,2.011,2.26,2.13,3.76c0.011,0.141,0.021,0.28,0.021,0.42C503.15,992.211,503.14,992.33,503.13,992.461z"/>
			</g>
			<g>
				<g>
					<path id="dlDfqdoO5_2_" fill-opacity="0" stroke="#000000" stroke-opacity="0" d="M503.13,992.461
						c-0.21,2.84-2.68,4.97-5.52,4.76c-2.84-0.2-4.97-2.67-4.76-5.51c0.05-0.711,0.25-1.41,0.58-2.04
						c0.109-0.21,0.239-0.41,0.38-0.61c1.66-2.3,4.89-2.83,7.189-1.16c1.23,0.88,2.011,2.26,2.13,3.76
						c0.011,0.141,0.021,0.28,0.021,0.42C503.15,992.211,503.14,992.33,503.13,992.461z"/>
				</g>
			</g>
		</g>
		<g>
			<g>
				<path id="f7kUKWD25_5_" fill="#FFA500" d="M504.77,989.981c-0.2,2.84-2.67,4.97-5.51,4.77c-2.841-0.209-4.98-2.68-4.771-5.52
					c0.05-0.71,0.25-1.4,0.58-2.03c0.11-0.22,0.24-0.42,0.38-0.609c1.67-2.311,4.89-2.841,7.2-1.17c1.22,0.88,2,2.26,2.12,3.76
					c0.01,0.14,0.02,0.28,0.02,0.42C504.79,989.731,504.79,989.851,504.77,989.981z"/>
			</g>
			<g>
				<g>
					<path id="f7kUKWD25_2_" fill-opacity="0" stroke="#000000" stroke-opacity="0" d="M504.77,989.981
						c-0.2,2.84-2.67,4.97-5.51,4.77c-2.841-0.209-4.98-2.68-4.771-5.52c0.05-0.71,0.25-1.4,0.58-2.03
						c0.11-0.22,0.24-0.42,0.38-0.609c1.67-2.311,4.89-2.841,7.2-1.17c1.22,0.88,2,2.26,2.12,3.76c0.01,0.14,0.02,0.28,0.02,0.42
						C504.79,989.731,504.79,989.851,504.77,989.981z"/>
				</g>
			</g>
		</g>
		<g>
			<g>
				<path id="c1oK8iI4gG_5_" fill="#3F3D56" d="M504.77,989.981c-0.51-0.06-3.08-0.37-7.721-0.93c4.631,0.08,7.211,0.12,7.721,0.13
					c0.01,0.14,0.02,0.28,0.02,0.42C504.79,989.731,504.79,989.851,504.77,989.981z"/>
			</g>
			<g>
				<g>
					<path id="c1oK8iI4gG_2_" fill-opacity="0" stroke="#000000" stroke-opacity="0" d="M504.77,989.981
						c-0.51-0.06-3.08-0.37-7.721-0.93c4.631,0.08,7.211,0.12,7.721,0.13c0.01,0.14,0.02,0.28,0.02,0.42
						C504.79,989.731,504.79,989.851,504.77,989.981z"/>
				</g>
			</g>
		</g>
		<g>
			<g>
				<path id="dk3yyiOAz_5_" fill="#3F3D56" d="M502.95,992.2c-4.29,0.521-6.67,0.8-7.14,0.86c-0.21-0.23-0.391-0.47-0.55-0.73
					C496.29,992.321,498.85,992.271,502.95,992.2z"/>
			</g>
			<g>
				<g>
					<path id="dk3yyiOAz_2_" fill-opacity="0" stroke="#000000" stroke-opacity="0" d="M502.95,992.2
						c-4.29,0.521-6.67,0.8-7.14,0.86c-0.21-0.23-0.391-0.47-0.55-0.73C496.29,992.321,498.85,992.271,502.95,992.2z"/>
				</g>
			</g>
		</g>
		<g>
			<g>
				<path id="e2n3lRSqcl_5_" fill="#3F3D56" d="M500.92,986.49c-3.51,0.42-5.46,0.66-5.85,0.71c0.11-0.22,0.24-0.42,0.38-0.609
					C496.18,986.571,498,986.541,500.92,986.49z"/>
			</g>
			<g>
				<g>
					<path id="e2n3lRSqcl_2_" fill-opacity="0" stroke="#000000" stroke-opacity="0" d="M500.92,986.49
						c-3.51,0.42-5.46,0.66-5.85,0.71c0.11-0.22,0.24-0.42,0.38-0.609C496.18,986.571,498,986.541,500.92,986.49z"/>
				</g>
			</g>
		</g>
		<g>
			<g>
				<path id="b4aA6kDzt8_5_" fill="#3F3D56" d="M484.29,1058.561c-1.83,0-3.31,1.48-3.31,3.32c0,1.83,1.479,3.31,3.31,3.31
					s3.32-1.479,3.32-3.31C487.61,1060.041,486.12,1058.561,484.29,1058.561z"/>
			</g>
			<g>
				<g>
					<path id="b4aA6kDzt8_2_" fill-opacity="0" stroke="#000000" stroke-opacity="0" d="M484.29,1058.561
						c-1.83,0-3.31,1.48-3.31,3.32c0,1.83,1.479,3.31,3.31,3.31s3.32-1.479,3.32-3.31
						C487.61,1060.041,486.12,1058.561,484.29,1058.561z"/>
				</g>
			</g>
		</g>
		<g>
			<g>
				<path id="b1tzBFKx_5_" fill="#3F3D56" d="M455.69,987.111c-1.83,0-3.32,1.48-3.32,3.311c0,1.829,1.49,3.319,3.32,3.319
					s3.31-1.49,3.31-3.319C459,988.591,457.52,987.111,455.69,987.111z"/>
			</g>
			<g>
				<g>
					<path id="b1tzBFKx_2_" fill-opacity="0" stroke="#000000" stroke-opacity="0" d="M455.69,987.111c-1.83,0-3.32,1.48-3.32,3.311
						c0,1.829,1.49,3.319,3.32,3.319s3.31-1.49,3.31-3.319C459,988.591,457.52,987.111,455.69,987.111z"/>
				</g>
			</g>
		</g>
		<g>
			<g>
				<path id="ePJ05Q7T9_5_" fill="#FF6584" d="M412.6,1009.571c-1.84,0-3.32,1.48-3.32,3.311s1.48,3.319,3.32,3.319
					c1.83,0,3.31-1.489,3.31-3.319S414.43,1009.571,412.6,1009.571z"/>
			</g>
			<g>
				<g>
					<path id="ePJ05Q7T9_2_" fill-opacity="0" stroke="#000000" stroke-opacity="0" d="M412.6,1009.571
						c-1.84,0-3.32,1.48-3.32,3.311s1.48,3.319,3.32,3.319c1.83,0,3.31-1.489,3.31-3.319S414.43,1009.571,412.6,1009.571z"/>
				</g>
			</g>
		</g>
		<g>
			<g>
				<path id="bNSJcDs0w_5_" fill="#CFCCE0" d="M603.71,1118.12L603.71,1118.12c0,6.19,0,9.63,0,10.32l0,0c-6.189,0-9.63,0-10.319,0
					l0,0c0-6.19,0-9.63,0-10.32l0,0C599.59,1118.12,603.03,1118.12,603.71,1118.12z"/>
			</g>
			<g>
				<g>
					<path id="bNSJcDs0w_2_" fill-opacity="0" stroke="#000000" stroke-opacity="0" d="M603.71,1118.12L603.71,1118.12
						c0,6.19,0,9.63,0,10.32l0,0c-6.189,0-9.63,0-10.319,0l0,0c0-6.19,0-9.63,0-10.32l0,0
						C599.59,1118.12,603.03,1118.12,603.71,1118.12z"/>
				</g>
			</g>
		</g>
		<g>
			<g>
				<path id="cfA3AM3WE_5_" fill="#3F3D56" d="M602.36,1127.08h-10.87v-10.859h10.87V1127.08z M592.04,1126.541h9.771v-9.78h-9.78
					L592.04,1126.541z"/>
			</g>
			<g>
				<g>
					<path id="cfA3AM3WE_2_" fill-opacity="0" stroke="#000000" stroke-opacity="0" d="M602.36,1127.08h-10.87v-10.859h10.87
						V1127.08z M592.04,1126.541h9.771v-9.78h-9.78L592.04,1126.541z"/>
				</g>
			</g>
		</g>
		<g>
			<g>
				<path id="g482G4w7kj_5_" fill="#2F2E41" d="M549.49,972.731c0,0-8.3-1.06-13.62,10.02c-4.96,10.32-11.81,20.301-1.1,22.711
					c0.12-0.4,0.77-2.41,1.93-6.021c0.72,3.88,1.12,6.04,1.2,6.47c1.52,0.11,3.05,0.141,4.58,0.08c11.47-0.37,22.39,0.11,22.04-4.01
					c-0.471-5.47,1.939-14.64-2.2-21.64C558.01,973.071,552.06,974.25,549.49,972.731z"/>
			</g>
			<g>
				<g>
					<path id="g482G4w7kj_2_" fill-opacity="0" stroke="#000000" stroke-opacity="0" d="M549.49,972.731c0,0-8.3-1.06-13.62,10.02
						c-4.96,10.32-11.81,20.301-1.1,22.711c0.12-0.4,0.77-2.41,1.93-6.021c0.72,3.88,1.12,6.04,1.2,6.47
						c1.52,0.11,3.05,0.141,4.58,0.08c11.47-0.37,22.39,0.11,22.04-4.01c-0.471-5.47,1.939-14.64-2.2-21.64
						C558.01,973.071,552.06,974.25,549.49,972.731z"/>
				</g>
			</g>
		</g>
		<g>
			<g>
				<path id="c3ZYBiQvre_5_" fill="#FFB9B9" d="M536.59,1046.261l-6.96-8.95l-5.06,2.37l8.21,10.56l3.55,4.7
					c0.01,0.021,0.01,0.03,0.01,0.03s5.811,6.96,9.79,3.979c3.98-2.989-6.14-9.45-6.14-9.45
					C539.54,1049.071,538.4,1047.99,536.59,1046.261z"/>
			</g>
			<g>
				<g>
					<path id="c3ZYBiQvre_2_" fill-opacity="0" stroke="#000000" stroke-opacity="0" d="M536.59,1046.261l-6.96-8.95l-5.06,2.37
						l8.21,10.56l3.55,4.7c0.01,0.021,0.01,0.03,0.01,0.03s5.811,6.96,9.79,3.979c3.98-2.989-6.14-9.45-6.14-9.45
						C539.54,1049.071,538.4,1047.99,536.59,1046.261z"/>
				</g>
			</g>
		</g>
		<g>
			<g>
				<path id="a1k20O4c2_5_" fill="#FFB9B9" d="M565.95,1035.151l-3.82,3.98l3.561,4.699c0,0.021,0.01,0.03,0.01,0.03
					s5.8,6.96,9.78,3.98c3.979-2.99-6.141-9.45-6.141-9.45C568.89,1037.95,567.76,1036.881,565.95,1035.151z"/>
			</g>
			<g>
				<g>
					<path id="a1k20O4c2_2_" fill-opacity="0" stroke="#000000" stroke-opacity="0" d="M565.95,1035.151l-3.82,3.98l3.561,4.699
						c0,0.021,0.01,0.03,0.01,0.03s5.8,6.96,9.78,3.98c3.979-2.99-6.141-9.45-6.141-9.45
						C568.89,1037.95,567.76,1036.881,565.95,1035.151z"/>
				</g>
			</g>
		</g>
		<g>
			<g>
				<path id="e3cEICP21z_5_" fill="#CFCCE0" d="M568.27,1036.151l-3.82,2.15l-5.47-6.63l3.319-1l0,0L568.27,1036.151z"/>
			</g>
			<g>
				<g>
					<path id="e3cEICP21z_2_" fill-opacity="0" stroke="#000000" stroke-opacity="0" d="M568.27,1036.151l-3.82,2.15l-5.47-6.63
						l3.319-1l0,0L568.27,1036.151z"/>
				</g>
			</g>
		</g>
		<g>
			<g>
				<path id="aat3OFo4C_5_" fill="#CFCCE0" d="M562.63,1004.971c0,0,2.32-1.99,3.32,4.479l-1.66,8.79
					C563.95,1015.58,562.96,1007.62,562.63,1004.971z"/>
			</g>
			<g>
				<g>
					<path id="aat3OFo4C_2_" fill-opacity="0" stroke="#000000" stroke-opacity="0" d="M562.63,1004.971c0,0,2.32-1.99,3.32,4.479
						l-1.66,8.79C563.95,1015.58,562.96,1007.62,562.63,1004.971z"/>
				</g>
			</g>
		</g>
		<g>
			<g>
				<path id="a4rtEqICEq_5_" fill="#FFB9B9" d="M548.86,980.261c-4.85,0-8.79,3.93-8.79,8.79c0,4.85,3.94,8.79,8.79,8.79
					c4.86,0,8.79-3.94,8.79-8.79C557.65,984.191,553.72,980.261,548.86,980.261z"/>
			</g>
			<g>
				<g>
					<path id="a4rtEqICEq_2_" fill-opacity="0" stroke="#000000" stroke-opacity="0" d="M548.86,980.261
						c-4.85,0-8.79,3.93-8.79,8.79c0,4.85,3.94,8.79,8.79,8.79c4.86,0,8.79-3.94,8.79-8.79
						C557.65,984.191,553.72,980.261,548.86,980.261z"/>
				</g>
			</g>
		</g>
		<g>
			<g>
				<path id="c7D7iUeCkH_5_" fill="#FFB9B9" d="M543.56,994.021c0,0-1.16,5.64-5.811,6.3c0,0-11.939,2.99-10.939,7.471
					c0.989,4.479,28.85,3.979,28.85,3.979c0.5-0.771,4.48-6.87,4.98-7.63c0,0-10.28-2.65-9.29-8.63
					C549.79,995.221,545.12,994.321,543.56,994.021z"/>
			</g>
			<g>
				<g>
					<path id="c7D7iUeCkH_2_" fill-opacity="0" stroke="#000000" stroke-opacity="0" d="M543.56,994.021c0,0-1.16,5.64-5.811,6.3
						c0,0-11.939,2.99-10.939,7.471c0.989,4.479,28.85,3.979,28.85,3.979c0.5-0.771,4.48-6.87,4.98-7.63c0,0-10.28-2.65-9.29-8.63
						C549.79,995.221,545.12,994.321,543.56,994.021z"/>
				</g>
			</g>
		</g>
		<g>
			<g>
				<path id="cEDsx9gAS_5_" fill="#CFCCE0" d="M535.26,1007.461c0,0-8.711,1.399-7.421-3.12c0,0-1.029-1.53-2.029,3.279
					c-0.99,4.811-8.46,21.23-7.79,21.891c0.16,0.17,0.99,1,2.479,2.489l5.48,10.61l5.8-3.31c-1.19-2.59-1.86-4.03-1.99-4.311
					c0,0,3.82,3.15,5.641-1.5c0,0,1.489,4.48,4.64,4.65c3.15,0.16,23.55-5.641,23.55-5.641s-1.16-4.649,0-6.64s2.99-5.97,2.16-8.95
					c-0.15-1.199-1.34-10.75-1.49-11.939c0,0-6.22-2.57-7.05-2.08C552.84,1003.811,550.69,1007.791,535.26,1007.461z"/>
			</g>
			<g>
				<g>
					<path id="cEDsx9gAS_2_" fill-opacity="0" stroke="#000000" stroke-opacity="0" d="M535.26,1007.461c0,0-8.711,1.399-7.421-3.12
						c0,0-1.029-1.53-2.029,3.279c-0.99,4.811-8.46,21.23-7.79,21.891c0.16,0.17,0.99,1,2.479,2.489l5.48,10.61l5.8-3.31
						c-1.19-2.59-1.86-4.03-1.99-4.311c0,0,3.82,3.15,5.641-1.5c0,0,1.489,4.48,4.64,4.65c3.15,0.16,23.55-5.641,23.55-5.641
						s-1.16-4.649,0-6.64s2.99-5.97,2.16-8.95c-0.15-1.199-1.34-10.75-1.49-11.939c0,0-6.22-2.57-7.05-2.08
						C552.84,1003.811,550.69,1007.791,535.26,1007.461z"/>
				</g>
			</g>
		</g>
		<g>
			<g>
				<path id="a7qnIrFKHS_5_" fill="#2F2E41" d="M540.32,1037.891c0.35,2.83,0.54,4.41,0.58,4.72c0,0-5.3,3.98-4.48,18.25
					c-1.649,6.91-14.92,62.24-16.58,69.15c0,0,3.15,4.149,11.44,3.819l24.38-66.34c0,0-4.479,64.681,1,66.34l13.271,0.83
					c0.51-8.66,4.619-77.92,5.14-86.569c0,0-5.14-8.63-8.13-10.29l-4.15-5.801C559.8,1032.791,552.31,1034.75,540.32,1037.891z"/>
			</g>
			<g>
				<g>
					<path id="a7qnIrFKHS_2_" fill-opacity="0" stroke="#000000" stroke-opacity="0" d="M540.32,1037.891
						c0.35,2.83,0.54,4.41,0.58,4.72c0,0-5.3,3.98-4.48,18.25c-1.649,6.91-14.92,62.24-16.58,69.15c0,0,3.15,4.149,11.44,3.819
						l24.38-66.34c0,0-4.479,64.681,1,66.34l13.271,0.83c0.51-8.66,4.619-77.92,5.14-86.569c0,0-5.14-8.63-8.13-10.29l-4.15-5.801
						C559.8,1032.791,552.31,1034.75,540.32,1037.891z"/>
				</g>
			</g>
		</g>
		<g>
			<g>
				<path id="d3NKHAhxme_5_" fill="#2F2E41" d="M520.67,1129.181c-0.5,3.689-0.77,5.729-0.83,6.14c0,0-7.63,16.42-0.659,15.92
					c6.96-0.5,7.13-10.609,7.13-10.609c0.09-0.58,0.529-3.45,1.33-8.631L520.67,1129.181z"/>
			</g>
			<g>
				<g>
					<path id="d3NKHAhxme_2_" fill-opacity="0" stroke="#000000" stroke-opacity="0" d="M520.67,1129.181
						c-0.5,3.689-0.77,5.729-0.83,6.14c0,0-7.63,16.42-0.659,15.92c6.96-0.5,7.13-10.609,7.13-10.609
						c0.09-0.58,0.529-3.45,1.33-8.631L520.67,1129.181z"/>
				</g>
			</g>
		</g>
		<g>
			<g>
				<path id="b3QDUYKF7n_5_" fill="#2F2E41" d="M564.12,1129.181c0.5,3.689,0.771,5.729,0.83,6.14c0,0,7.63,16.42,0.66,15.92
					l-7.13-10.609c-0.09-0.58-0.53-3.45-1.32-8.631L564.12,1129.181z"/>
			</g>
			<g>
				<g>
					<path id="b3QDUYKF7n_2_" fill-opacity="0" stroke="#000000" stroke-opacity="0" d="M564.12,1129.181
						c0.5,3.689,0.771,5.729,0.83,6.14c0,0,7.63,16.42,0.66,15.92l-7.13-10.609c-0.09-0.58-0.53-3.45-1.32-8.631L564.12,1129.181z"
						/>
				</g>
			</g>
		</g>
		<g>
			<g>
				<path id="apnJfiCnn_5_" fill="#2F2E41" d="M552,975.571l-11.62,1.8l-2.409,10.62l5.989-0.229l1.67-3.9v3.83l2.761-0.1l1.6-6.21
					l1.01,6.609l9.811-0.199l-0.4-7.82l0,0L552,975.571z"/>
			</g>
			<g>
				<g>
					<path id="apnJfiCnn_2_" fill-opacity="0" stroke="#000000" stroke-opacity="0" d="M552,975.571l-11.62,1.8l-2.409,10.62
						l5.989-0.229l1.67-3.9v3.83l2.761-0.1l1.6-6.21l1.01,6.609l9.811-0.199l-0.4-7.82l0,0L552,975.571z"/>
				</g>
			</g>
		</g>
		<g>
			<g>
				<path id="a1SRcohrV3_5_" fill="#FFA500" d="M597.1,1062.801c0,0,4.069,3.399,9,3.3c4.939-0.11,8.859-3.68,8.859-3.68
					s-4.069-3.4-9.01-3.301C601.02,1059.231,598.87,1062.071,597.1,1062.801z"/>
			</g>
			<g>
				<g>
					<path id="a1SRcohrV3_2_" fill-opacity="0" stroke="#000000" stroke-opacity="0" d="M597.1,1062.801c0,0,4.069,3.399,9,3.3
						c4.939-0.11,8.859-3.68,8.859-3.68s-4.069-3.4-9.01-3.301C601.02,1059.231,598.87,1062.071,597.1,1062.801z"/>
				</g>
			</g>
		</g>
		<g>
			<g>
				<path id="bT9irmgKg_5_" fill="#FFA500" d="M621.18,1042.971c0,0,2.119-4.86,6.569-6.98c4.45-2.109,9.561-0.68,9.561-0.68
					s-2.11,4.87-6.57,6.98C626.29,1044.41,623.09,1042.841,621.18,1042.971z"/>
			</g>
			<g>
				<g>
					<path id="bT9irmgKg_2_" fill-opacity="0" stroke="#000000" stroke-opacity="0" d="M621.18,1042.971c0,0,2.119-4.86,6.569-6.98
						c4.45-2.109,9.561-0.68,9.561-0.68s-2.11,4.87-6.57,6.98C626.29,1044.41,623.09,1042.841,621.18,1042.971z"/>
				</g>
			</g>
		</g>
		<g>
			<g>
				<path id="c9ZZ3YW5A_5_" fill="#3F3D56" d="M621.08,1042.851c0,0,3.66,3.84,8.58,4.29c4.91,0.45,9.21-2.66,9.21-2.66
					s-3.67-3.84-8.58-4.29S622.92,1042.321,621.08,1042.851z"/>
			</g>
			<g>
				<g>
					<path id="c9ZZ3YW5A_2_" fill-opacity="0" stroke="#000000" stroke-opacity="0" d="M621.08,1042.851c0,0,3.66,3.84,8.58,4.29
						c4.91,0.45,9.21-2.66,9.21-2.66s-3.67-3.84-8.58-4.29S622.92,1042.321,621.08,1042.851z"/>
				</g>
			</g>
		</g>
		<g>
			<g>
				<path id="b2erWyKArd_5_" fill="#3F3D56" d="M609.67,1050.261c0,0-3.859-3.641-4.33-8.55c-0.47-4.91,2.62-9.23,2.62-9.23
					s3.86,3.65,4.33,8.561C612.76,1045.95,610.19,1048.421,609.67,1050.261z"/>
			</g>
			<g>
				<g>
					<path id="b2erWyKArd_2_" fill-opacity="0" stroke="#000000" stroke-opacity="0" d="M609.67,1050.261c0,0-3.859-3.641-4.33-8.55
						c-0.47-4.91,2.62-9.23,2.62-9.23s3.86,3.65,4.33,8.561C612.76,1045.95,610.19,1048.421,609.67,1050.261z"/>
				</g>
			</g>
		</g>
		<g>
			<g>
				<path id="f2tcwjOGeO_5_" fill="#3F3D56" d="M590.85,1080.591c0,0-5.07-1.591-7.641-5.8c-2.58-4.2-1.689-9.431-1.689-9.431
					s5.06,1.58,7.64,5.79C591.73,1075.351,590.51,1078.7,590.85,1080.591z"/>
			</g>
			<g>
				<g>
					<path id="f2tcwjOGeO_2_" fill-opacity="0" stroke="#000000" stroke-opacity="0" d="M590.85,1080.591c0,0-5.07-1.591-7.641-5.8
						c-2.58-4.2-1.689-9.431-1.689-9.431s5.06,1.58,7.64,5.79C591.73,1075.351,590.51,1078.7,590.85,1080.591z"/>
				</g>
			</g>
		</g>
		<g>
			<g>
				<path id="b2yxYgus0n_5_" fill="#3F3D56" d="M596.26,1116.62c1.319-1.92,2.039-4.189,2.069-6.52c-0.01-3.41-1.68-6.57-3.3-9.62
					c-0.31-0.57-0.61-1.13-0.89-1.689c-1.21-2.301-2.181-4.73-2.88-7.23c-2.511-9.34-0.04-20.36,6.619-29.48
					c5.28-7.229,13.15-13.55,24.07-19.33c0.021,0.041,0.19,0.36,0.21,0.4c-10.85,5.74-18.68,12.03-23.92,19.2
					c-6.57,9.01-9.02,19.88-6.54,29.09c0.69,2.48,1.64,4.87,2.84,7.14c0.29,0.561,0.59,1.12,0.891,1.69c1.64,3.1,3.34,6.3,3.35,9.83
					c-0.03,2.42-0.78,4.78-2.15,6.77C596.56,1116.821,596.29,1116.651,596.26,1116.62z"/>
			</g>
			<g>
				<g>
					<path id="b2yxYgus0n_2_" fill-opacity="0" stroke="#000000" stroke-opacity="0" d="M596.26,1116.62
						c1.319-1.92,2.039-4.189,2.069-6.52c-0.01-3.41-1.68-6.57-3.3-9.62c-0.31-0.57-0.61-1.13-0.89-1.689
						c-1.21-2.301-2.181-4.73-2.88-7.23c-2.511-9.34-0.04-20.36,6.619-29.48c5.28-7.229,13.15-13.55,24.07-19.33
						c0.021,0.041,0.19,0.36,0.21,0.4c-10.85,5.74-18.68,12.03-23.92,19.2c-6.57,9.01-9.02,19.88-6.54,29.09
						c0.69,2.48,1.64,4.87,2.84,7.14c0.29,0.561,0.59,1.12,0.891,1.69c1.64,3.1,3.34,6.3,3.35,9.83c-0.03,2.42-0.78,4.78-2.15,6.77
						C596.56,1116.821,596.29,1116.651,596.26,1116.62z"/>
				</g>
			</g>
		</g>
		<g>
			<g>
				<path id="c176fb38bM_5_" fill="#3F3D56" d="M643.46,1034.74c-2.38,0-4.3,1.92-4.3,4.301c0,2.38,1.92,4.3,4.3,4.3
					s4.311-1.92,4.311-4.3C647.77,1036.66,645.84,1034.74,643.46,1034.74z"/>
			</g>
			<g>
				<g>
					<path id="c176fb38bM_2_" fill-opacity="0" stroke="#000000" stroke-opacity="0" d="M643.46,1034.74c-2.38,0-4.3,1.92-4.3,4.301
						c0,2.38,1.92,4.3,4.3,4.3s4.311-1.92,4.311-4.3C647.77,1036.66,645.84,1034.74,643.46,1034.74z"/>
				</g>
			</g>
		</g>
	</g>
</g>
</svg>
