<?xml version="1.0" encoding="utf-8"?>
<!-- Generator: Adobe Illustrator 16.0.0, SVG Export Plug-In . SVG Version: 6.00 Build 0)  -->
<!DOCTYPE svg PUBLIC "-//W3C//DTD SVG 1.1//EN" "http://www.w3.org/Graphics/SVG/1.1/DTD/svg11.dtd">
<svg version="1.1" id="Layer_2" xmlns="http://www.w3.org/2000/svg" xmlns:xlink="http://www.w3.org/1999/xlink" x="0px" y="0px"
	 width="386.631px" height="207.826px" viewBox="323.91 573.55 386.631 207.826"
	 enable-background="new 323.91 573.55 386.631 207.826" xml:space="preserve">
<g>
	<g>
		<path id="a6ouDDfOYA_1_" fill="#FFFFFF" fill-opacity="0.5" d="M323.91,643.03l386.631-64.279L403.26,770.32L323.91,643.03z"/>
	</g>
</g>
<g>
	<g>
		<g>
			<path id="a1ZwmMP9Te_5_" fill="#FFA500" d="M403.83,747.24c-0.119,0-0.22,0-0.239,0c-0.23,0-0.42-0.01-0.46-0.01
				c-3.061-0.19-5.45-1.86-5.49-6.15c-0.04-4.439,5.58-10.09,6-10.51l0,0c0.01-0.02,0.02-0.02,0.02-0.02s6.181,5.8,6.23,10.41
				C409.93,745.57,407.211,747.21,403.83,747.24z"/>
		</g>
		<g>
			<g>
				<path id="a1ZwmMP9Te_2_" fill-opacity="0" stroke="#000000" stroke-opacity="0" d="M403.83,747.24c-0.119,0-0.22,0-0.239,0
					c-0.23,0-0.42-0.01-0.46-0.01c-3.061-0.19-5.45-1.86-5.49-6.15c-0.04-4.439,5.58-10.09,6-10.51l0,0
					c0.01-0.02,0.02-0.02,0.02-0.02s6.181,5.8,6.23,10.41C409.93,745.57,407.211,747.21,403.83,747.24z"/>
			</g>
		</g>
	</g>
	<g>
		<g>
			<path id="b7mm7VvlW_5_" fill="#FFA500" d="M500.48,746.98c-0.12,0.01-0.21,0-0.23,0c-0.239,0-0.42-0.01-0.47-0.01
				c-3.05-0.19-5.439-1.86-5.479-6.15c-0.051-4.43,5.569-10.09,5.989-10.51l0,0c0.021-0.01,0.03-0.021,0.03-0.021
				s6.18,5.801,6.22,10.41C506.591,745.31,503.86,746.949,500.48,746.98z"/>
		</g>
		<g>
			<g>
				<path id="b7mm7VvlW_2_" fill-opacity="0" stroke="#000000" stroke-opacity="0" d="M500.48,746.98c-0.12,0.01-0.21,0-0.23,0
					c-0.239,0-0.42-0.01-0.47-0.01c-3.05-0.19-5.439-1.86-5.479-6.15c-0.051-4.43,5.569-10.09,5.989-10.51l0,0
					c0.021-0.01,0.03-0.021,0.03-0.021s6.18,5.801,6.22,10.41C506.591,745.31,503.86,746.949,500.48,746.98z"/>
			</g>
		</g>
	</g>
	<g>
		<g>
			<path id="abx47kDc7T_5_" fill="#3F3D56" d="M585.85,746.65L585.85,746.65c0,0.311,0,0.49,0,0.521l0,0c-132,0-205.34,0-220,0l0,0
				c0-0.311,0-0.48,0-0.521l0,0C497.85,746.65,571.18,746.65,585.85,746.65z"/>
		</g>
		<g>
			<g>
				<path id="abx47kDc7T_2_" fill-opacity="0" stroke="#000000" stroke-opacity="0" d="M585.85,746.65L585.85,746.65
					c0,0.311,0,0.49,0,0.521l0,0c-132,0-205.34,0-220,0l0,0c0-0.311,0-0.48,0-0.521l0,0C497.85,746.65,571.18,746.65,585.85,746.65z
					"/>
			</g>
		</g>
	</g>
	<g>
		<g>
			<path id="h5RvTUq7N_5_" fill="#FFA500" d="M410.68,574.05c-23.76,0-43.021,19.26-43.021,43.02s19.261,43.021,43.021,43.021
				c23.75,0,43.01-19.261,43.01-43.021S434.43,574.05,410.68,574.05z"/>
		</g>
		<g>
			<g>
				<path id="h5RvTUq7N_2_" fill-opacity="0" stroke="#000000" stroke-opacity="0" d="M410.68,574.05
					c-23.76,0-43.021,19.26-43.021,43.02s19.261,43.021,43.021,43.021c23.75,0,43.01-19.261,43.01-43.021
					S434.43,574.05,410.68,574.05z"/>
			</g>
		</g>
	</g>
	<g>
		<g>
			<path id="k1qeiLrGHI_5_" fill="#3F3D56" d="M463.02,708.28c21.47,0,38.87,17.41,38.87,38.87l0,0h-60.9c0-10.1,0-15.72,0-16.84
				C440.99,718.15,450.85,708.28,463.02,708.28L463.02,708.28z"/>
		</g>
		<g>
			<g>
				<path id="k1qeiLrGHI_2_" fill-opacity="0" stroke="#000000" stroke-opacity="0" d="M463.02,708.28
					c21.47,0,38.87,17.41,38.87,38.87l0,0h-60.9c0-10.1,0-15.72,0-16.84C440.99,718.15,450.85,708.28,463.02,708.28L463.02,708.28z"
					/>
			</g>
		</g>
	</g>
	<g>
		<g>
			<path id="a3pMGkgQii_5_" fill="#A0616A" d="M546.76,680.75c0,0-11.351,6.029-25.53,4.609c0,0-13.83,7.45-11.71,0.36
				c2.13-7.101,11.71-5.32,11.71-5.32s17.02-3.55,17.73-6.03c0.71-2.479-2.131-12.77-1.07-13.119c1.07-0.36,9.58-4.261,9.58-4.261
				C547.33,661.74,549.24,680.039,546.76,680.75z"/>
		</g>
		<g>
			<g>
				<path id="a3pMGkgQii_2_" fill-opacity="0" stroke="#000000" stroke-opacity="0" d="M546.76,680.75c0,0-11.351,6.029-25.53,4.609
					c0,0-13.83,7.45-11.71,0.36c2.13-7.101,11.71-5.32,11.71-5.32s17.02-3.55,17.73-6.03c0.71-2.479-2.131-12.77-1.07-13.119
					c1.07-0.36,9.58-4.261,9.58-4.261C547.33,661.74,549.24,680.039,546.76,680.75z"/>
			</g>
		</g>
	</g>
	<g>
		<g>
			<path id="b995lsSVvk_5_" fill="#2F2E41" d="M526.23,697.18c0,0,1.38,33.3,3.51,38.27c1.771,4.141,2.8,17.62,3.101,22.011
				c0.06,0.88,0.09,1.399,0.09,1.399s5.67,0,6.03-1.42c0.35-1.42,1.42-17.03,0-21.99c-1.421-4.97,1.81-39.33,1.81-39.33
				C537.86,696.329,529.14,696.97,526.23,697.18z"/>
		</g>
		<g>
			<g>
				<path id="b995lsSVvk_2_" fill-opacity="0" stroke="#000000" stroke-opacity="0" d="M526.23,697.18c0,0,1.38,33.3,3.51,38.27
					c1.771,4.141,2.8,17.62,3.101,22.011c0.06,0.88,0.09,1.399,0.09,1.399s5.67,0,6.03-1.42c0.35-1.42,1.42-17.03,0-21.99
					c-1.421-4.97,1.81-39.33,1.81-39.33C537.86,696.329,529.14,696.97,526.23,697.18z"/>
			</g>
		</g>
	</g>
	<g>
		<g>
			<path id="i1nCYBgJ4_5_" fill="#2F2E41" d="M534.35,757.079c0,0-3.55,1.07-4.26,2.48c0,0-12.41,3.91-8.86,5.68l14.18-1.42
				c0,0,5.681-0.35,5.32-2.479l-1.64-4.75C538.14,756.69,535.301,756.98,534.35,757.079z"/>
		</g>
		<g>
			<g>
				<path id="i1nCYBgJ4_2_" fill-opacity="0" stroke="#000000" stroke-opacity="0" d="M534.35,757.079c0,0-3.55,1.07-4.26,2.48
					c0,0-12.41,3.91-8.86,5.68l14.18-1.42c0,0,5.681-0.35,5.32-2.479l-1.64-4.75C538.14,756.69,535.301,756.98,534.35,757.079z"/>
			</g>
		</g>
	</g>
	<g>
		<g>
			<path id="b1jN04QQ3F_5_" fill="#2F2E41" d="M544.28,760.9c0,0-3.55,1.061-4.26,2.48c0,0-12.41,3.899-8.86,5.68l14.181-1.42
				c0,0,5.68-0.36,5.319-2.48l-1.649-4.75C548.07,760.51,545.22,760.8,544.28,760.9z"/>
		</g>
		<g>
			<g>
				<path id="b1jN04QQ3F_2_" fill-opacity="0" stroke="#000000" stroke-opacity="0" d="M544.28,760.9c0,0-3.55,1.061-4.26,2.48
					c0,0-12.41,3.899-8.86,5.68l14.181-1.42c0,0,5.68-0.36,5.319-2.48l-1.649-4.75C548.07,760.51,545.22,760.8,544.28,760.9z"/>
			</g>
		</g>
	</g>
	<g>
		<g>
			<path id="cfyK7YA5M_5_" fill="#2F2E41" d="M534.35,704.869c4.97,17.75,7.729,27.62,8.28,29.591c0,0-0.83,27.149,0.229,27.149
				c0,0,6.74,1.771,7.09,0c0.3-1.5,4.271-15.85,2.29-25.399c-1.279-6.03-2.109-12.16-2.47-18.32c-0.09-1.66-0.79-14.91-0.88-16.57
				c0,0,3.54-6.38-0.36-7.45c-3.899-1.06-19.149,2.49-19.149,2.49C530.04,697.49,531.7,700.329,534.35,704.869z"/>
		</g>
		<g>
			<g>
				<path id="cfyK7YA5M_2_" fill-opacity="0" stroke="#000000" stroke-opacity="0" d="M534.35,704.869
					c4.97,17.75,7.729,27.62,8.28,29.591c0,0-0.83,27.149,0.229,27.149c0,0,6.74,1.771,7.09,0c0.3-1.5,4.271-15.85,2.29-25.399
					c-1.279-6.03-2.109-12.16-2.47-18.32c-0.09-1.66-0.79-14.91-0.88-16.57c0,0,3.54-6.38-0.36-7.45
					c-3.899-1.06-19.149,2.49-19.149,2.49C530.04,697.49,531.7,700.329,534.35,704.869z"/>
			</g>
		</g>
	</g>
	<g>
		<g>
			<path id="dEb13LCp_5_" fill="#A0616A" d="M533.99,624.72c-4.7,0-8.51,3.81-8.51,8.51s3.81,8.51,8.51,8.51s8.51-3.81,8.51-8.51
				S538.69,624.72,533.99,624.72z"/>
		</g>
		<g>
			<g>
				<path id="dEb13LCp_2_" fill-opacity="0" stroke="#000000" stroke-opacity="0" d="M533.99,624.72c-4.7,0-8.51,3.81-8.51,8.51
					s3.81,8.51,8.51,8.51s8.51-3.81,8.51-8.51S538.69,624.72,533.99,624.72z"/>
			</g>
		</g>
	</g>
	<g>
		<g>
			<path id="b5Oilycwvd_5_" fill="#A0616A" d="M532.93,638.909c0,0,1.42,11.341,1.06,12.051l8.51-7.801c0,0-3.189-4.96-2.479-7.449
				C538.6,636.35,534.35,638.27,532.93,638.909z"/>
		</g>
		<g>
			<g>
				<path id="b5Oilycwvd_2_" fill-opacity="0" stroke="#000000" stroke-opacity="0" d="M532.93,638.909c0,0,1.42,11.341,1.06,12.051
					l8.51-7.801c0,0-3.189-4.96-2.479-7.449C538.6,636.35,534.35,638.27,532.93,638.909z"/>
			</g>
		</g>
	</g>
	<g>
		<g>
			<path id="b49pFvjZrk_5_" fill="#575A89" d="M542.5,641.74c-0.489,0.431-2.97,2.561-7.439,6.391c-0.76-0.91-1.18-1.41-1.271-1.511
				c0,0-5.829,5.761-5.829,8.24c0,0-0.351,9.93,0.71,12.061c1.069,2.13-3.19,29.08-3.19,29.08s3.55,3.189,3.9,3.55
				c0.359,0.35,14.54-2.13,14.54-2.13s7.1-0.71,7.1-1.771c0-1.07-2.13-17.03-1.42-21.28c0.71-4.26,3.189-24.119,3.189-24.119
				C550.73,648.55,542.86,643.159,542.5,641.74z"/>
		</g>
		<g>
			<g>
				<path id="b49pFvjZrk_2_" fill-opacity="0" stroke="#000000" stroke-opacity="0" d="M542.5,641.74
					c-0.489,0.431-2.97,2.561-7.439,6.391c-0.76-0.91-1.18-1.41-1.271-1.511c0,0-5.829,5.761-5.829,8.24c0,0-0.351,9.93,0.71,12.061
					c1.069,2.13-3.19,29.08-3.19,29.08s3.55,3.189,3.9,3.55c0.359,0.35,14.54-2.13,14.54-2.13s7.1-0.71,7.1-1.771
					c0-1.07-2.13-17.03-1.42-21.28c0.71-4.26,3.189-24.119,3.189-24.119C550.73,648.55,542.86,643.159,542.5,641.74z"/>
			</g>
		</g>
	</g>
	<g>
		<g>
			<path id="a2JVlNNeEa_5_" fill="#A0616A" d="M554.211,683.94c0,0-11.351,6.03-25.54,4.61c0,0-13.83,7.45-11.7,0.359
				c2.13-7.09,11.7-5.319,11.7-5.319s17.029-3.551,17.739-6.03c0.7-2.48-2.13-12.771-1.069-13.12c1.069-0.36,9.58-4.26,9.58-4.26
				C554.77,664.94,556.69,683.23,554.211,683.94z"/>
		</g>
		<g>
			<g>
				<path id="a2JVlNNeEa_2_" fill-opacity="0" stroke="#000000" stroke-opacity="0" d="M554.211,683.94c0,0-11.351,6.03-25.54,4.61
					c0,0-13.83,7.45-11.7,0.359c2.13-7.09,11.7-5.319,11.7-5.319s17.029-3.551,17.739-6.03c0.7-2.48-2.13-12.771-1.069-13.12
					c1.069-0.36,9.58-4.26,9.58-4.26C554.77,664.94,556.69,683.23,554.211,683.94z"/>
			</g>
		</g>
	</g>
	<g>
		<g>
			<path id="a1NLatEmAL_5_" fill="#2F2E41" d="M533.99,628.699c1.681,0.48,2.84,1.95,4.101,3.17c1.25,1.221,3.01,2.301,4.659,1.721
				c-0.1-0.71,0.091-1.44,0.521-2.021c0.22-0.21,0.38-0.479,0.47-0.77c0.07-0.45-0.319-0.851-0.43-1.29
				c-0.2-0.79,0.35-1.86-0.33-2.3c-0.18-0.11-0.41-0.141-0.58-0.261c-0.689-0.479,0.08-1.67-0.38-2.38
				c-0.13-0.18-0.31-0.33-0.51-0.43c-3.29-1.92-7.32-1.92-11.13-1.87c-0.53,0-1.271,0.27-1.12,0.77
				c-0.721-0.51-1.66,0.211-2.24,0.881c-0.12,0.14-1.07,1.239-1.19,1.369c-0.56,0.601-1.04,1.261-1.449,1.971
				c-0.36,0.689-0.44,1.76,0.279,2.06c-0.54-0.22-1.189,2.96,1.29,2.431c1.431-0.301,2.84-2.211,4.41-2.771
				C531.52,628.57,532.801,628.35,533.99,628.699z"/>
		</g>
		<g>
			<g>
				<path id="a1NLatEmAL_2_" fill-opacity="0" stroke="#000000" stroke-opacity="0" d="M533.99,628.699
					c1.681,0.48,2.84,1.95,4.101,3.17c1.25,1.221,3.01,2.301,4.659,1.721c-0.1-0.71,0.091-1.44,0.521-2.021
					c0.22-0.21,0.38-0.479,0.47-0.77c0.07-0.45-0.319-0.851-0.43-1.29c-0.2-0.79,0.35-1.86-0.33-2.3
					c-0.18-0.11-0.41-0.141-0.58-0.261c-0.689-0.479,0.08-1.67-0.38-2.38c-0.13-0.18-0.31-0.33-0.51-0.43
					c-3.29-1.92-7.32-1.92-11.13-1.87c-0.53,0-1.271,0.27-1.12,0.77c-0.721-0.51-1.66,0.211-2.24,0.881
					c-0.12,0.14-1.07,1.239-1.19,1.369c-0.56,0.601-1.04,1.261-1.449,1.971c-0.36,0.689-0.44,1.76,0.279,2.06
					c-0.54-0.22-1.189,2.96,1.29,2.431c1.431-0.301,2.84-2.211,4.41-2.771C531.52,628.57,532.801,628.35,533.99,628.699z"/>
			</g>
		</g>
	</g>
	<g>
		<g>
			<path id="b3hmVBLhZu_5_" fill="#575A89" d="M552.79,650.25c0,0,5.671,11,2.48,12.77c0,0-11.35,3.19-11.35,2.48
				c0-0.711,3.189-14.54,3.189-14.54C548.25,650.82,552.22,650.32,552.79,650.25z"/>
		</g>
		<g>
			<g>
				<path id="b3hmVBLhZu_2_" fill-opacity="0" stroke="#000000" stroke-opacity="0" d="M552.79,650.25c0,0,5.671,11,2.48,12.77
					c0,0-11.35,3.19-11.35,2.48c0-0.711,3.189-14.54,3.189-14.54C548.25,650.82,552.22,650.32,552.79,650.25z"/>
			</g>
		</g>
	</g>
	<g>
		<g>
			<path id="a6otmEUtO_5_" fill="#FFB9B9" d="M469.35,653.38c0,0,1.689,5.56,0.72,7.25c0,0,1.7,5.319,6.05,3.63l4.591-3.63
				c0,0-1.69-2.66-2.171-8.221C476.7,652.6,471.19,653.18,469.35,653.38z"/>
		</g>
		<g>
			<g>
				<path id="a6otmEUtO_2_" fill-opacity="0" stroke="#000000" stroke-opacity="0" d="M469.35,653.38c0,0,1.689,5.56,0.72,7.25
					c0,0,1.7,5.319,6.05,3.63l4.591-3.63c0,0-1.69-2.66-2.171-8.221C476.7,652.6,471.19,653.18,469.35,653.38z"/>
			</g>
		</g>
	</g>
	<g>
		<g>
			<path id="a2tnZX2vXC_5_" fill="#FFB9B9" d="M442.39,718.06c2.25,3.37,6.54,9.93,9.74,14.83c2.67,4.11,4.729,8.58,6.09,13.29
				c0.04,0.14,0.24,0.84,0.609,2.109l2.42,2.9c3.04-3.479,4.74-5.42,5.08-5.81c0,0-7.5-13.78-7.5-16.44l-6.05-11.12
				c0.61-0.39,5.45-3.479,6.05-3.87c0,0-6.77-7.739-11.609-6.05C447.22,707.9,438.52,712.26,442.39,718.06z"/>
		</g>
		<g>
			<g>
				<path id="a2tnZX2vXC_2_" fill-opacity="0" stroke="#000000" stroke-opacity="0" d="M442.39,718.06
					c2.25,3.37,6.54,9.93,9.74,14.83c2.67,4.11,4.729,8.58,6.09,13.29c0.04,0.14,0.24,0.84,0.609,2.109l2.42,2.9
					c3.04-3.479,4.74-5.42,5.08-5.81c0,0-7.5-13.78-7.5-16.44l-6.05-11.12c0.61-0.39,5.45-3.479,6.05-3.87
					c0,0-6.77-7.739-11.609-6.05C447.22,707.9,438.52,712.26,442.39,718.06z"/>
			</g>
		</g>
	</g>
	<g>
		<g>
			<path id="a12Qpt7KP7_5_" fill="#FFB9B9" d="M476,732.329c0.2,2.19-1.739,8.341-1.069,15.171c0.41,4.42,0.359,8.88-0.15,13.289
				c-0.06,0.58-0.38,3.511-0.96,8.78l7.26,0.72c1.45-11.899,2.25-18.51,2.41-19.829c0,0,1.46-14.021,0.73-18.62
				c0.02-0.96,0.22-8.7,0.24-9.67c0,0-5.32-1.931-8.95,0.729C475.61,724.78,475.76,729.67,476,732.329z"/>
		</g>
		<g>
			<g>
				<path id="a12Qpt7KP7_2_" fill-opacity="0" stroke="#000000" stroke-opacity="0" d="M476,732.329
					c0.2,2.19-1.739,8.341-1.069,15.171c0.41,4.42,0.359,8.88-0.15,13.289c-0.06,0.58-0.38,3.511-0.96,8.78l7.26,0.72
					c1.45-11.899,2.25-18.51,2.41-19.829c0,0,1.46-14.021,0.73-18.62c0.02-0.96,0.22-8.7,0.24-9.67c0,0-5.32-1.931-8.95,0.729
					C475.61,724.78,475.76,729.67,476,732.329z"/>
			</g>
		</g>
	</g>
	<g>
		<g>
			<path id="b11gLqhaSz_5_" fill="#2F2E41" d="M462.58,694.72c0,0-16.93,10.89-17.17,14.27c0,0,9.67-0.97,9.91,7.5
				c0,0,5.811-2.18,7.26-2.66c1.45-0.489,9.19-5.56,9.19-5.56s3.14,2.41,3.14,6.28s-0.239,10.64,0,11.13
				c0.24,0.479,5.801-6.53,10.4-0.49c0.31-1.67,2.83-15.01,3.14-16.68c0,0,0.971-10.16-0.97-10.88c-0.9-0.341-5.41-2.03-13.54-5.08
				C467.881,693.71,464.091,694.43,462.58,694.72z"/>
		</g>
		<g>
			<g>
				<path id="b11gLqhaSz_2_" fill-opacity="0" stroke="#000000" stroke-opacity="0" d="M462.58,694.72c0,0-16.93,10.89-17.17,14.27
					c0,0,9.67-0.97,9.91,7.5c0,0,5.811-2.18,7.26-2.66c1.45-0.489,9.19-5.56,9.19-5.56s3.14,2.41,3.14,6.28s-0.239,10.64,0,11.13
					c0.24,0.479,5.801-6.53,10.4-0.49c0.31-1.67,2.83-15.01,3.14-16.68c0,0,0.971-10.16-0.97-10.88c-0.9-0.341-5.41-2.03-13.54-5.08
					C467.881,693.71,464.091,694.43,462.58,694.72z"/>
			</g>
		</g>
	</g>
	<g>
		<g>
			<path id="e49hreZLzC_5_" fill="#FFB9B9" d="M472.85,641.89c-4,0-7.25,3.25-7.25,7.25c0,4.01,3.25,7.26,7.25,7.26
				c4.01,0,7.26-3.25,7.26-7.26C480.11,645.14,476.86,641.89,472.85,641.89z"/>
		</g>
		<g>
			<g>
				<path id="e49hreZLzC_2_" fill-opacity="0" stroke="#000000" stroke-opacity="0" d="M472.85,641.89c-4,0-7.25,3.25-7.25,7.25
					c0,4.01,3.25,7.26,7.25,7.26c4.01,0,7.26-3.25,7.26-7.26C480.11,645.14,476.86,641.89,472.85,641.89z"/>
			</g>
		</g>
	</g>
	<g>
		<g>
			<path id="ef1XwtlNq_5_" fill="#D0CDE1" d="M471.04,661.84c0,0,8.181,2.16,9.29-1.94c0,0,10.061,1.94,11.75,8.47
				c1.69,6.53-4.109,22.24-4.109,22.73c0,0.479,4.83,3.38,2.66,4.83c-2.181,1.45-4.11-0.24-3.15,1.7
				c0.97,1.93,2.66,2.409,1.21,2.899c-1.45,0.48-10.15-7.01-16.92-5.08c-6.771,1.931-10.16,0.48-10.16,0.48
				c-0.3-2.62-2.729-23.61-3.04-26.24c-0.24-2.04,0.58-4.06,2.16-5.37c1.51-1.25,3.53-2.6,5.47-2.96c3.87-0.729,4.03-1.13,4.03-1.13
				C470.4,660.55,470.881,661.52,471.04,661.84z"/>
		</g>
		<g>
			<g>
				<path id="ef1XwtlNq_2_" fill-opacity="0" stroke="#000000" stroke-opacity="0" d="M471.04,661.84c0,0,8.181,2.16,9.29-1.94
					c0,0,10.061,1.94,11.75,8.47c1.69,6.53-4.109,22.24-4.109,22.73c0,0.479,4.83,3.38,2.66,4.83c-2.181,1.45-4.11-0.24-3.15,1.7
					c0.97,1.93,2.66,2.409,1.21,2.899c-1.45,0.48-10.15-7.01-16.92-5.08c-6.771,1.931-10.16,0.48-10.16,0.48
					c-0.3-2.62-2.729-23.61-3.04-26.24c-0.24-2.04,0.58-4.06,2.16-5.37c1.51-1.25,3.53-2.6,5.47-2.96
					c3.87-0.729,4.03-1.13,4.03-1.13C470.4,660.55,470.881,661.52,471.04,661.84z"/>
			</g>
		</g>
	</g>
	<g>
		<g>
			<path id="b5q2Bxba1u_5_" fill="#FFB9B9" d="M463.301,704.159c0,0,2.18,12.33,5.08,10.641l-0.721-10.641
				C466.79,704.159,464.171,704.159,463.301,704.159z"/>
		</g>
		<g>
			<g>
				<path id="b5q2Bxba1u_2_" fill-opacity="0" stroke="#000000" stroke-opacity="0" d="M463.301,704.159c0,0,2.18,12.33,5.08,10.641
					l-0.721-10.641C466.79,704.159,464.171,704.159,463.301,704.159z"/>
			</g>
		</g>
	</g>
	<g>
		<g>
			<path id="cIRjOx310_5_" fill="#FFB9B9" d="M473.4,705.75c0,0-3.77,11.939-0.41,11.779l4.271-9.77
				C476.49,707.36,474.18,706.15,473.4,705.75z"/>
		</g>
		<g>
			<g>
				<path id="cIRjOx310_2_" fill-opacity="0" stroke="#000000" stroke-opacity="0" d="M473.4,705.75c0,0-3.77,11.939-0.41,11.779
					l4.271-9.77C476.49,707.36,474.18,706.15,473.4,705.75z"/>
			</g>
		</g>
	</g>
	<g>
		<g>
			<path id="izmB0HHbT_5_" fill="#2F2E41" d="M457.381,748.53c-0.971,2.66-3.631,6.04-3.631,6.04s-5.8,6.53-1.689,6.771
				c4.11,0.25,9.91-5.801,9.91-5.801c0.68-0.63,6.1-5.659,6.77-6.289c0,0-2.24-5.461-3.29-5.511c-1.06-0.05-0.819,6.48-5.41,4.061
				C459.51,747.949,458.35,745.869,457.381,748.53z"/>
		</g>
		<g>
			<g>
				<path id="izmB0HHbT_2_" fill-opacity="0" stroke="#000000" stroke-opacity="0" d="M457.381,748.53
					c-0.971,2.66-3.631,6.04-3.631,6.04s-5.8,6.53-1.689,6.771c4.11,0.25,9.91-5.801,9.91-5.801c0.68-0.63,6.1-5.659,6.77-6.289
					c0,0-2.24-5.461-3.29-5.511c-1.06-0.05-0.819,6.48-5.41,4.061C459.51,747.949,458.35,745.869,457.381,748.53z"/>
			</g>
		</g>
	</g>
	<g>
		<g>
			<path id="bI7ibekS6_5_" fill="#2F2E41" d="M474.18,766.31c0,0-6.16,3.26-4.47,5.67c1.689,2.42,3.63,4.84,3.63,4.84
				s8.949,5.08,9.67,3.87c0.729-1.21,0.729-3.63,0.239-4.6c-0.479-0.96-2.899-2.66-2.17-4.11c0.721-1.45-0.25-5.32-1.449-5.32
				c-1.21,0-3.87,1.21-3.87,1.21C475.44,767.56,474.051,768.369,474.18,766.31z"/>
		</g>
		<g>
			<g>
				<path id="bI7ibekS6_2_" fill-opacity="0" stroke="#000000" stroke-opacity="0" d="M474.18,766.31c0,0-6.16,3.26-4.47,5.67
					c1.689,2.42,3.63,4.84,3.63,4.84s8.949,5.08,9.67,3.87c0.729-1.21,0.729-3.63,0.239-4.6c-0.479-0.96-2.899-2.66-2.17-4.11
					c0.721-1.45-0.25-5.32-1.449-5.32c-1.21,0-3.87,1.21-3.87,1.21C475.44,767.56,474.051,768.369,474.18,766.31z"/>
			</g>
		</g>
	</g>
	<g>
		<g>
			<path id="jtg0P7XVo_5_" fill="#2F2E41" d="M473.33,639.11c0,0,7,2.91,7.2,4.66l-0.1,4.38c0,0-0.49-3.6-3.601-2.82l-7.97,0.19
				c-0.08,0.7-0.7,6.31-0.78,7.01c0,0-0.88-1.27-1.85-0.49c-0.97,0.78-2.82-7.489,0.29-9.039
				C467.89,642.22,468.86,637.94,473.33,639.11z"/>
		</g>
		<g>
			<g>
				<path id="jtg0P7XVo_2_" fill-opacity="0" stroke="#000000" stroke-opacity="0" d="M473.33,639.11c0,0,7,2.91,7.2,4.66l-0.1,4.38
					c0,0-0.49-3.6-3.601-2.82l-7.97,0.19c-0.08,0.7-0.7,6.31-0.78,7.01c0,0-0.88-1.27-1.85-0.49c-0.97,0.78-2.82-7.489,0.29-9.039
					C467.89,642.22,468.86,637.94,473.33,639.11z"/>
			</g>
		</g>
	</g>
	<g>
		<g>
			<path id="aDOd1gU5_5_" fill="#D0CDE1" d="M482.65,685.78c0,0,0,2.17-0.729,2.66L479.26,694c0,0-1.21,2.899-2.17,3.63
				l-0.971,2.659c0,0-2.42,2.41-1.939,2.9c0,0,0.49,1.21-0.48,1.93c0,0-1.93,1.7-1.45,1.94c0,0,3.87,2.9,4.841,2.66
				c0,0-0.49-1.21,0.72-1.7c0,0,1.939-1.2,1.45-1.45c0,0-1.931-0.24-0.48-0.72c0,0,6.53-3.63,8.22-7.5c0,0,9.801-27.271,4.9-30.561
				c0,0-2-2.569-3.93,0.341C486.9,671.659,482.16,683.84,482.65,685.78z"/>
		</g>
		<g>
			<g>
				<path id="aDOd1gU5_2_" fill-opacity="0" stroke="#000000" stroke-opacity="0" d="M482.65,685.78c0,0,0,2.17-0.729,2.66
					L479.26,694c0,0-1.21,2.899-2.17,3.63l-0.971,2.659c0,0-2.42,2.41-1.939,2.9c0,0,0.49,1.21-0.48,1.93c0,0-1.93,1.7-1.45,1.94
					c0,0,3.87,2.9,4.841,2.66c0,0-0.49-1.21,0.72-1.7c0,0,1.939-1.2,1.45-1.45c0,0-1.931-0.24-0.48-0.72c0,0,6.53-3.63,8.22-7.5
					c0,0,9.801-27.271,4.9-30.561c0,0-2-2.569-3.93,0.341C486.9,671.659,482.16,683.84,482.65,685.78z"/>
			</g>
		</g>
	</g>
	<g>
		<g>
			<path id="a3NiO5VLEp_5_" fill="#D0CDE1" d="M461.131,665.47c-0.061,0.02-0.091,0.03-0.101,0.04c-1.859,0.77-3.21,2.41-3.62,4.38
				c-0.529,2.52-1.05,6.18-0.64,9.6c0.729,6.05,1.21,8.71,2.18,10.641c0.971,1.939,1.21,1.21,0.971,2.659
				c-0.24,1.45-1.45,0.24-0.24,2.181c1.21,1.93,1.93,1.45,1.45,2.41c-0.49,0.97-1.21,0.97-0.24,2.18c0.96,1.21,0.96,1.69,1.2,2.18
				c0.25,0.48,0.97,4.11,0.97,4.11s3.87-1.21,6.05-0.73c0,0-1.939-3.38-1.45-4.109c0.48-0.721,1.2-0.971,0.48-1.69
				c-0.73-0.729-1.94-0.479-0.73-1.21c1.21-0.729-0.96-8.22-0.96-8.22C465.74,686.63,463.961,678.49,461.131,665.47z"/>
		</g>
		<g>
			<g>
				<path id="a3NiO5VLEp_2_" fill-opacity="0" stroke="#000000" stroke-opacity="0" d="M461.131,665.47
					c-0.061,0.02-0.091,0.03-0.101,0.04c-1.859,0.77-3.21,2.41-3.62,4.38c-0.529,2.52-1.05,6.18-0.64,9.6
					c0.729,6.05,1.21,8.71,2.18,10.641c0.971,1.939,1.21,1.21,0.971,2.659c-0.24,1.45-1.45,0.24-0.24,2.181
					c1.21,1.93,1.93,1.45,1.45,2.41c-0.49,0.97-1.21,0.97-0.24,2.18c0.96,1.21,0.96,1.69,1.2,2.18c0.25,0.48,0.97,4.11,0.97,4.11
					s3.87-1.21,6.05-0.73c0,0-1.939-3.38-1.45-4.109c0.48-0.721,1.2-0.971,0.48-1.69c-0.73-0.729-1.94-0.479-0.73-1.21
					c1.21-0.729-0.96-8.22-0.96-8.22C465.74,686.63,463.961,678.49,461.131,665.47z"/>
			</g>
		</g>
	</g>
	<g>
		<g>
			<path id="a13cPmHzF_5_" fill="#3F3D56" d="M406.01,746.64l4.02-136.05l4.79,136.05l0,0H406.01z"/>
		</g>
		<g>
			<g>
				<path id="a13cPmHzF_2_" fill-opacity="0" stroke="#000000" stroke-opacity="0" d="M406.01,746.64l4.02-136.05l4.79,136.05l0,0
					H406.01z"/>
			</g>
		</g>
	</g>
	<g>
		<g>
			<path id="b3o8Gf91l_5_" fill="#3F3D56" d="M420.26,623.289l-9.58,16.32l-1.04-1.81l1.16-1.42l0,0L420.26,623.289z"/>
		</g>
		<g>
			<g>
				<path id="b3o8Gf91l_2_" fill-opacity="0" stroke="#000000" stroke-opacity="0" d="M420.26,623.289l-9.58,16.32l-1.04-1.81
					l1.16-1.42l0,0L420.26,623.289z"/>
			</g>
		</g>
	</g>
	<g>
		<g>
			<path id="byqbDWTb3_5_" fill="#3F3D56" d="M400.31,636.51l9.59,16.319l1.03-1.81l-1.16-1.43l0,0L400.31,636.51z"/>
		</g>
		<g>
			<g>
				<path id="byqbDWTb3_2_" fill-opacity="0" stroke="#000000" stroke-opacity="0" d="M400.31,636.51l9.59,16.319l1.03-1.81
					l-1.16-1.43l0,0L400.31,636.51z"/>
			</g>
		</g>
	</g>
	<g>
		<g>
			<path id="d1zNzvL9Nu_5_" fill="#3F3D56" d="M414.62,675.869L414.62,675.869c0.78,1.351,1.21,2.101,1.301,2.25l0,0
				c-2.561,1.471-3.98,2.29-4.271,2.46l0,0c-0.77-1.35-1.21-2.1-1.29-2.25l0,0C412.921,676.86,414.341,676.039,414.62,675.869z"/>
		</g>
		<g>
			<g>
				<path id="d1zNzvL9Nu_2_" fill-opacity="0" stroke="#000000" stroke-opacity="0" d="M414.62,675.869L414.62,675.869
					c0.78,1.351,1.21,2.101,1.301,2.25l0,0c-2.561,1.471-3.98,2.29-4.271,2.46l0,0c-0.77-1.35-1.21-2.1-1.29-2.25l0,0
					C412.921,676.86,414.341,676.039,414.62,675.869z"/>
			</g>
		</g>
	</g>
</g>
</svg>
