<?xml version="1.0" encoding="utf-8"?>
<!-- Generator: Adobe Illustrator 16.0.0, SVG Export Plug-In . SVG Version: 6.00 Build 0)  -->
<!DOCTYPE svg PUBLIC "-//W3C//DTD SVG 1.1//EN" "http://www.w3.org/Graphics/SVG/1.1/DTD/svg11.dtd">
<svg version="1.1" id="Layer_2" xmlns="http://www.w3.org/2000/svg" xmlns:xlink="http://www.w3.org/1999/xlink" x="0px" y="0px"
	 width="386.631px" height="193.19px" viewBox="323.91 461.81 386.631 193.19"
	 enable-background="new 323.91 461.81 386.631 193.19" xml:space="preserve">
<g>
	<g>
		<path id="agUDICQJt_1_" fill="#FFFFFF" fill-opacity="0.5" d="M323.91,527.71l386.631-64.28L403.26,655L323.91,527.71z"/>
	</g>
</g>
<g>
	<g>
		<g>
			<path id="c3FL5toMH_6_" fill-opacity="0" d="M354.56,641.88h40.22"/>
		</g>
		<g>
			<g>
				<path id="c3FL5toMH_2_" fill-opacity="0" stroke="#3F3D56" d="M354.56,641.88h40.22"/>
			</g>
		</g>
	</g>
	<g>
		<g>
			<path id="b1qCxs4nFV_5_" fill="#F2F2F2" d="M587.27,493.26c3.13,0,4.7,1.56,4.7,4.7c0,66.89,0,104.05,0,111.479
				c0,3.14-1.57,4.7-4.7,4.7c-101.49,0-157.87,0-169.14,0c-3.131,0-4.7-1.561-4.7-4.7c0-66.89,0-104.05,0-111.479
				c0-3.141,1.569-4.7,4.7-4.7C519.61,493.26,575.99,493.26,587.27,493.26z"/>
		</g>
		<g>
			<g>
				<path id="b1qCxs4nFV_2_" fill-opacity="0" stroke="#000000" stroke-opacity="0" d="M587.27,493.26c3.13,0,4.7,1.56,4.7,4.7
					c0,66.89,0,104.05,0,111.479c0,3.14-1.57,4.7-4.7,4.7c-101.49,0-157.87,0-169.14,0c-3.131,0-4.7-1.561-4.7-4.7
					c0-66.89,0-104.05,0-111.479c0-3.141,1.569-4.7,4.7-4.7C519.61,493.26,575.99,493.26,587.27,493.26z"/>
			</g>
		</g>
	</g>
	<g>
		<g>
			<path id="a16M3UA2z_6_" fill-opacity="0" d="M581.82,485.63c3.13,0,4.7,1.56,4.7,4.699c0,66.891,0,104.051,0,111.48
				c0,3.14-1.57,4.7-4.7,4.7c-101.49,0-157.87,0-169.14,0c-3.141,0-4.7-1.561-4.7-4.7c0-66.89,0-104.05,0-111.48
				c0-3.14,1.56-4.699,4.7-4.699C514.16,485.63,570.54,485.63,581.82,485.63z"/>
		</g>
		<g>
			<g>
				<path id="a16M3UA2z_2_" fill-opacity="0" stroke="#3F3D56" d="M581.82,485.63c3.13,0,4.7,1.56,4.7,4.699
					c0,66.891,0,104.051,0,111.48c0,3.14-1.57,4.7-4.7,4.7c-101.49,0-157.87,0-169.14,0c-3.141,0-4.7-1.561-4.7-4.7
					c0-66.89,0-104.05,0-111.48c0-3.14,1.56-4.699,4.7-4.699C514.16,485.63,570.54,485.63,581.82,485.63z"/>
			</g>
		</g>
	</g>
	<g>
		<g>
			<path id="bOAE2pPdJ_6_" fill-opacity="0" d="M407.98,497.22h178.54"/>
		</g>
		<g>
			<g>
				<path id="bOAE2pPdJ_2_" fill-opacity="0" stroke="#3F3D56" d="M407.98,497.22h178.54"/>
			</g>
		</g>
	</g>
	<g>
		<g>
			<path id="c3pZ3jwVLM_5_" fill="#FFA500" d="M561.66,524.39c1.15,0,1.721,0.57,1.721,1.72c0,2.44,0,3.8,0,4.07
				c0,1.14-0.57,1.72-1.721,1.72c-27.149,0-42.239,0-45.25,0c-1.149,0-1.72-0.58-1.72-1.72c0-2.44,0-3.8,0-4.07
				c0-1.149,0.57-1.72,1.72-1.72C543.56,524.39,558.65,524.39,561.66,524.39z"/>
		</g>
		<g>
			<g>
				<path id="c3pZ3jwVLM_2_" fill-opacity="0" stroke="#000000" stroke-opacity="0" d="M561.66,524.39c1.15,0,1.721,0.57,1.721,1.72
					c0,2.44,0,3.8,0,4.07c0,1.14-0.57,1.72-1.721,1.72c-27.149,0-42.239,0-45.25,0c-1.149,0-1.72-0.58-1.72-1.72
					c0-2.44,0-3.8,0-4.07c0-1.149,0.57-1.72,1.72-1.72C543.56,524.39,558.65,524.39,561.66,524.39z"/>
			</g>
		</g>
	</g>
	<g>
		<g>
			<path id="d1LufRv9gN_5_" fill="#FFA500" d="M570.99,545.22c1.141,0,1.721,0.569,1.721,1.72c0,1.57,0,2.45,0,2.62
				c0,1.15-0.58,1.72-1.721,1.72c-38.35,0-59.649,0-63.91,0c-1.149,0-1.72-0.569-1.72-1.72c0-1.57,0-2.45,0-2.62
				c0-1.15,0.57-1.72,1.72-1.72C545.43,545.22,566.73,545.22,570.99,545.22z"/>
		</g>
		<g>
			<g>
				<path id="d1LufRv9gN_2_" fill-opacity="0" stroke="#000000" stroke-opacity="0" d="M570.99,545.22
					c1.141,0,1.721,0.569,1.721,1.72c0,1.57,0,2.45,0,2.62c0,1.15-0.58,1.72-1.721,1.72c-38.35,0-59.649,0-63.91,0
					c-1.149,0-1.72-0.569-1.72-1.72c0-1.57,0-2.45,0-2.62c0-1.15,0.57-1.72,1.72-1.72C545.43,545.22,566.73,545.22,570.99,545.22z"
					/>
			</g>
		</g>
	</g>
	<g>
		<g>
			<path id="h260Q9kQrb_5_" fill="#FFA500" d="M570.99,561.69c1.141,0,1.721,0.58,1.721,1.72c0,1.57,0,2.45,0,2.62
				c0,1.15-0.58,1.721-1.721,1.721c-38.35,0-59.649,0-63.91,0c-1.149,0-1.72-0.57-1.72-1.721c0-1.569,0-2.439,0-2.62
				c0-1.14,0.57-1.72,1.72-1.72C545.43,561.69,566.73,561.69,570.99,561.69z"/>
		</g>
		<g>
			<g>
				<path id="h260Q9kQrb_2_" fill-opacity="0" stroke="#000000" stroke-opacity="0" d="M570.99,561.69
					c1.141,0,1.721,0.58,1.721,1.72c0,1.57,0,2.45,0,2.62c0,1.15-0.58,1.721-1.721,1.721c-38.35,0-59.649,0-63.91,0
					c-1.149,0-1.72-0.57-1.72-1.721c0-1.569,0-2.439,0-2.62c0-1.14,0.57-1.72,1.72-1.72C545.43,561.69,566.73,561.69,570.99,561.69z
					"/>
			</g>
		</g>
	</g>
	<g>
		<g>
			<path id="b41LvnYjib_5_" fill="#FFA500" d="M570.99,578.17c1.141,0,1.721,0.569,1.721,1.72c0,1.57,0,2.439,0,2.62
				c0,1.14-0.58,1.71-1.721,1.71c-38.35,0-59.649,0-63.91,0c-1.149,0-1.72-0.57-1.72-1.71c0-1.58,0-2.45,0-2.62
				c0-1.15,0.57-1.72,1.72-1.72C545.43,578.17,566.73,578.17,570.99,578.17z"/>
		</g>
		<g>
			<g>
				<path id="b41LvnYjib_2_" fill-opacity="0" stroke="#000000" stroke-opacity="0" d="M570.99,578.17
					c1.141,0,1.721,0.569,1.721,1.72c0,1.57,0,2.439,0,2.62c0,1.14-0.58,1.71-1.721,1.71c-38.35,0-59.649,0-63.91,0
					c-1.149,0-1.72-0.57-1.72-1.71c0-1.58,0-2.45,0-2.62c0-1.15,0.57-1.72,1.72-1.72C545.43,578.17,566.73,578.17,570.99,578.17z"/>
			</g>
		</g>
	</g>
	<g>
		<g>
			<path id="bs6570HfT_6_" fill-opacity="0" d="M564.08,521.97c1.15,0,1.721,0.569,1.721,1.71c0,2.45,0,3.81,0,4.08
				c0,1.14-0.57,1.72-1.721,1.72c-27.149,0-42.229,0-45.25,0c-1.149,0-1.72-0.58-1.72-1.72c0-2.45,0-3.8,0-4.08
				c0-1.141,0.57-1.71,1.72-1.71C545.98,521.97,561.07,521.97,564.08,521.97z"/>
		</g>
		<g>
			<g>
				<path id="bs6570HfT_2_" fill-opacity="0" stroke="#3F3D56" d="M564.08,521.97c1.15,0,1.721,0.569,1.721,1.71
					c0,2.45,0,3.81,0,4.08c0,1.14-0.57,1.72-1.721,1.72c-27.149,0-42.229,0-45.25,0c-1.149,0-1.72-0.58-1.72-1.72
					c0-2.45,0-3.8,0-4.08c0-1.141,0.57-1.71,1.72-1.71C545.98,521.97,561.07,521.97,564.08,521.97z"/>
			</g>
		</g>
	</g>
	<g>
		<g>
			<path id="boLm9qtZw_6_" fill-opacity="0" d="M573.41,542.8c1.15,0,1.721,0.569,1.721,1.72c0,1.57,0,2.44,0,2.62
				c0,1.14-0.57,1.72-1.721,1.72c-38.34,0-59.649,0-63.91,0c-1.14,0-1.72-0.58-1.72-1.72c0-1.57,0-2.45,0-2.62
				c0-1.15,0.58-1.72,1.72-1.72C547.85,542.8,569.15,542.8,573.41,542.8z"/>
		</g>
		<g>
			<g>
				<path id="boLm9qtZw_2_" fill-opacity="0" stroke="#3F3D56" d="M573.41,542.8c1.15,0,1.721,0.569,1.721,1.72
					c0,1.57,0,2.44,0,2.62c0,1.14-0.57,1.72-1.721,1.72c-38.34,0-59.649,0-63.91,0c-1.14,0-1.72-0.58-1.72-1.72
					c0-1.57,0-2.45,0-2.62c0-1.15,0.58-1.72,1.72-1.72C547.85,542.8,569.15,542.8,573.41,542.8z"/>
			</g>
		</g>
	</g>
	<g>
		<g>
			<path id="b25PuPw2dI_6_" fill-opacity="0" d="M573.41,559.27c1.15,0,1.721,0.57,1.721,1.72c0,1.57,0,2.45,0,2.62
				c0,1.15-0.57,1.72-1.721,1.72c-38.34,0-59.649,0-63.91,0c-1.14,0-1.72-0.569-1.72-1.72c0-1.57,0-2.439,0-2.62
				c0-1.149,0.58-1.72,1.72-1.72C547.85,559.27,569.15,559.27,573.41,559.27z"/>
		</g>
		<g>
			<g>
				<path id="b25PuPw2dI_2_" fill-opacity="0" stroke="#3F3D56" d="M573.41,559.27c1.15,0,1.721,0.57,1.721,1.72
					c0,1.57,0,2.45,0,2.62c0,1.15-0.57,1.72-1.721,1.72c-38.34,0-59.649,0-63.91,0c-1.14,0-1.72-0.569-1.72-1.72
					c0-1.57,0-2.439,0-2.62c0-1.149,0.58-1.72,1.72-1.72C547.85,559.27,569.15,559.27,573.41,559.27z"/>
			</g>
		</g>
	</g>
	<g>
		<g>
			<path id="b1enujP66l_6_" fill-opacity="0" d="M573.41,575.75c1.15,0,1.721,0.569,1.721,1.71c0,1.579,0,2.449,0,2.619
				c0,1.15-0.57,1.721-1.721,1.721c-38.34,0-59.649,0-63.91,0c-1.14,0-1.72-0.57-1.72-1.721c0-1.569,0-2.439,0-2.619
				c0-1.141,0.58-1.71,1.72-1.71C547.85,575.75,569.15,575.75,573.41,575.75z"/>
		</g>
		<g>
			<g>
				<path id="b1enujP66l_2_" fill-opacity="0" stroke="#3F3D56" d="M573.41,575.75c1.15,0,1.721,0.569,1.721,1.71
					c0,1.579,0,2.449,0,2.619c0,1.15-0.57,1.721-1.721,1.721c-38.34,0-59.649,0-63.91,0c-1.14,0-1.72-0.57-1.72-1.721
					c0-1.569,0-2.439,0-2.619c0-1.141,0.58-1.71,1.72-1.71C547.85,575.75,569.15,575.75,573.41,575.75z"/>
			</g>
		</g>
	</g>
	<g>
		<g>
			<path id="a2K1ewdDjT_5_" fill="#FFA500" d="M421.54,489.26c-2,0-3.63,1.63-3.63,3.64c0,2,1.63,3.63,3.63,3.63
				c2.011,0,3.641-1.63,3.641-3.63C425.18,490.89,423.551,489.26,421.54,489.26z"/>
		</g>
		<g>
			<g>
				<path id="a2K1ewdDjT_2_" fill-opacity="0" stroke="#000000" stroke-opacity="0" d="M421.54,489.26c-2,0-3.63,1.63-3.63,3.64
					c0,2,1.63,3.63,3.63,3.63c2.011,0,3.641-1.63,3.641-3.63C425.18,490.89,423.551,489.26,421.54,489.26z"/>
			</g>
		</g>
	</g>
	<g>
		<g>
			<path id="adFuIpDEn_5_" fill="#FFA500" d="M431.72,489.26c-2.01,0-3.641,1.63-3.641,3.64c0,2,1.631,3.63,3.641,3.63
				s3.63-1.63,3.63-3.63C435.35,490.89,433.73,489.26,431.72,489.26z"/>
		</g>
		<g>
			<g>
				<path id="adFuIpDEn_2_" fill-opacity="0" stroke="#000000" stroke-opacity="0" d="M431.72,489.26c-2.01,0-3.641,1.63-3.641,3.64
					c0,2,1.631,3.63,3.641,3.63s3.63-1.63,3.63-3.63C435.35,490.89,433.73,489.26,431.72,489.26z"/>
			</g>
		</g>
	</g>
	<g>
		<g>
			<path id="b1gNpTDAIp_5_" fill="#FFA500" d="M441.89,489.26c-2,0-3.63,1.63-3.63,3.64c0,2,1.63,3.63,3.63,3.63
				c2.01,0,3.64-1.63,3.64-3.63C445.53,490.89,443.9,489.26,441.89,489.26z"/>
		</g>
		<g>
			<g>
				<path id="b1gNpTDAIp_2_" fill-opacity="0" stroke="#000000" stroke-opacity="0" d="M441.89,489.26c-2,0-3.63,1.63-3.63,3.64
					c0,2,1.63,3.63,3.63,3.63c2.01,0,3.64-1.63,3.64-3.63C445.53,490.89,443.9,489.26,441.89,489.26z"/>
			</g>
		</g>
	</g>
	<g>
		<g>
			<path id="a66Ag2U71W_6_" fill-opacity="0" d="M423,487.81c-2.01,0-3.64,1.62-3.64,3.63s1.63,3.64,3.64,3.64
				c2,0,3.631-1.63,3.631-3.64S425,487.81,423,487.81z"/>
		</g>
		<g>
			<g>
				<path id="a66Ag2U71W_2_" fill-opacity="0" stroke="#3F3D56" d="M423,487.81c-2.01,0-3.64,1.62-3.64,3.63s1.63,3.64,3.64,3.64
					c2,0,3.631-1.63,3.631-3.64S425,487.81,423,487.81z"/>
			</g>
		</g>
	</g>
	<g>
		<g>
			<path id="emC0jd7sX_6_" fill-opacity="0" d="M433.171,487.81c-2,0-3.631,1.62-3.631,3.63s1.631,3.64,3.631,3.64
				c2.01,0,3.64-1.63,3.64-3.64S435.18,487.81,433.171,487.81z"/>
		</g>
		<g>
			<g>
				<path id="emC0jd7sX_2_" fill-opacity="0" stroke="#3F3D56" d="M433.171,487.81c-2,0-3.631,1.62-3.631,3.63
					s1.631,3.64,3.631,3.64c2.01,0,3.64-1.63,3.64-3.64S435.18,487.81,433.171,487.81z"/>
			</g>
		</g>
	</g>
	<g>
		<g>
			<path id="g63VfaP9I_6_" fill-opacity="0" d="M443.35,487.81c-2.01,0-3.64,1.62-3.64,3.63s1.63,3.64,3.64,3.64
				c2,0,3.63-1.63,3.63-3.64S445.35,487.81,443.35,487.81z"/>
		</g>
		<g>
			<g>
				<path id="g63VfaP9I_2_" fill-opacity="0" stroke="#3F3D56" d="M443.35,487.81c-2.01,0-3.64,1.62-3.64,3.63s1.63,3.64,3.64,3.64
					c2,0,3.63-1.63,3.63-3.64S445.35,487.81,443.35,487.81z"/>
			</g>
		</g>
	</g>
	<g>
		<g>
			<path id="e3N6WG2nJ_5_" fill="#FFA500" d="M464.39,601.42c-0.61-2.801-0.771-6.631-0.57-9.29c0,0-3.07-13.511-5.5-14.771l0,0
				c-0.03,0.04-1.21,1.58-1.359,6.351c-0.15,4.84-1.86,8.02-1.86,8.02s0.55,6.03,0.24,9.69
				C457.15,601.42,462.58,601.42,464.39,601.42z"/>
		</g>
		<g>
			<g>
				<path id="e3N6WG2nJ_2_" fill-opacity="0" stroke="#000000" stroke-opacity="0" d="M464.39,601.42
					c-0.61-2.801-0.771-6.631-0.57-9.29c0,0-3.07-13.511-5.5-14.771l0,0c-0.03,0.04-1.21,1.58-1.359,6.351
					c-0.15,4.84-1.86,8.02-1.86,8.02s0.55,6.03,0.24,9.69C457.15,601.42,462.58,601.42,464.39,601.42z"/>
			</g>
		</g>
	</g>
	<g>
		<g>
			<path id="a7dHwjYXV_5_" fill="#FFA500" d="M430.94,515.42c-3.18,0-5.76,2.58-5.76,5.76l0,0c0,7.45,0,67.04,0,74.49
				c0,3.18,2.58,5.75,5.76,5.75l0,0c1.96,0,17.62,0,19.58,0c-0.65-2.71-1.46-6.95-0.64-9.891l0,0l0,0
				c0.04-0.14,0.08-0.279,0.119-0.41c0.57-1.909,0.761-3.909,0.561-5.899c0.36-1.69,0.36-3.45,0-5.141
				c-0.61-2.819-1.03-5.6-1.03-5.6s-0.33-3.729-0.04-6.02c0.01-0.051,0.01-0.091,0.021-0.141c-0.101-0.03-0.16-0.04-0.16-0.04
				s0.86-3.88,1.16-6.35c0.069-0.59,0.16-1.33,0.27-2.12c-0.28-0.04-0.56-0.11-0.83-0.2c-2.72-0.96-3.58-9.64-3.58-9.64
				c0-0.271,0-2.47,0-2.74c0,0-0.899-4.21,2.271-6.08c3.06-1.8,4.28-2.29,4.37-2.32c0.02-0.02,0.05-0.029,0.069-0.05
				c0.351-0.27,0.62-0.63,0.801-1.029c0-0.101,0-0.181,0-0.2c-0.051-0.99-0.74-1.891-1.391-2.67c-0.83-1-1.5-1.801-1.66-2
				c-0.189-0.2-0.34-0.431-0.43-0.69c-0.04-0.14-0.05-0.29-0.05-0.439c0-0.08,0-0.15,0-0.16c0.02-0.75,0.04-1.34,0.04-1.49
				c0.02-0.44,0.13-0.98,0.55-1.07c0.23-0.05,0.521,0.03,0.64-0.16c0.03-0.08,0.04-0.17,0.021-0.26c0,0.01,0,0.01,0,0.021
				c0-0.011,0-0.021,0-0.021c-0.09-0.35-0.14-0.71-0.16-1.07c-0.01-0.159,0.021-0.319,0.07-0.47c0.239-0.72,1.09-1.02,1.84-1.16
				c0.75-0.13,1.59-0.25,2.06-0.85c0.13-0.2,0.261-0.39,0.41-0.57c0.22-0.2,0.48-0.33,0.771-0.39c0.93-0.24,1.909-0.15,2.779,0.25
				c0.37,0.16,0.73,0.39,1.13,0.36c0.41-0.03,0.761-0.32,1.171-0.391c0.659-0.109,1.29,0.38,1.619,0.97
				c0.2,0.37,0.301,0.79,0.29,1.211c0.011,0.43-0.14,0.84-0.42,1.149c-0.29,0.3-0.71,0.51-0.83,0.9c-0.05,0.17-0.029,0.34-0.08,0.5
				c0,0.02-0.01,0.04-0.02,0.06c0.01,0.01,0.02,0.021,0.03,0.03c1.71,2.26,1.27,5.49-0.99,7.21c-0.46,0.34-0.97,0.61-1.521,0.79
				c0,0.05,0,0.1,0,0.149c-0.029,0.65,0.221,1.271,0.69,1.721c0.45,0.18,4.04,1.649,4.49,1.84c0,0,2.71-0.33,3.68,3.71
				c0.16,0.67,0.21,1.36,0.17,2.05c-0.04,0.601,0.05,1.68,0.74,3.061c1.11,2.22,0.86,7.31-1.41,7.819
				c-2.149,0.48-2.99,0.28-3.07,0.25c0,0.011,0,0.08,0,0.09c0.03,0.96,0.37,9.2,1.61,10.2c0.34,0.271,0.271,0.46-0.01,0.58
				c0,0.01,0,0.01,0,0.01s0,0.051,0.01,0.141c0.04,0.609,0.23,2.899,1.05,4.21c0.96,1.51,0.86,10.24,0.86,10.24
				c0.07,0.51,0.59,4.619,0.66,5.14c0,0-0.41,3.18,0,3.729c0.229,0.311,0.5,5.19,0.7,9.341c1.68,0,15.159,0,16.84,0
				c3.18,0,5.76-2.57,5.76-5.75c0-7.45,0-67.04,0-74.49c0-3.18-2.58-5.76-5.76-5.76l0,0C486.76,515.42,436.52,515.42,430.94,515.42z
				"/>
		</g>
		<g>
			<g>
				<path id="a7dHwjYXV_2_" fill-opacity="0" stroke="#000000" stroke-opacity="0" d="M430.94,515.42c-3.18,0-5.76,2.58-5.76,5.76
					l0,0c0,7.45,0,67.04,0,74.49c0,3.18,2.58,5.75,5.76,5.75l0,0c1.96,0,17.62,0,19.58,0c-0.65-2.71-1.46-6.95-0.64-9.891l0,0l0,0
					c0.04-0.14,0.08-0.279,0.119-0.41c0.57-1.909,0.761-3.909,0.561-5.899c0.36-1.69,0.36-3.45,0-5.141
					c-0.61-2.819-1.03-5.6-1.03-5.6s-0.33-3.729-0.04-6.02c0.01-0.051,0.01-0.091,0.021-0.141c-0.101-0.03-0.16-0.04-0.16-0.04
					s0.86-3.88,1.16-6.35c0.069-0.59,0.16-1.33,0.27-2.12c-0.28-0.04-0.56-0.11-0.83-0.2c-2.72-0.96-3.58-9.64-3.58-9.64
					c0-0.271,0-2.47,0-2.74c0,0-0.899-4.21,2.271-6.08c3.06-1.8,4.28-2.29,4.37-2.32c0.02-0.02,0.05-0.029,0.069-0.05
					c0.351-0.27,0.62-0.63,0.801-1.029c0-0.101,0-0.181,0-0.2c-0.051-0.99-0.74-1.891-1.391-2.67c-0.83-1-1.5-1.801-1.66-2
					c-0.189-0.2-0.34-0.431-0.43-0.69c-0.04-0.14-0.05-0.29-0.05-0.439c0-0.08,0-0.15,0-0.16c0.02-0.75,0.04-1.34,0.04-1.49
					c0.02-0.44,0.13-0.98,0.55-1.07c0.23-0.05,0.521,0.03,0.64-0.16c0.03-0.08,0.04-0.17,0.021-0.26c0,0.01,0,0.01,0,0.021
					c0-0.011,0-0.021,0-0.021c-0.09-0.35-0.14-0.71-0.16-1.07c-0.01-0.159,0.021-0.319,0.07-0.47c0.239-0.72,1.09-1.02,1.84-1.16
					c0.75-0.13,1.59-0.25,2.06-0.85c0.13-0.2,0.261-0.39,0.41-0.57c0.22-0.2,0.48-0.33,0.771-0.39c0.93-0.24,1.909-0.15,2.779,0.25
					c0.37,0.16,0.73,0.39,1.13,0.36c0.41-0.03,0.761-0.32,1.171-0.391c0.659-0.109,1.29,0.38,1.619,0.97
					c0.2,0.37,0.301,0.79,0.29,1.211c0.011,0.43-0.14,0.84-0.42,1.149c-0.29,0.3-0.71,0.51-0.83,0.9c-0.05,0.17-0.029,0.34-0.08,0.5
					c0,0.02-0.01,0.04-0.02,0.06c0.01,0.01,0.02,0.021,0.03,0.03c1.71,2.26,1.27,5.49-0.99,7.21c-0.46,0.34-0.97,0.61-1.521,0.79
					c0,0.05,0,0.1,0,0.149c-0.029,0.65,0.221,1.271,0.69,1.721c0.45,0.18,4.04,1.649,4.49,1.84c0,0,2.71-0.33,3.68,3.71
					c0.16,0.67,0.21,1.36,0.17,2.05c-0.04,0.601,0.05,1.68,0.74,3.061c1.11,2.22,0.86,7.31-1.41,7.819
					c-2.149,0.48-2.99,0.28-3.07,0.25c0,0.011,0,0.08,0,0.09c0.03,0.96,0.37,9.2,1.61,10.2c0.34,0.271,0.271,0.46-0.01,0.58
					c0,0.01,0,0.01,0,0.01s0,0.051,0.01,0.141c0.04,0.609,0.23,2.899,1.05,4.21c0.96,1.51,0.86,10.24,0.86,10.24
					c0.07,0.51,0.59,4.619,0.66,5.14c0,0-0.41,3.18,0,3.729c0.229,0.311,0.5,5.19,0.7,9.341c1.68,0,15.159,0,16.84,0
					c3.18,0,5.76-2.57,5.76-5.75c0-7.45,0-67.04,0-74.49c0-3.18-2.58-5.76-5.76-5.76l0,0C486.76,515.42,436.52,515.42,430.94,515.42
					z"/>
			</g>
		</g>
	</g>
	<g>
		<g>
			<path id="bqSOVfD29_6_" fill-opacity="0" d="M480.95,508.88c3.84,0,5.761,1.92,5.761,5.76c0,44.689,0,69.52,0,74.479
				c0,3.841-1.921,5.761-5.761,5.761c-33.5,0-52.109,0-55.83,0c-3.84,0-5.76-1.92-5.76-5.761c0-44.68,0-69.51,0-74.479
				c0-3.84,1.92-5.76,5.76-5.76C458.62,508.88,477.23,508.88,480.95,508.88z"/>
		</g>
		<g>
			<g>
				<path id="bqSOVfD29_2_" fill-opacity="0" stroke="#3F3D56" d="M480.95,508.88c3.84,0,5.761,1.92,5.761,5.76
					c0,44.689,0,69.52,0,74.479c0,3.841-1.921,5.761-5.761,5.761c-33.5,0-52.109,0-55.83,0c-3.84,0-5.76-1.92-5.76-5.761
					c0-44.68,0-69.51,0-74.479c0-3.84,1.92-5.76,5.76-5.76C458.62,508.88,477.23,508.88,480.95,508.88z"/>
			</g>
		</g>
	</g>
	<g>
		<g>
			<path id="a4Ao8nSwO_5_" fill="#2F2E41" d="M378.99,540.23c0,0-2.26-0.67-2.75,0.05c-0.479,0.73,0.66,6,0.66,6
				c0.34,0.021,2,0.12,4.98,0.3l-1.74-4.38C379.53,541.15,379.14,540.49,378.99,540.23z"/>
		</g>
		<g>
			<g>
				<path id="a4Ao8nSwO_2_" fill-opacity="0" stroke="#000000" stroke-opacity="0" d="M378.99,540.23c0,0-2.26-0.67-2.75,0.05
					c-0.479,0.73,0.66,6,0.66,6c0.34,0.021,2,0.12,4.98,0.3l-1.74-4.38C379.53,541.15,379.14,540.49,378.99,540.23z"/>
			</g>
		</g>
	</g>
	<g>
		<g>
			<path id="a1tMDRC1LN_5_" fill="#A0616A" d="M361.57,583.49c0,0,4.53,9.94,1.05,9.63l-4.85-9.63
				C358.53,583.49,360.81,583.49,361.57,583.49z"/>
		</g>
		<g>
			<g>
				<path id="a1tMDRC1LN_2_" fill-opacity="0" stroke="#000000" stroke-opacity="0" d="M361.57,583.49c0,0,4.53,9.94,1.05,9.63
					l-4.85-9.63C358.53,583.49,360.81,583.49,361.57,583.49z"/>
			</g>
		</g>
	</g>
	<g>
		<g>
			<path id="e1Vvzj7Wek_5_" fill="#A0616A" d="M391.19,582.449c0,0-1.979,10.75,1.32,9.601l2.37-10.521
				C394.14,581.72,391.93,582.27,391.19,582.449z"/>
		</g>
		<g>
			<g>
				<path id="e1Vvzj7Wek_2_" fill-opacity="0" stroke="#000000" stroke-opacity="0" d="M391.19,582.449c0,0-1.979,10.75,1.32,9.601
					l2.37-10.521C394.14,581.72,391.93,582.27,391.19,582.449z"/>
			</g>
		</g>
	</g>
	<g>
		<g>
			<path id="dDl0n5PSI_5_" fill="#A0616A" d="M378.02,537.73c0,0-0.05,5,1.88,5.26l-1.1,2.92c-0.221,0.04-1.37,0.271-3.431,0.67
				l-4.949-0.359c-1.311-1.69-2.04-2.63-2.181-2.811c0,0,3.851-1.83,2.181-7.5C371.94,536.28,376.5,537.369,378.02,537.73z"/>
		</g>
		<g>
			<g>
				<path id="dDl0n5PSI_2_" fill-opacity="0" stroke="#000000" stroke-opacity="0" d="M378.02,537.73c0,0-0.05,5,1.88,5.26
					l-1.1,2.92c-0.221,0.04-1.37,0.271-3.431,0.67l-4.949-0.359c-1.311-1.69-2.04-2.63-2.181-2.811c0,0,3.851-1.83,2.181-7.5
					C371.94,536.28,376.5,537.369,378.02,537.73z"/>
			</g>
		</g>
	</g>
	<g>
		<g>
			<path id="cP8EpY0oV_5_" d="M378.02,537.73c0,0-0.05,5,1.88,5.26l-1.1,2.92c-0.221,0.04-1.37,0.271-3.431,0.67l-4.949-0.359
				c-1.311-1.69-2.04-2.63-2.181-2.811c0,0,3.851-1.83,2.181-7.5C371.94,536.28,376.5,537.369,378.02,537.73z"/>
		</g>
		<g>
			<g>
				<path id="cP8EpY0oV_2_" fill-opacity="0" stroke="#000000" stroke-opacity="0" d="M378.02,537.73c0,0-0.05,5,1.88,5.26
					l-1.1,2.92c-0.221,0.04-1.37,0.271-3.431,0.67l-4.949-0.359c-1.311-1.69-2.04-2.63-2.181-2.811c0,0,3.851-1.83,2.181-7.5
					C371.94,536.28,376.5,537.369,378.02,537.73z"/>
			</g>
		</g>
	</g>
	<g>
		<g>
			<path id="aahoJsAr6_5_" fill="#2F2E41" d="M387.39,601.76c0,0,0.58,5.83,0.109,6.92c-0.47,1.1-4.319,15.93-4.319,15.93
				s-4.95,1.101-5.63-2.18c0,0,0.68-4.69,0.63-5.42c-0.05-0.73,1.09-8.69,1.09-8.69c-0.15-1.03-0.93-6.16-2.34-15.41
				c-1.061,8.341-1.65,12.971-1.771,13.9c0,0,0,4.01-0.569,4.89v18.69c0,0,1.609,2.71-0.841,2.76c0,0-4.63-0.05-4.84-1.77
				c0,0-0.31-3.431-0.83-4.48c0,0-1.199-12.96-1.04-17.12c0,0-3.439-25.56-2.29-27.8c1.141-2.24,22.12-1.979,22.12-1.979
				C386.98,584.35,389.32,585.26,387.39,601.76z"/>
		</g>
		<g>
			<g>
				<path id="aahoJsAr6_2_" fill-opacity="0" stroke="#000000" stroke-opacity="0" d="M387.39,601.76c0,0,0.58,5.83,0.109,6.92
					c-0.47,1.1-4.319,15.93-4.319,15.93s-4.95,1.101-5.63-2.18c0,0,0.68-4.69,0.63-5.42c-0.05-0.73,1.09-8.69,1.09-8.69
					c-0.15-1.03-0.93-6.16-2.34-15.41c-1.061,8.341-1.65,12.971-1.771,13.9c0,0,0,4.01-0.569,4.89v18.69c0,0,1.609,2.71-0.841,2.76
					c0,0-4.63-0.05-4.84-1.77c0,0-0.31-3.431-0.83-4.48c0,0-1.199-12.96-1.04-17.12c0,0-3.439-25.56-2.29-27.8
					c1.141-2.24,22.12-1.979,22.12-1.979C386.98,584.35,389.32,585.26,387.39,601.76z"/>
			</g>
		</g>
	</g>
	<g>
		<g>
			<path id="a4ZApuVBF_5_" fill="#A0616A" d="M375.37,527.11c-3.449,0-6.25,2.8-6.25,6.25s2.801,6.25,6.25,6.25
				c3.45,0,6.25-2.8,6.25-6.25S378.82,527.11,375.37,527.11z"/>
		</g>
		<g>
			<g>
				<path id="a4ZApuVBF_2_" fill-opacity="0" stroke="#000000" stroke-opacity="0" d="M375.37,527.11c-3.449,0-6.25,2.8-6.25,6.25
					s2.801,6.25,6.25,6.25c3.45,0,6.25-2.8,6.25-6.25S378.82,527.11,375.37,527.11z"/>
			</g>
		</g>
	</g>
	<g>
		<g>
			<path id="bs4QnwGM4_5_" fill="#F2F2F2" d="M378.44,544.079c0,0,1.82-0.88,1.67-2.229c-0.16-1.36,3.8,10.87,3.8,10.87
				c0.261,1.42,1.601,8.52,4,21.3c-0.12,5.21-0.189,8.11-0.199,8.69c0,0-1.771-0.891-7.29,1.09l-14.53-2.24
				c0.03-1.49,0.13-8.93,0.32-22.33l0.31-13.01c0.5-1.72,0.78-2.67,0.83-2.87c0,0,0.42-0.78,1.77,0.16
				C370.99,543.63,372.921,546.32,378.44,544.079z"/>
		</g>
		<g>
			<g>
				<path id="bs4QnwGM4_2_" fill-opacity="0" stroke="#000000" stroke-opacity="0" d="M378.44,544.079c0,0,1.82-0.88,1.67-2.229
					c-0.16-1.36,3.8,10.87,3.8,10.87c0.261,1.42,1.601,8.52,4,21.3c-0.12,5.21-0.189,8.11-0.199,8.69c0,0-1.771-0.891-7.29,1.09
					l-14.53-2.24c0.03-1.49,0.13-8.93,0.32-22.33l0.31-13.01c0.5-1.72,0.78-2.67,0.83-2.87c0,0,0.42-0.78,1.77,0.16
					C370.99,543.63,372.921,546.32,378.44,544.079z"/>
			</g>
		</g>
	</g>
	<g>
		<g>
			<path id="adnxwN4N1_5_" fill="#2F2E41" d="M380,541.27l2.971,2.29c0,0,5.05,0.32,5.779,3.02c0,0,2.551,6.41,3.431,13.221
				c0,0,2.66,17.7,2.92,18.59c0,0-0.37,3.59,0.36,4.42l-5.15,0.84c0,0-0.521-4.27-0.89-4.27c0,0-0.261,2.859,0.109,4.939h-2.66
				c0,0-2.34-9.52-4.58-18.109c-2.239-8.591-3.54-13.33-3.119-15.261c0.42-1.92,1.56-7.439,0.729-7.96c-0.84-0.52-1.7-2.97-1.7-2.97
				C378.56,540.27,379.12,539.869,380,541.27z"/>
		</g>
		<g>
			<g>
				<path id="adnxwN4N1_2_" fill-opacity="0" stroke="#000000" stroke-opacity="0" d="M380,541.27l2.971,2.29
					c0,0,5.05,0.32,5.779,3.02c0,0,2.551,6.41,3.431,13.221c0,0,2.66,17.7,2.92,18.59c0,0-0.37,3.59,0.36,4.42l-5.15,0.84
					c0,0-0.521-4.27-0.89-4.27c0,0-0.261,2.859,0.109,4.939h-2.66c0,0-2.34-9.52-4.58-18.109c-2.239-8.591-3.54-13.33-3.119-15.261
					c0.42-1.92,1.56-7.439,0.729-7.96c-0.84-0.52-1.7-2.97-1.7-2.97C378.56,540.27,379.12,539.869,380,541.27z"/>
			</g>
		</g>
	</g>
	<g>
		<g>
			<path id="c1T2VdG43O_5_" fill="#2F2E41" d="M365.89,543.199l-5.771,4.32c0,0-1.359,1.04-2.189,7.24
				c-0.83,6.189-2.71,22.22-1.98,24.25c0.73,2.029,0.99,3.229,0.73,4.43c-0.26,1.19,5.47,1.14,5.569,0.88
				c0.101-0.26-0.159-4.99,0.101-5.1c0.27-0.101,1.67,2.81,1.93,5.26s3.28,4.37,3.96,4.37c0.67,0,4.16-14.11,4.21-23.74
				c0.061-9.63-1.14-17.75-2.029-18.89c-0.881-1.15,0.27-6.21,0.27-6.21C369.73,540.65,369.33,540.75,365.89,543.199z"/>
		</g>
		<g>
			<g>
				<path id="c1T2VdG43O_2_" fill-opacity="0" stroke="#000000" stroke-opacity="0" d="M365.89,543.199l-5.771,4.32
					c0,0-1.359,1.04-2.189,7.24c-0.83,6.189-2.71,22.22-1.98,24.25c0.73,2.029,0.99,3.229,0.73,4.43
					c-0.26,1.19,5.47,1.14,5.569,0.88c0.101-0.26-0.159-4.99,0.101-5.1c0.27-0.101,1.67,2.81,1.93,5.26s3.28,4.37,3.96,4.37
					c0.67,0,4.16-14.11,4.21-23.74c0.061-9.63-1.14-17.75-2.029-18.89c-0.881-1.15,0.27-6.21,0.27-6.21
					C369.73,540.65,369.33,540.75,365.89,543.199z"/>
			</g>
		</g>
	</g>
	<g>
		<g>
			<path id="a18spbYtwH_5_" fill="#3F3D56" d="M379.85,625.079c0,0,0.41-1.14,1.87-0.779l2.45-0.94c0,0,0.779-0.1,0.26,0.891
				l-0.94,1.659c0,0,3.12,7.141,1.09,8.851l-4.369,0.68c0,0-2.29-1.61-2.19-5.88c0,0-0.1-1.35-1.35-3.54s-2.19-5.52-0.681-6.14
				c1.51-0.63,1.9-0.65,1.9-0.65s-0.7,3.23,1.12,4.36C379.18,623.89,379.68,624.78,379.85,625.079z"/>
		</g>
		<g>
			<g>
				<path id="a18spbYtwH_2_" fill-opacity="0" stroke="#000000" stroke-opacity="0" d="M379.85,625.079c0,0,0.41-1.14,1.87-0.779
					l2.45-0.94c0,0,0.779-0.1,0.26,0.891l-0.94,1.659c0,0,3.12,7.141,1.09,8.851l-4.369,0.68c0,0-2.29-1.61-2.19-5.88
					c0,0-0.1-1.35-1.35-3.54s-2.19-5.52-0.681-6.14c1.51-0.63,1.9-0.65,1.9-0.65s-0.7,3.23,1.12,4.36
					C379.18,623.89,379.68,624.78,379.85,625.079z"/>
			</g>
		</g>
	</g>
	<g>
		<g>
			<path id="ceywZmpEo_5_" fill="#3F3D56" d="M370.16,633.15c0,0-1.25-2.34,0.84-2.6c0,0,4.32-0.42,4.211,0.67l-0.36,2.76
				c0.03,0.12,0.33,1.08,0.36,1.2c0,0,0.109,2.97,0.47,3.33c0,0,2.34,3.49-1.87,3.49c0,0-5.47-0.471-5.1-1.461l0.46-5.88
				C369.37,634.36,369.97,633.449,370.16,633.15z"/>
		</g>
		<g>
			<g>
				<path id="ceywZmpEo_2_" fill-opacity="0" stroke="#000000" stroke-opacity="0" d="M370.16,633.15c0,0-1.25-2.34,0.84-2.6
					c0,0,4.32-0.42,4.211,0.67l-0.36,2.76c0.03,0.12,0.33,1.08,0.36,1.2c0,0,0.109,2.97,0.47,3.33c0,0,2.34,3.49-1.87,3.49
					c0,0-5.47-0.471-5.1-1.461l0.46-5.88C369.37,634.36,369.97,633.449,370.16,633.15z"/>
			</g>
		</g>
	</g>
	<g>
		<g>
			<path id="bNMwYeYAy_5_" fill="#2F2E41" d="M377.82,529.46l1.351-0.58c0,0,1.979,0.26,1.869,0.06c0,0,0.841-1.31-0.26-2.56
				l-0.78-2.181c-0.06,0-0.369,0-0.939,0l-0.26-0.37c-0.87,0-1.36,0-1.45,0c0,0-1.101-0.409-3.96,0c0,0-6.771,0.521-7.08,2.24
				c0,0-1.92,3.851-1.35,4.84c0,0,3.85,5.051,4.159,6.771c0,0,1.771,2.1,1.721,1.02c0,0-1.511-4.819-0.261-4.979
				c1.25-0.15,3.381-3.33,2.811-5.36C374.28,528.579,376.31,529.14,377.82,529.46z"/>
		</g>
		<g>
			<g>
				<path id="bNMwYeYAy_2_" fill-opacity="0" stroke="#000000" stroke-opacity="0" d="M377.82,529.46l1.351-0.58
					c0,0,1.979,0.26,1.869,0.06c0,0,0.841-1.31-0.26-2.56l-0.78-2.181c-0.06,0-0.369,0-0.939,0l-0.26-0.37c-0.87,0-1.36,0-1.45,0
					c0,0-1.101-0.409-3.96,0c0,0-6.771,0.521-7.08,2.24c0,0-1.92,3.851-1.35,4.84c0,0,3.85,5.051,4.159,6.771
					c0,0,1.771,2.1,1.721,1.02c0,0-1.511-4.819-0.261-4.979c1.25-0.15,3.381-3.33,2.811-5.36
					C374.28,528.579,376.31,529.14,377.82,529.46z"/>
			</g>
		</g>
	</g>
	<g>
		<g>
			<path id="cOpQXYuV7_6_" fill-opacity="0" d="M581.04,464.119c-2.109,0.12-3.97,1.41-4.8,3.351c-1.2,2.899,0.34,6.31,2.66,8.43
				c2.32,2.11,5.3,3.32,8.01,4.91c3.63,2.13,6.9,5.1,8.721,8.9c1.819,3.8,2.01,8.52-0.131,12.149c-1.979,3.37-5.59,5.391-9.029,7.25
				"/>
		</g>
		<g>
			<g>
				<path id="cOpQXYuV7_2_" fill-opacity="0" stroke="#3F3D56" d="M581.04,464.119c-2.109,0.12-3.97,1.41-4.8,3.351
					c-1.2,2.899,0.34,6.31,2.66,8.43c2.32,2.11,5.3,3.32,8.01,4.91c3.63,2.13,6.9,5.1,8.721,8.9c1.819,3.8,2.01,8.52-0.131,12.149
					c-1.979,3.37-5.59,5.391-9.029,7.25"/>
			</g>
		</g>
	</g>
	<g>
		<g>
			<path id="a3tBYTTWn7_5_" fill="#FFA500" d="M588.33,464.369c0,1.141-1.899,2.061-4.239,2.061c-2.341,0-4.24-0.92-4.24-2.061
				c0-1.14,1.899-2.06,4.24-2.06C586.43,462.31,588.33,463.23,588.33,464.369z"/>
		</g>
		<g>
			<g>
				<path id="a3tBYTTWn7_2_" fill-opacity="0" stroke="#000000" stroke-opacity="0" d="M588.33,464.369
					c0,1.141-1.899,2.061-4.239,2.061c-2.341,0-4.24-0.92-4.24-2.061c0-1.14,1.899-2.06,4.24-2.06
					C586.43,462.31,588.33,463.23,588.33,464.369z"/>
			</g>
		</g>
	</g>
	<g>
		<g>
			<path id="kjqzBzSbO_5_" fill="#FFA500" d="M591.72,477.94c0,1.13-1.891,2.05-4.24,2.05c-2.34,0-4.24-0.92-4.24-2.05
				c0-1.14,1.9-2.06,4.24-2.06C589.83,475.88,591.72,476.8,591.72,477.94z"/>
		</g>
		<g>
			<g>
				<path id="kjqzBzSbO_2_" fill-opacity="0" stroke="#000000" stroke-opacity="0" d="M591.72,477.94c0,1.13-1.891,2.05-4.24,2.05
					c-2.34,0-4.24-0.92-4.24-2.05c0-1.14,1.9-2.06,4.24-2.06C589.83,475.88,591.72,476.8,591.72,477.94z"/>
			</g>
		</g>
	</g>
	<g>
		<g>
			<path id="cnvvIS7zs_5_" fill="#FFA500" d="M583.97,480.119c0,1.131-1.9,2.051-4.24,2.051s-4.24-0.92-4.24-2.051
				c0-1.14,1.9-2.06,4.24-2.06S583.97,478.98,583.97,480.119z"/>
		</g>
		<g>
			<g>
				<path id="cnvvIS7zs_2_" fill-opacity="0" stroke="#000000" stroke-opacity="0" d="M583.97,480.119c0,1.131-1.9,2.051-4.24,2.051
					s-4.24-0.92-4.24-2.051c0-1.14,1.9-2.06,4.24-2.06S583.97,478.98,583.97,480.119z"/>
			</g>
		</g>
	</g>
	<g>
		<g>
			<path id="b8CzTwfqry_5_" fill="#FFA500" d="M596.08,491.5c0,1.14-1.89,2.06-4.239,2.06c-2.341,0-4.23-0.92-4.23-2.06
				c0-1.141,1.89-2.061,4.23-2.061C594.19,489.44,596.08,490.36,596.08,491.5z"/>
		</g>
		<g>
			<g>
				<path id="b8CzTwfqry_2_" fill-opacity="0" stroke="#000000" stroke-opacity="0" d="M596.08,491.5c0,1.14-1.89,2.06-4.239,2.06
					c-2.341,0-4.23-0.92-4.23-2.06c0-1.141,1.89-2.061,4.23-2.061C594.19,489.44,596.08,490.36,596.08,491.5z"/>
			</g>
		</g>
	</g>
	<g>
		<g>
			<path id="c14cpCEpJk_5_" fill="#FFA500" d="M604.56,491.5c0,1.14-1.9,2.06-4.24,2.06s-4.24-0.92-4.24-2.06
				c0-1.141,1.9-2.061,4.24-2.061S604.56,490.36,604.56,491.5z"/>
		</g>
		<g>
			<g>
				<path id="c14cpCEpJk_2_" fill-opacity="0" stroke="#000000" stroke-opacity="0" d="M604.56,491.5c0,1.14-1.9,2.06-4.24,2.06
					s-4.24-0.92-4.24-2.06c0-1.141,1.9-2.061,4.24-2.061S604.56,490.36,604.56,491.5z"/>
			</g>
		</g>
	</g>
</g>
</svg>
