<?xml version="1.0" encoding="UTF-8" standalone="no"?>
<!DOCTYPE svg PUBLIC "-//W3C//DTD SVG 1.1//EN" "http://www.w3.org/Graphics/SVG/1.1/DTD/svg11.dtd">
<svg version="1.1" xmlns="http://www.w3.org/2000/svg" xmlns:xlink="http://www.w3.org/1999/xlink" preserveAspectRatio="xMidYMid meet" viewBox="0 0 590 300" width="590" height="300"><defs><path d="M135.78 24.12C135.62 23.54 135.23 23.05 134.69 22.78C134.34 22.69 133.97 22.68 133.61 22.77C133.06 22.85 128.62 23.53 128.07 23.62C127.6 23.64 127.16 23.81 126.8 24.11C126.08 24.87 126.79 26.09 126.77 27.14C126.74 28.32 125.7 29.27 124.56 29.59C123.4 29.82 122.21 29.81 121.06 29.55C120.28 29.42 114.08 28.46 113.3 28.34C115.59 27.61 117.62 26.26 119.17 24.43C120.19 23.22 120.73 20.96 119.26 20.39C118.82 20.27 118.36 20.23 117.91 20.28C114.4 20.31 111.63 17.38 108.34 16.14C104.03 14.62 99.22 16.05 96.44 19.69C96.85 19.71 100.16 19.87 100.57 19.89C100.96 19.87 101.35 19.97 101.67 20.18C102.58 20.92 101.45 22.35 101.58 23.52C101.74 25.03 103.75 25.35 105.27 25.51C106.78 25.66 108.7 26.89 107.98 28.23C100.36 30.85 92.62 23.1 84.63 24.06C82.6 24.3 80.69 25.09 78.72 25.59C66.65 28.64 54.18 20.5 41.85 22.22C39.11 22.69 36.42 23.4 33.8 24.35C32.13 24.9 30.38 25.49 29.16 26.77C27.94 28.05 27.47 30.23 28.63 31.57C25.45 31.83 22.24 31.52 19.17 30.67C20.86 31.61 21.91 33.4 21.89 35.34C16.92 36.15 12.08 37.63 7.51 39.73C8.36 41.15 9.36 42.48 10.49 43.69C9.86 44.1 4.82 47.33 4.19 47.73C6.32 48.27 7.42 51.17 6.18 52.98C8.39 52 9.75 49.46 12.11 48.95C13.65 48.61 15.22 49.24 16.69 49.83C18.15 50.43 19.76 51 21.28 50.56C22.8 50.11 23.91 48.15 22.95 46.89C29.43 45 36.13 43.96 42.88 43.78C43.4 43.72 43.93 43.82 44.39 44.07C45.27 44.68 45.03 45.99 44.99 47.06C44.94 48.13 45.77 49.53 46.73 49.05C45.6 50.03 46.56 51.86 47.64 52.88C48.72 53.91 50.02 55.32 49.36 56.65C49.19 57 48.89 57.28 48.73 57.63C48.24 58.67 49.02 59.87 49.93 60.56C50.85 61.25 51.97 61.73 52.61 62.68C53.24 63.63 52.95 65.3 51.82 65.43C51.49 65.02 48.9 61.74 48.58 61.33C47.48 62.47 46.72 63.91 46.4 65.47C49.83 68.27 50.34 73.98 47.47 77.35C46 79.07 43.92 80.12 42.1 81.46C40.28 82.81 38.59 84.72 38.6 86.98C38.6 90.89 38.29 94.53 39.75 98.15C42.45 104.84 45.57 111.34 49.09 117.64C50.01 119.29 51.21 121.1 53.08 121.38C49.53 112.75 47.33 105.59 46.69 103.84C47.92 103.85 49.35 103.94 50.07 104.94C50.67 105.77 50.54 106.89 50.73 107.9C50.97 108.87 51.36 109.8 51.9 110.64C53.03 112.66 62.06 128.75 63.19 130.76C64.13 132.43 65.2 134.22 66.99 134.9C68.14 135.33 69.46 135.25 70.51 135.87C71.34 136.36 71.89 137.22 72.74 137.68C75.12 138.98 78.42 136.49 80.65 138.04C81.28 138.48 81.69 139.19 82.27 139.69C84.33 141.47 87.7 140.28 90.07 141.61C91.6 142.47 92.39 144.18 93.2 145.73C95.24 149.61 98.55 153.41 102.92 153.72C104.3 153.82 105.7 153.56 107.04 153.86C108.39 154.17 109.71 155.34 109.49 156.7C109.12 159.03 110.28 161.59 109.97 163.93C109.4 168.19 103.35 170.07 102.83 174.34C102.72 175.27 102.9 176.24 102.68 177.16C102.4 178.28 101.56 179.19 101.26 180.31C100.69 182.42 102.21 184.52 103.87 185.94C105.53 187.36 107.52 188.59 108.43 190.58C109.39 192.68 108.92 195.14 109.23 197.43C109.91 202.43 114.23 206.14 118.68 208.53C120.03 209.26 121.49 209.96 122.36 211.23C123.51 212.88 123.39 215.05 123.78 217.02C124.71 221.85 128.78 225.83 128.89 230.74C128.97 234.24 127.03 237.41 125.87 240.7C123.67 247.09 124.36 254.13 127.77 259.97C128.64 261.43 129.67 262.81 130.29 264.4C131.38 267.24 131.03 270.46 132.04 273.33C133.37 277.12 137.04 280.25 136.69 284.25C138.36 287.71 142.04 289.41 145.74 290.44C146.4 290.62 151.7 292.1 152.37 292.28C153.64 292.64 154.96 292.99 156.25 292.74C157.55 292.48 158.78 291.41 158.75 290.09C155.5 289.36 152.14 288.58 149.46 286.6C146.78 284.62 144.94 281.09 145.96 277.91C146.43 276.44 147.44 274.74 146.48 273.53C145.94 272.83 144.94 272.65 144.32 272.01C143.36 271.02 143.69 269.36 144.38 268.16C145.07 266.97 146.07 265.9 146.35 264.55C146.64 263 145.93 261.43 144.58 260.62C145.81 260.16 146.93 259.44 147.86 258.52C148.73 257.53 149.12 256.01 148.45 254.89C150.46 255.15 152.84 255.27 154.17 253.73C155.22 252.5 155.15 250.66 154.73 249.09C154.31 247.52 153.61 246 153.59 244.38C158.24 244.6 162.9 244.44 167.52 243.9C166.85 241.65 165.33 239.75 163.29 238.6C165.38 238.24 167.29 235.74 167.95 233.72C168.61 231.7 168.44 229.5 168.03 227.42C167.88 226.88 167.86 226.31 167.97 225.76C168.21 225.01 168.95 224.55 169.63 224.16C170.67 223.56 178.99 218.79 180.03 218.19C180.65 217.88 181.21 217.47 181.69 216.96C182.78 215.68 182.62 213.75 182.06 212.17C181.5 210.58 180.61 209.09 180.39 207.43C179.75 202.44 185.09 198.87 186.89 194.17C187.59 192.33 187.74 190.33 187.87 188.36C188.02 186.25 188.03 183.8 186.41 182.43C184.85 181.13 182.42 181.42 180.8 180.21C179.3 179.09 178.79 176.93 177.16 176.03C175.68 175.21 173.82 175.73 172.18 175.35C169.28 174.67 167.45 171.33 164.49 171.02C162.82 170.85 160.93 171.67 159.56 170.69C158.36 169.84 158.31 168.11 158.08 166.65C157.25 162 153.62 158.35 148.97 157.51C147.25 157.23 145.37 157.34 143.91 156.39C142.42 155.43 141.74 153.64 140.58 152.31C138.7 150.17 135.74 149.41 132.97 148.76C131.84 148.5 122.83 146.38 121.7 146.11C119.7 145.64 117.12 145.39 116.04 147.15C115.73 147.81 115.5 148.52 115.38 149.25C114.55 151.95 112.08 153.81 109.25 153.86C108.3 152.25 106.77 151.06 104.98 150.55C103.83 150.24 102.61 150.2 101.52 149.73C99.11 148.56 98.11 145.65 99.29 143.24C99.33 143.16 99.37 143.08 99.41 143C100.75 140.62 100.33 137.64 98.38 135.73C96.47 134.01 93.69 133.59 91.12 133.76C90.45 132.29 91.57 130.64 92.79 129.57C94 128.5 95.47 127.45 95.74 125.86C96.15 123.35 92.95 121.45 90.52 122.19C88.1 122.94 86.55 125.3 85.52 127.63C84.93 128.96 84.43 130.37 83.5 131.49C82.58 132.62 81.08 133.42 79.67 133.06C77.67 132.55 76.9 130.17 76.46 128.16C75.86 125.45 75.26 122.71 75.39 119.94C75.51 117.18 76.45 114.33 78.49 112.46C81.81 109.41 86.91 109.71 91.4 110.2C90.34 109 90.6 106.99 91.73 105.86C92.95 104.78 94.62 104.37 96.2 104.77C97.55 105.05 98.77 105.78 99.66 106.83C100.93 108.39 101.29 110.49 102.26 112.25C103.22 114.02 105.39 115.52 107.16 114.58C108.7 113.76 108.94 111.63 108.56 109.94C108.18 108.25 107.37 106.6 107.5 104.87C107.77 101.56 111.19 99.57 114.21 98.21C117.24 96.85 120.7 95.02 121.17 91.74C121.19 91.1 121.31 90.47 121.53 89.86C121.87 89.33 122.33 88.89 122.89 88.59C131.7 82.76 140.67 76.87 150.75 73.68C151.27 73.51 151.34 73.7 151.87 73.57C152.62 73.14 152.12 71.94 151.41 71.46C150.69 70.98 149.73 70.61 149.55 69.76C149.41 69.14 149.78 68.53 149.88 67.91C150.11 66.36 148.26 64.94 146.83 65.55C146.02 64.48 147.62 63.24 148.92 62.88C152.81 61.81 156.8 61.16 160.83 60.93C161.29 60.86 161.77 60.94 162.18 61.16C162.86 61.63 162.77 62.71 162.3 63.38C161.82 64.05 161.07 64.47 160.47 65.03C159.14 66.33 158.64 68.26 159.18 70.04C161.28 71.11 163.57 72.21 165.9 71.83C168.23 71.45 170.3 68.84 169.2 66.75C168.18 64.8 165.12 64.36 164.59 62.23C163.98 59.73 167.51 57.51 166.72 55.06C166.37 53.99 165.3 53.36 164.48 52.59C162.5 50.65 161.91 47.69 163.01 45.14C160.3 45.61 157.53 44.75 155.58 42.81C153.8 41.02 152.38 38.19 149.86 38.27C147.54 38.34 145.54 41.04 143.38 40.22C142.84 40.02 142.28 39.6 141.77 39.85C141.42 40.07 141.2 40.44 141.16 40.84C140.61 43.48 141.56 46.47 140.13 48.75C138.57 51.22 134.95 51.57 133.06 53.8C132.04 55.01 131.64 56.64 130.69 57.92C129.75 59.2 127.74 60.01 126.61 58.9C127.76 56.54 127.12 53.7 125.08 52.06C124.03 51.37 122.9 50.82 121.71 50.41C120.38 49.85 119.11 49.15 117.94 48.31C117.35 47.96 116.87 47.44 116.55 46.83C116.3 46.06 116.34 45.23 116.65 44.49C117.82 41.13 120.75 38.7 124.27 38.17C125.78 37.97 127.53 38.04 128.53 36.89C129.06 36.28 129.34 35.36 130.1 35.11C130.59 35.01 131.1 35.08 131.56 35.29C132.12 35.49 136.62 37.08 137.19 37.27C137.82 37.56 138.51 37.67 139.19 37.61C139.9 37.51 140.41 36.89 140.37 36.18C140.19 35.24 138.75 34.79 138.88 33.85C138.96 33.54 139.12 33.27 139.35 33.06C143.47 28.68 149.32 26.36 155.32 26.75C156.03 27.92 154.91 29.3 153.97 30.3C153.04 31.29 152.29 33.07 153.42 33.84C153.88 34.08 154.4 34.19 154.92 34.18C156.3 34.37 157.65 34.78 158.91 35.39C161.83 36.66 164.06 37.89 164.63 38.17C164.47 36.94 164.31 35.64 164.78 34.48C165.25 33.33 166.58 32.42 167.74 32.87C168.86 33.31 169.43 34.79 170.62 34.92C172.21 35.1 172.84 32.76 172.17 31.3C171.51 29.84 170.2 28.62 170.09 27.03C170.01 25.95 170.42 24.61 169.56 23.96C169.26 23.77 168.91 23.64 168.55 23.61C166.4 23.21 149.21 20.05 147.06 19.65C145.79 19.42 143.94 19.6 143.89 20.89C143.86 21.62 144.5 22.33 144.22 23C143.91 23.71 142.91 23.64 142.18 23.89C141.04 24.28 140.47 25.63 140.58 26.82C140.78 28.01 141.24 29.14 141.93 30.13C140.53 29.54 138.41 29.43 137.02 28.85C136.81 27.23 136.4 25.64 135.78 24.12Z" id="e4JEdwTBP"></path><path d="M119.87 10.61C117.1 9.69 114.05 10.61 112.23 12.9C111.88 13.37 111.58 14.01 111.88 14.51C112.3 15.24 113.38 14.95 114.18 14.69C115.35 14.27 116.63 14.24 117.82 14.61C118.57 14.86 119.24 15.32 119.99 15.56C120.74 15.88 121.6 15.75 122.22 15.24C122.74 14.71 122.77 13.89 122.77 13.16C122.84 12.66 122.69 12.15 122.34 11.78C122.04 11.61 121.71 11.51 121.36 11.49C120.58 11.34 119.88 10.93 119.37 10.33" id="akeIWXryL"></path><path d="M127.62 8.46C126.65 8.4 125.81 9.15 125.76 10.13C125.74 10.41 125.8 10.69 125.91 10.95C126.84 11.2 127.81 11.27 128.77 11.14C129.75 10.98 130.53 10.26 130.77 9.3C129.64 9.51 128.48 9.29 127.51 8.68" id="d10t8rAIG4"></path><path d="M146.28 7.35C148.54 8.22 149.97 10.46 149.8 12.88C149.7 13.33 149.71 13.8 149.83 14.25C150.1 14.9 150.88 15.15 151.57 15.31C152.8 15.69 154.09 15.85 155.37 15.8C156.68 15.73 157.87 15.01 158.53 13.87C158.71 13.34 158.93 12.83 159.18 12.32C160.83 9.82 165.71 12.85 167.48 10.43C168.1 9.57 168.04 8.29 168.85 7.62C169.27 7.32 169.76 7.14 170.27 7.08C173.82 6.37 177.41 5.86 181.01 5.54C182.72 5.4 184.95 4.78 184.97 3.07C178.53 1.8 171.85 2.7 165.98 5.62C163.86 6.68 161.06 8.91 159.02 7.51C158.26 6.98 158.3 5.56 157.25 4.97C156.17 4.37 154.75 4.61 153.61 4.85C151.08 5.39 148.62 6.23 146.28 7.35Z" id="b5Ntvuc9pf"></path><path d="M177.69 9.37C175.53 9.28 173.7 10.95 173.6 13.11C173.59 13.28 173.6 13.45 173.61 13.62C176.44 14.56 179.53 13.64 182.51 13.77C185.49 13.89 188.96 16.02 188.45 18.96C188.29 19.85 187.78 20.74 188.05 21.6C188.23 22.2 188.77 22.63 189.07 23.19C189.69 24.35 189.19 25.81 188.4 26.87C187.61 27.92 186.55 28.76 185.85 29.88C184.13 32.67 185.11 36.27 186.14 39.38C186.43 40.55 186.98 41.65 187.75 42.59C189.27 44.21 191.75 44.35 193.98 44.39C195.6 44.41 197.45 44.33 198.48 43.08C199.81 41.44 198.88 38.88 199.76 36.96C200.56 35.22 202.59 34.47 204.44 33.94C207.82 32.96 211.26 32.14 214.46 30.67C218.43 28.84 222.13 26 226.5 25.76C227.72 25.7 228.97 25.84 230.15 25.5C231.33 25.17 232.45 24.15 232.36 22.93C232.28 21.88 231.4 21.12 230.71 20.33C230.02 19.54 229.48 18.33 230.11 17.5C231.26 17.29 240.4 15.58 241.54 15.37C240.73 13.16 240.1 10.25 241.96 8.81C242.64 8.29 243.54 8.09 244.11 7.46C245.08 6.39 244.59 4.55 243.47 3.64C242.34 2.73 240.82 2.52 239.38 2.4C234.37 1.98 229.33 2.26 224.3 2.53C209.58 3.34 197.8 3.99 194.85 4.15C192.88 4.26 190.59 4.09 188.78 4.77C187.25 5.34 186.16 6.38 184.4 6.75C181.16 7.43 177.6 6.97 174.66 8.79C175.27 8.91 177.38 9.31 177.69 9.37Z" id="dCtiPKM7s"></path><path d="M227.92 32.88C227.75 33.06 227.65 33.3 227.63 33.55C227.44 34.67 227.67 35.81 228.28 36.76C228.92 37.71 230.02 38.23 231.16 38.14C232.52 37.96 233.52 36.8 234.77 36.24C236.7 35.36 244.89 34 239.22 30.95C237.27 29.89 236.01 30.82 234.47 31.52C232.72 32.41 230.76 32.81 228.8 32.68C228.49 32.63 228.18 32.7 227.92 32.88Z" id="bwiutmzF2"></path><path d="M276.83 8.43C276.49 9.08 276.72 9.89 277.35 10.27C277.6 10.36 277.86 10.4 278.12 10.39C278.39 10.4 280.54 10.46 280.81 10.47C281.95 10.5 283.38 10.75 283.69 11.85C283.92 12.66 283.41 13.72 284.02 14.3C284.29 14.5 284.6 14.63 284.94 14.66C285.82 14.88 286.75 14.91 287.65 14.74C289.6 14.22 288.57 13.02 289.19 11.96C290.13 10.33 289.97 11.32 291.63 10.39C292.86 9.7 294.44 8.45 293.42 6.69C291.64 3.64 281.03 5.75 278.41 7.06C277.75 7.33 277.19 7.82 276.83 8.43Z" id="a3QMigAdkV"></path><path d="M329.92 5.74C326.4 6.21 322.86 6.68 319.47 7.74C320.94 8.32 322.48 8.7 324.05 8.86C324.91 8.9 325.77 9.03 326.61 9.23C328.11 9.67 329.62 10.82 331.06 10.23C331.96 9.87 332.25 8.93 333 8.44C333.51 8.1 335.46 7.54 335.68 7.2C337.43 4.41 332.84 5.35 331.48 5.53C331.17 5.57 330.08 5.72 329.92 5.74Z" id="b3KcmEy5Qj"></path><path d="M332.58 16.85C331.84 17.54 331.09 18.39 331.16 19.4C331.25 20.73 332.67 21.51 333.9 22.03C334.4 22.24 338.4 23.93 338.9 24.14C339.5 23.29 338.95 22.11 338.32 21.27C337.7 20.43 336.95 19.46 337.23 18.45C337.54 17.3 338.95 16.91 340.13 16.71C342.04 16.39 347.22 16.41 346.6 13.32C345.87 9.68 340.27 11.55 338.34 12.63C336.25 13.79 334.32 15.21 332.58 16.85Z" id="arjvYoczv"></path><path d="M337.64 223.02C338.56 224.37 340.41 224.87 342 224.53C343.59 224.11 345.01 223.2 346.06 221.92C347.01 220.86 347.8 219.65 348.39 218.35C349.21 216.32 349.79 214.2 350.12 212.03C350.27 211.21 351.51 204.7 351.67 203.89C352.01 202.07 352 196.5 348.66 198.31C347.74 198.81 345.63 202.73 344.67 203.84C342.95 205.84 342.72 207.78 341.81 210.21C340.67 213.25 338.39 215.78 337.34 218.82C336.86 220.2 336.82 221.82 337.64 223.02Z" id="bFvee6KT"></path><path d="M513.88 260.47C512.79 260.04 511.73 259.53 510.71 258.95C509.68 261.77 509.14 264.74 509.1 267.73C509.84 267.31 515.83 263.92 516.58 263.49C517.71 262.86 518.98 261.97 518.96 260.68C518.98 260.35 518.82 260.04 518.54 259.87C518.38 259.8 518.2 259.78 518.02 259.81C516.91 259.9 515.9 260.45 514.85 260.83C513.8 261.21 512.58 261.41 511.62 260.84" id="b6BpbB6P48"></path><path d="M550.96 263.84C549.25 264.72 548.08 266.38 546.53 267.53C545.05 268.63 543.27 269.23 541.52 269.82C541.01 270.28 541.25 271.19 541.8 271.59C542.4 271.93 543.09 272.09 543.78 272.03C545.6 272.07 547.51 272.09 549.1 271.22C550 270.63 550.84 269.97 551.6 269.23C553.46 267.68 555.7 266.65 557.91 265.66C558.71 265.36 559.46 264.91 560.11 264.35C561.49 262.98 561.59 260.87 559.59 260.4C557.97 260.03 554.9 262.48 553.36 262.98C552.54 263.2 551.74 263.49 550.96 263.84Z" id="e72WkqVEIJ"></path><path d="M570.81 251.59C570.99 249.68 570.29 247.79 568.9 246.47C568.88 248.35 568.82 250.36 567.76 251.92C567.01 253.03 565.82 253.78 564.99 254.84C564.17 255.89 563.8 257.57 564.77 258.5C565.39 258.97 566.15 259.23 566.92 259.24C568.86 259.47 571.09 259.59 572.45 258.2C573.19 257.44 573.55 256.31 574.45 255.75C574.78 255.61 575.08 255.39 575.33 255.12C575.7 254.53 575.11 253.75 574.44 253.54C573.77 253.32 573.04 253.42 572.37 253.22C571.7 253.02 571.09 252.27 571.43 251.66" id="d1jMIqY2XZ"></path><path d="M536.71 182.69C534.99 182.37 533.65 181.08 532.26 180.02C528.96 177.5 524.95 176.1 520.8 176.01C517.03 175.94 513.22 176.96 509.52 176.25C509.76 177.6 510.91 178.61 512.14 179.21C513.37 179.81 514.73 180.11 515.96 180.7C517.94 181.65 519.51 183.28 520.38 185.29C520.78 186.22 521.03 187.23 521.63 188.04C522.86 189.7 525.2 190.06 527.26 189.93C529.94 189.75 532.75 188.98 535.25 189.98C537.16 190.75 538.53 192.42 540.12 193.72C541.72 195.02 543.97 195.99 545.8 195.05C541.89 193.78 539.26 190.12 539.31 186.02C541.1 186.18 546.28 186.12 546 183.06C545.77 180.47 541.35 182.23 539.8 182.51C538.79 182.75 537.74 182.82 536.71 182.69Z" id="a5QHG8qbxh"></path><path d="M517.81 198.58C517.43 197.41 516.07 196.83 514.84 196.8C513.61 196.77 512.4 197.14 511.17 197.17C510.37 197.13 509.57 197.14 508.77 197.21C506.33 197.61 504.82 200.17 502.52 201.08C501.12 201.63 499.55 201.52 498.1 201.91C494.79 202.78 492.7 205.9 490.39 208.41C486.66 212.46 481.8 215.3 476.44 216.55C474.56 216.99 472.54 217.26 471.05 218.48C469.07 220.1 468.59 222.87 468.15 225.38C466.93 232.33 465.07 239.15 462.6 245.75C463.38 245.85 469.66 246.65 470.44 246.75C471.93 246.94 473.48 247.13 474.92 246.69C475.96 246.29 476.95 245.77 477.86 245.12C481.35 242.95 485.26 241.54 489.34 240.98C491.39 240.69 493.54 240.64 495.47 241.41C497.4 242.17 499.05 243.9 499.21 245.97C500.91 245.44 502.76 245.89 504.03 247.14C505.26 248.39 506.06 250 506.33 251.73C506.54 252.8 506.74 254.09 507.74 254.54C508.55 254.91 509.48 254.51 510.37 254.44C513.39 254.2 515.89 257.71 518.85 257.11C522.03 256.46 522.81 251.7 525.92 250.74C527.7 250.2 530.2 250.86 531.05 249.21C531.8 247.75 530.3 246.06 530.45 244.43C530.65 242.41 533.02 241.56 534.85 240.7C541.16 237.74 544.16 229.24 541.1 222.97C539.29 219.26 535.72 216.34 535.06 212.26C534.56 209.12 535.79 205.46 533.79 202.99C532.78 201.74 531.05 201.04 530.45 199.54C530.07 198.6 530.22 197.53 530.01 196.53C529.81 195.54 528.94 194.49 527.95 194.75C525.1 195.5 524.18 204.33 522.65 206.47C520.33 209.73 515.55 207.59 516.29 203.57C516.61 201.82 518.35 200.27 517.81 198.58Z" id="b93w2tqvb"></path><path d="M460.49 185.69C459.55 186.08 459 187.46 459.76 188.14C465.63 187.91 471.54 187.68 477.37 188.48C484.08 189.4 490.72 191.68 497.46 191.01C493.61 189.87 489.7 188.96 485.74 188.29C485.08 188.16 479.8 187.15 479.14 187.02C477.37 186.65 475.58 186.38 473.78 186.2C470.02 185.89 467.17 186.88 463.47 185.84C462.49 185.57 461.42 185.3 460.49 185.69Z" id="g8vchMGHr"></path><path d="M468 165.72C467.76 166.13 468.04 166.65 467.91 167.1C467.73 167.72 466.93 167.87 466.29 167.79C465.66 167.71 464.98 167.51 464.41 167.81C463.83 168.21 463.58 168.95 463.8 169.62C464.03 170.27 464.4 170.86 464.89 171.35C465.71 172.4 466.66 173.35 467.7 174.18C469.72 175.67 472.46 176.39 473.73 178.55C473.91 178.97 474.19 179.34 474.54 179.64C475.15 180.02 475.94 179.73 476.6 179.43C476.83 179.32 478.67 178.48 478.9 178.38C479.32 178.23 479.69 177.97 479.98 177.64C480.51 176.93 480.18 175.91 479.74 175.14C479.3 174.37 478.73 173.58 478.83 172.7C479 171.12 481.02 170.52 481.85 169.18C482.69 167.82 482.15 166.07 482.24 164.48C482.35 162.62 483.52 160.2 481.64 158.8C480.04 157.62 478.51 158.71 477.37 160.02C474.94 162.77 473.8 165.75 469.35 165.38C468.86 165.34 468.26 165.31 468 165.72Z" id="f92qLxDn2"></path><path d="M486.62 141.44C487.55 143.03 487.44 145.08 488.45 146.62C489.49 148.2 491.57 149.04 492.15 150.84C492.78 152.81 491.35 155.19 492.49 156.91C493.34 158.03 494.94 158.24 496.06 157.39C496.12 157.35 496.17 157.3 496.23 157.25C497.23 156.16 497.18 154.46 496.11 153.43C495.43 152.81 494.46 152.54 493.89 151.82C493.6 151.4 493.4 150.92 493.32 150.42C493.01 148.97 493.06 147.46 493.46 146.03C493.61 145.67 493.65 145.27 493.57 144.88C493.32 144.14 492.31 144.09 491.61 143.74C490.01 142.96 490.05 140.7 490.33 138.94C490.14 140.11 485.97 138.12 485.53 137.46C484.67 136.14 485.14 133.6 484.97 132.15C483.09 133.05 482.37 135.72 483.33 137.57C484.12 139.07 485.76 139.97 486.62 141.44Z" id="a2tyM9RTXr"></path><path d="M438.36 159.5C437.57 159.89 437.35 160.98 437.66 161.81C438.04 162.61 438.62 163.3 439.34 163.81C441.49 165.58 443.81 167.19 445.68 169.25C449.04 172.94 450.82 177.92 454.47 181.32C455.21 182.1 456.18 182.63 457.24 182.81C458.3 182.91 459.5 182.23 459.62 181.17C459.72 180.29 459.11 179.51 458.52 178.86C457.1 177.32 455.54 175.9 454.2 174.29C453.59 173.67 453.2 172.86 453.1 171.99C453.1 171.12 453.89 170.21 454.73 170.43C453.71 170.16 452.95 168.46 451.45 168.14C450.19 167.87 449.89 168.65 448.39 168.01C445.55 166.79 443.31 162.97 441.32 160.74C440.55 159.88 439.39 158.98 438.36 159.5Z" id="b3uY2oArJM"></path><path d="M505.83 75.98C503.71 75.34 500.91 76.89 501.2 79.08C501.38 80.54 502.74 81.52 503.48 82.78C504.59 84.65 504.3 87.03 503.72 89.12C503.57 89.77 503.3 90.38 502.92 90.93C502.38 91.5 501.73 91.96 501.02 92.29C498.17 93.89 495.65 96.03 493.61 98.59C493.38 98.83 493.23 99.12 493.16 99.43C493.06 100.17 493.8 100.71 494.22 101.33C495.15 102.7 494.48 104.54 494.57 106.19C494.54 106.67 494.76 107.13 495.15 107.4C495.71 107.69 496.38 107.2 496.68 106.65C497.7 104.82 496.93 101.87 498.83 100.99C499.19 100.82 499.63 100.75 499.87 100.44C500.25 99.94 499.88 99.2 500.07 98.6C500.36 97.7 501.59 97.66 502.53 97.7C504.16 97.77 505.78 97.55 507.33 97.06C507.94 96.92 508.49 96.6 508.91 96.14C509.48 95.43 509.43 94.43 509.32 93.53C508.75 89.04 507.33 84.7 505.13 80.75C506.8 80.96 508.61 81.15 510.05 80.28C510.86 79.79 511.82 78.33 511.42 77.34C510.79 75.78 509.65 77.1 508.23 76.83C507.42 76.59 506.61 76.31 505.83 75.98Z" id="ad9qPuISs"></path><path d="M294.54 104.75C294.19 105.78 293.08 106.64 292.04 106.32C291.23 106.08 290.76 105.26 290.19 104.64C287 101.2 279.8 103.19 277.82 98.93C277.02 97.19 277.56 95.1 277.02 93.27C276.3 91.08 274.2 89.66 271.91 89.8C270.9 89.95 269.91 90.24 268.97 90.68C262.74 93.17 256.19 94.81 249.52 95.54C248.25 95.62 246.99 95.85 245.78 96.22C243.04 97.22 241.16 99.76 239.83 102.35C238.5 104.95 237.51 107.75 235.72 110.06C233.85 112.48 231.21 114.18 228.76 116.01C227.81 116.62 227.02 117.45 226.46 118.42C225.93 119.51 225.96 120.78 226 122C226.05 123.47 226.45 135.28 226.5 136.75C226.57 138.65 226.65 140.62 227.5 142.32C228.56 144.44 230.65 145.83 232.11 147.7C233.59 149.62 234.36 152 234.29 154.43C234.26 155.41 234.17 156.57 234.93 157.18C235.39 157.48 235.93 157.63 236.48 157.63C238.48 157.79 254.45 159.1 256.44 159.26C259.95 159.55 263.84 160.02 266.14 162.69C267.22 163.96 268.09 165.77 269.74 165.91C270.45 165.97 271.15 165.67 271.86 165.62C273.65 165.48 275.23 166.84 276.22 168.34C277.73 170.62 278.41 173.35 278.16 176.08C277.99 177.79 277.46 179.45 277.35 181.16C276.92 187.69 282.45 193.36 282.55 199.89C282.62 203.74 280.79 207.33 279.01 210.74C281.88 215.09 279.53 220.88 280.67 225.97C281.76 230.8 285.78 234.58 286.79 239.42C287.24 241.64 287.27 244.37 289.23 245.51C290.08 245.93 291.04 246.12 291.99 246.06C297.74 246.13 303.42 244.84 308.57 242.29C310.99 241.09 313.49 239.29 313.92 236.63C314.26 234.48 313.17 232.07 314.28 230.2C315.58 227.99 318.93 228.17 320.86 226.47C323.98 223.72 321.54 218.47 322.81 214.5C323.95 210.94 327.86 209.05 329.8 205.85C330.56 204.47 331.11 202.99 331.42 201.45C332.31 197.76 332.86 194 333.08 190.22C333.13 187.92 333.3 185.62 333.58 183.34C335.68 170.35 348.52 161.65 352.69 149.16C353.09 147.97 353.28 146.39 352.22 145.71C351.59 145.41 350.87 145.34 350.2 145.5C349.28 145.62 341.92 146.54 341 146.66C339.85 146.8 338.64 146.94 337.59 146.46C336.54 145.99 335.79 144.66 336.35 143.65C337.91 140.82 334.69 137.24 333.27 134.34C329.42 126.53 324.84 119.1 319.59 112.16C319.25 111.8 319.04 111.35 318.99 110.86C319.25 110.87 321.34 110.94 321.6 110.95C320.72 107.78 319.26 104.32 316.19 103.16C314.46 102.51 312.54 102.74 310.69 102.84C305.4 103.13 299.73 102.33 294.49 101.52C294.69 102.59 294.89 103.72 294.54 104.75Z" id="a1b0hlNy87"></path><path d="M315.64 33.53C319.18 33.98 321.72 30.32 323.34 27.14C323.47 28.82 324.91 30.1 326.6 30.03C327.47 29.88 328.3 29.55 329.05 29.07C336.06 25.24 343.91 23.21 351.9 23.16C351.74 21.91 352.56 20.74 353.79 20.45C355.41 20.13 356.87 21.53 357.66 22.99C358.44 24.45 358.93 26.14 360.17 27.23C361.42 28.32 363.83 28.28 364.32 26.69C364.79 25.18 363.21 23.88 361.9 22.99C360.58 22.09 359.2 20.43 360.08 19.11C366.8 17.63 373.55 16.14 380.42 15.84C381.59 15.88 382.76 15.68 383.85 15.25C384.89 14.74 385.73 13.57 385.44 12.44C382.38 13.16 379.18 11.95 377.35 9.39C386.89 8.6 397.02 7.93 405.47 12.41C406.48 14.59 401.32 16.4 402.7 18.36C403.14 18.99 404.03 19.06 404.79 19.08C410.66 19.19 416.56 19.29 422.37 18.41C424.49 18.08 426.63 17.62 428.76 17.89C432.31 18.32 435.34 20.69 438.83 21.46C440.25 21.78 441.84 21.79 443.04 20.96C444.24 20.14 444.75 18.25 443.77 17.18C447.06 13.96 452.51 14.76 456.85 16.3C461.18 17.84 465.29 20.33 469.87 20.67C473.16 20.92 476.5 20.03 479.75 20.6C481.79 20.95 483.69 21.86 485.69 22.42C489.47 23.47 493.46 23.25 497.38 23.3C507.38 23.43 517.28 25.4 526.57 29.1C527.78 29.49 528.89 30.15 529.82 31.02C530.68 31.94 531.12 33.38 530.54 34.51C529.58 34.37 521.9 33.25 520.94 33.11C521.84 34.89 524.18 35.19 526.08 35.81C527.98 36.42 529.96 38.52 528.81 40.16C526.75 39.5 524.89 41.56 523.85 43.46C522.81 45.35 521.54 47.62 519.38 47.74C517.45 47.84 515.11 46.19 513.85 47.66C515.59 49.86 517.08 52.24 518.29 54.77C519.54 57.36 520.42 60.63 518.74 62.96C518.48 63.38 518.07 63.69 517.61 63.84C516.23 64.19 515.34 62.51 514.35 61.49C513.11 60.21 511.23 59.84 509.55 59.24C507.87 58.64 506.1 57.46 505.97 55.67C505.89 54.57 506.47 53.54 506.9 52.51C507.63 50.79 507.94 48.91 507.83 47.05C507.73 45.54 507.31 43.98 506.23 42.93C505.15 41.88 503.29 41.54 502.13 42.51C501.59 42.96 501.15 43.67 500.45 43.7C499.21 43.75 498.26 41.58 497.26 42.32C497.38 43.11 497.21 43.91 496.8 44.59C493.82 47.18 489.24 46.09 485.4 47C483.57 47.52 481.82 48.29 480.2 49.27C479.59 49.53 479.07 49.97 478.71 50.52C478.23 51.45 478.76 52.65 479.61 53.27C480.5 53.82 481.51 54.16 482.56 54.27C487.24 55.16 491.99 56.53 495.69 59.54C499.38 62.55 501.81 67.52 500.64 72.14C499.72 71.26 492.33 64.2 491.4 63.32C491.93 68.87 491.94 73.35 492 74.46C492.06 75.19 491.96 75.92 491.71 76.61C491.05 78.06 489.27 78.55 487.7 78.87C486 79.19 484.88 80.84 485.21 82.54C485.23 82.66 485.26 82.78 485.29 82.89C485.85 84.7 487.23 86.11 488.5 87.52C489.77 88.93 491.02 90.53 491.19 92.41C491.35 94.3 489.93 96.43 488.04 96.3C486.61 96.2 485.54 94.91 484.93 93.61C484.32 92.31 483.96 90.87 483.04 89.76C480.26 86.42 474.02 87.85 471.53 84.29C470.24 85.75 469.8 87.78 470.37 89.65C471.52 88.92 473.11 89.6 473.98 90.65C474.85 91.7 475.26 93.05 475.94 94.24C476.87 95.83 478.33 97.25 478.46 99.09C478.43 99.78 478.44 100.48 478.5 101.17C478.73 102.29 479.67 103.09 480.32 104.02C481.84 106.19 481.76 109.16 480.79 111.62C479.81 114.08 478.05 116.14 476.3 118.13C473.26 121.61 470.15 125.07 466.54 127.96C465.52 128.78 464.42 129.59 463.77 130.74C463.13 131.9 463.1 133.52 464.09 134.39C463.38 134.43 462.12 134.77 461.41 134.81C461.16 131.98 461.11 129.14 461.25 126.3C458.47 124.97 455.47 128.54 455.83 131.61C456.19 134.68 458.41 137.14 459.99 139.79C461.14 141.73 462 143.99 461.61 146.22C461.23 148.44 459.24 150.49 456.99 150.3C453.42 149.98 451.92 144.85 448.38 144.26C448.06 144.19 447.74 144.22 447.44 144.35C446.92 144.64 446.83 145.34 446.8 145.94C446.65 148.88 446.53 151.94 447.68 154.65C449.35 158.62 453.69 161.95 452.78 166.16C447.88 163.88 445.33 158.38 444.17 153.1C443.02 147.82 442.82 142.28 440.75 137.29C439.18 139.31 435.86 137.64 434.43 135.52C433.06 133.51 432.22 131.19 430.9 129.15C429.57 127.12 427.55 125.3 425.12 125.18C422.58 125.07 420.37 126.81 418.43 128.46C416.84 129.82 415.2 131.23 414.27 133.1C412.91 135.83 413.27 139.04 413.2 142.09C413.13 145.38 412.44 148.85 410.19 151.26C407.95 153.67 403.81 154.51 401.33 152.34C400.04 151.2 399.41 149.51 398.86 147.88C396.17 140.04 393.94 132.06 392.16 123.97C391.74 125.81 390.12 128.19 388.57 127.11C388.22 126.81 387.94 126.45 387.74 126.04C384.85 121.14 379.5 118.2 374.09 116.44C368.68 114.68 362.99 113.86 357.65 111.92C354.65 110.84 351.79 109.41 349.12 107.67C347.73 109.71 347.57 112.35 348.7 114.54C349.89 116.64 352.58 117.85 354.87 117.12C356.06 116.74 357.06 115.91 358.24 115.51C359.42 115.1 361 115.3 361.52 116.44C362.01 117.52 361.27 118.84 361.64 119.97C362.2 121.7 364.8 121.83 365.72 123.4C366.39 124.57 365.84 126.13 364.87 127.07C363.9 128.02 362.61 128.53 361.43 129.19C357.59 131.32 354.86 134.96 351.51 137.8C348.16 140.63 343.43 142.7 339.44 140.88C340.39 136.06 334.65 132.52 333.59 127.72C333.25 126.14 333.43 124.46 332.93 122.92C332.21 120.69 330.23 119.16 328.61 117.47C324.64 113.29 322.52 107.68 322.74 101.91C322.83 99.93 323.2 97.91 322.75 95.98C322.29 94.05 320.69 92.18 318.71 92.26C314.18 92.46 308.47 92.8 306.1 88.94C305.25 87.56 304.88 85.54 306.11 84.49C306.97 83.74 308.25 83.81 309.38 83.92C310.4 84.02 318.57 84.83 319.59 84.93C321.98 85.16 324.56 85.36 326.61 84.11C328.65 82.86 329.54 79.55 327.65 78.08C326.26 77.01 323.78 77.06 323.37 75.36C323.04 73.94 324.61 72.33 323.76 71.14C323.15 70.29 321.78 70.52 320.95 71.16C320.12 71.8 319.52 72.73 318.59 73.22C316.97 74.06 315.02 73.26 313.27 72.71C311.51 72.16 309.17 72.11 308.32 73.74C307.37 75.56 309.16 77.95 308.22 79.77C306.97 82.18 302.74 80.81 300.99 82.88C298.98 85.26 302.36 88.81 301.68 91.85C299.92 92.72 297.83 92.61 296.18 91.54C294.56 90.44 293.67 88.53 293.87 86.57C294.04 85.2 294.75 83.8 294.28 82.51C293.89 81.47 292.84 80.85 291.87 80.31C290.87 79.76 282.94 75.37 281.95 74.83C281.03 76.53 282.19 78.65 283.65 79.93C285.1 81.22 286.93 82.18 287.88 83.87C289.14 86.3 288.29 89.29 285.94 90.69C285.65 90.89 285.29 90.95 284.95 90.86C284.63 90.67 284.4 90.36 284.32 90C282.57 85.52 279.94 81.11 275.74 78.77C271.54 76.43 265.5 76.91 262.75 80.85C262.09 81.79 261.65 82.85 261.08 83.84C258.06 89.1 251.56 91.59 245.5 91.43C244.91 91.46 244.31 91.32 243.8 91.03C242.82 90.35 242.86 88.91 243.01 87.73C243.08 87.23 243.59 83.22 243.65 82.72C243.78 81.71 243.96 80.6 244.76 79.97C245.88 79.08 247.5 79.64 248.93 79.62C251.16 79.52 253.07 78.04 253.74 75.91C254.33 73.78 253.69 71.5 252.08 69.98C251.42 69.37 250.54 68.59 250.89 67.76C251.17 67.3 251.64 66.98 252.17 66.9C254.75 66.15 257.46 65.95 259.99 65.07C262.52 64.19 264.97 62.39 265.57 59.78C265.75 58.98 265.83 58.01 266.55 57.62C266.91 57.47 267.3 57.39 267.69 57.39C270.53 56.98 272.59 54.48 272.44 51.61C273.65 50.76 275.35 51.39 276.52 52.29C277.69 53.19 278.73 54.38 280.15 54.77C282.81 55.49 285.38 53.14 288.13 53.12C289.29 53.12 290.49 53.53 291.58 53.14C292.68 52.74 293.34 51.64 294.19 50.83C295.04 50.02 296.53 49.52 297.31 50.39C297.24 49.9 296.71 45.95 296.64 45.46C299.36 46.14 302.24 45.62 304.54 44.03C303.68 43.74 296.79 41.41 295.93 41.12C295.63 41.04 295.35 40.9 295.12 40.69C294.49 40.01 295.12 38.96 295.63 38.2C296.84 36.36 297.05 33.34 295.04 32.43C293.68 31.8 292.11 32.55 290.79 33.28C290.17 33.64 285.14 36.44 284.51 36.79C284.31 37.99 285.77 38.66 286.67 39.47C288.17 40.8 288.31 43.1 286.98 44.6C286.3 45.36 285.33 45.81 284.31 45.82C285.14 46.91 285.44 48.32 285.11 49.66C284.69 49.69 281.31 49.93 280.88 49.96C280.41 50.06 279.92 49.96 279.51 49.69C279.06 49.29 279.12 48.59 279.02 47.99C278.76 46.55 277.35 45.54 275.92 45.29C274.48 45.03 273.01 45.36 271.58 45.69C270.98 45.9 270.32 45.89 269.72 45.64C269.38 45.42 269.12 45.1 268.99 44.71C268.36 43.2 268.95 41.42 269.95 40.13C270.95 38.83 272.32 37.89 273.55 36.81C276.5 34.22 278.67 30.87 279.8 27.12C282.13 26.14 284.54 24.81 286.87 23.84C290.46 22.02 294.49 21.24 298.5 21.59C299.29 21.6 305.6 21.72 306.39 21.74C308.72 21.78 311.12 21.84 313.28 22.73C315.44 23.62 317.34 25.54 317.48 27.87C317.58 28.41 317.38 28.96 316.98 29.32C316.67 29.49 316.33 29.56 315.98 29.54C313.8 29.62 312.88 30.16 310.7 30.24C312.08 31.71 313.63 33.27 315.64 33.53Z" id="bteTiBui2"></path><path d="M247.83 54.96C248.46 54.36 248.71 53.47 248.46 52.64C246.93 52.05 245.2 52.37 243.99 53.48C243.53 53.95 243.12 54.48 242.8 55.06C241.76 56.75 240.84 58.77 241.44 60.66C241.54 61.08 241.81 61.44 242.17 61.66C242.44 61.77 242.73 61.81 243.02 61.79C244.16 61.79 245.3 61.72 246.44 61.58C247.13 61.5 247.94 61.3 248.21 60.65C248.56 59.8 247.71 58.84 247.96 57.95C248.12 57.55 248.37 57.2 248.69 56.91C249 56.61 249.16 56.18 249.12 55.75C249.02 55.33 248.38 55.1 248.15 55.46" id="g41EWa3cq7"></path><path d="M250.66 47.09C250.43 47.08 250.2 47.13 250 47.24C249.8 47.38 249.66 47.59 249.59 47.83C249.14 49.28 249.88 50.84 251.3 51.41C251.67 51.49 252.02 51.64 252.35 51.83C253.23 52.51 252.67 53.9 252.84 55C253.02 56.23 254.21 57.26 253.99 58.48C253.82 59.45 252.79 60.21 252.96 61.18C253.13 62.19 254.41 62.49 255.44 62.58C256.03 62.68 256.64 62.61 257.2 62.37C257.75 61.99 258.15 61.42 258.3 60.77C258.72 59.52 258.9 58.2 258.82 56.89C258.82 56.29 258.67 55.71 258.39 55.18C258.08 54.76 257.74 54.37 257.36 54.01C255.4 51.73 257.47 48.33 253.76 47.28C252.74 47.05 251.7 46.98 250.66 47.09Z" id="dltTqnACJ"></path><path d="M511.59 225.95C511.59 225.95 361.41 139.74 296.76 156.08C296.76 156.08 159.75 170.82 143.87 203.26C143.87 203.26 100.31 67.15 84.44 62.62" id="c2erwqHqq"></path><path d="M143.87 203.26C169.05 136.11 395.9 61.71 395.9 61.71C363.68 69.88 296.76 156.08 296.76 156.08C296.76 156.08 155.21 53.09 84.44 62.62C84.44 62.62 396.12 72.82 511.59 225.95" id="c1nCYN2oeP"></path><path d="M84.44 56.04C80.8 56.04 77.86 58.98 77.86 62.62C77.86 66.25 80.8 69.19 84.44 69.19C88.07 69.19 91.01 66.25 91.01 62.62C91.01 58.98 88.07 56.04 84.44 56.04Z" id="eRbqzl9Dj"></path><path d="M143.87 196.68C140.24 196.68 137.29 199.63 137.29 203.26C137.29 206.89 140.24 209.84 143.87 209.84C147.5 209.84 150.45 206.89 150.45 203.26C150.45 199.63 147.5 196.68 143.87 196.68Z" id="gniJmjd9C"></path><path d="M395.9 55.13C392.26 55.13 389.32 58.08 389.32 61.71C389.32 65.34 392.26 68.29 395.9 68.29C399.53 68.29 402.47 65.34 402.47 61.71C402.47 58.08 399.53 55.13 395.9 55.13Z" id="c6FVwxWCmR"></path><path d="M511.59 219.37C507.95 219.37 505.01 222.31 505.01 225.95C505.01 229.58 507.95 232.52 511.59 232.52C515.22 232.52 518.17 229.58 518.17 225.95C518.17 222.31 515.22 219.37 511.59 219.37Z" id="bhH3OL2Em"></path><path d="M296.76 149.5C293.13 149.5 290.19 152.44 290.19 156.08C290.19 159.71 293.13 162.66 296.76 162.66C300.4 162.66 303.34 159.71 303.34 156.08C303.34 152.44 300.4 149.5 296.76 149.5Z" id="b5B2xqGfr"></path></defs><g><g><g><use xlink:href="#e4JEdwTBP" opacity="1" fill="#3f3d56" fill-opacity="1"></use><g><use xlink:href="#e4JEdwTBP" opacity="1" fill-opacity="0" stroke="#000000" stroke-width="1" stroke-opacity="0"></use></g></g><g><use xlink:href="#akeIWXryL" opacity="1" fill="#3f3d56" fill-opacity="1"></use><g><use xlink:href="#akeIWXryL" opacity="1" fill-opacity="0" stroke="#000000" stroke-width="1" stroke-opacity="0"></use></g></g><g><use xlink:href="#d10t8rAIG4" opacity="1" fill="#3f3d56" fill-opacity="1"></use><g><use xlink:href="#d10t8rAIG4" opacity="1" fill-opacity="0" stroke="#000000" stroke-width="1" stroke-opacity="0"></use></g></g><g><use xlink:href="#b5Ntvuc9pf" opacity="1" fill="#3f3d56" fill-opacity="1"></use><g><use xlink:href="#b5Ntvuc9pf" opacity="1" fill-opacity="0" stroke="#000000" stroke-width="1" stroke-opacity="0"></use></g></g><g><use xlink:href="#dCtiPKM7s" opacity="1" fill="#3f3d56" fill-opacity="1"></use><g><use xlink:href="#dCtiPKM7s" opacity="1" fill-opacity="0" stroke="#000000" stroke-width="1" stroke-opacity="0"></use></g></g><g><use xlink:href="#bwiutmzF2" opacity="1" fill="#3f3d56" fill-opacity="1"></use><g><use xlink:href="#bwiutmzF2" opacity="1" fill-opacity="0" stroke="#000000" stroke-width="1" stroke-opacity="0"></use></g></g><g><use xlink:href="#a3QMigAdkV" opacity="1" fill="#3f3d56" fill-opacity="1"></use><g><use xlink:href="#a3QMigAdkV" opacity="1" fill-opacity="0" stroke="#000000" stroke-width="1" stroke-opacity="0"></use></g></g><g><use xlink:href="#b3KcmEy5Qj" opacity="1" fill="#3f3d56" fill-opacity="1"></use><g><use xlink:href="#b3KcmEy5Qj" opacity="1" fill-opacity="0" stroke="#000000" stroke-width="1" stroke-opacity="0"></use></g></g><g><use xlink:href="#arjvYoczv" opacity="1" fill="#3f3d56" fill-opacity="1"></use><g><use xlink:href="#arjvYoczv" opacity="1" fill-opacity="0" stroke="#000000" stroke-width="1" stroke-opacity="0"></use></g></g><g><use xlink:href="#bFvee6KT" opacity="1" fill="#3f3d56" fill-opacity="1"></use><g><use xlink:href="#bFvee6KT" opacity="1" fill-opacity="0" stroke="#000000" stroke-width="1" stroke-opacity="0"></use></g></g><g><use xlink:href="#b6BpbB6P48" opacity="1" fill="#3f3d56" fill-opacity="1"></use><g><use xlink:href="#b6BpbB6P48" opacity="1" fill-opacity="0" stroke="#000000" stroke-width="1" stroke-opacity="0"></use></g></g><g><use xlink:href="#e72WkqVEIJ" opacity="1" fill="#3f3d56" fill-opacity="1"></use><g><use xlink:href="#e72WkqVEIJ" opacity="1" fill-opacity="0" stroke="#000000" stroke-width="1" stroke-opacity="0"></use></g></g><g><use xlink:href="#d1jMIqY2XZ" opacity="1" fill="#3f3d56" fill-opacity="1"></use><g><use xlink:href="#d1jMIqY2XZ" opacity="1" fill-opacity="0" stroke="#000000" stroke-width="1" stroke-opacity="0"></use></g></g><g><use xlink:href="#a5QHG8qbxh" opacity="1" fill="#3f3d56" fill-opacity="1"></use><g><use xlink:href="#a5QHG8qbxh" opacity="1" fill-opacity="0" stroke="#000000" stroke-width="1" stroke-opacity="0"></use></g></g><g><use xlink:href="#b93w2tqvb" opacity="1" fill="#3f3d56" fill-opacity="1"></use><g><use xlink:href="#b93w2tqvb" opacity="1" fill-opacity="0" stroke="#000000" stroke-width="1" stroke-opacity="0"></use></g></g><g><use xlink:href="#g8vchMGHr" opacity="1" fill="#3f3d56" fill-opacity="1"></use><g><use xlink:href="#g8vchMGHr" opacity="1" fill-opacity="0" stroke="#000000" stroke-width="1" stroke-opacity="0"></use></g></g><g><use xlink:href="#f92qLxDn2" opacity="1" fill="#3f3d56" fill-opacity="1"></use><g><use xlink:href="#f92qLxDn2" opacity="1" fill-opacity="0" stroke="#000000" stroke-width="1" stroke-opacity="0"></use></g></g><g><use xlink:href="#a2tyM9RTXr" opacity="1" fill="#3f3d56" fill-opacity="1"></use><g><use xlink:href="#a2tyM9RTXr" opacity="1" fill-opacity="0" stroke="#000000" stroke-width="1" stroke-opacity="0"></use></g></g><g><use xlink:href="#b3uY2oArJM" opacity="1" fill="#3f3d56" fill-opacity="1"></use><g><use xlink:href="#b3uY2oArJM" opacity="1" fill-opacity="0" stroke="#000000" stroke-width="1" stroke-opacity="0"></use></g></g><g><use xlink:href="#ad9qPuISs" opacity="1" fill="#3f3d56" fill-opacity="1"></use><g><use xlink:href="#ad9qPuISs" opacity="1" fill-opacity="0" stroke="#000000" stroke-width="1" stroke-opacity="0"></use></g></g><g><use xlink:href="#a1b0hlNy87" opacity="1" fill="#3f3d56" fill-opacity="1"></use><g><use xlink:href="#a1b0hlNy87" opacity="1" fill-opacity="0" stroke="#000000" stroke-width="1" stroke-opacity="0"></use></g></g><g><use xlink:href="#bteTiBui2" opacity="1" fill="#3f3d56" fill-opacity="1"></use><g><use xlink:href="#bteTiBui2" opacity="1" fill-opacity="0" stroke="#000000" stroke-width="1" stroke-opacity="0"></use></g></g><g><use xlink:href="#g41EWa3cq7" opacity="1" fill="#3f3d56" fill-opacity="1"></use><g><use xlink:href="#g41EWa3cq7" opacity="1" fill-opacity="0" stroke="#000000" stroke-width="1" stroke-opacity="0"></use></g></g><g><use xlink:href="#dltTqnACJ" opacity="1" fill="#3f3d56" fill-opacity="1"></use><g><use xlink:href="#dltTqnACJ" opacity="1" fill-opacity="0" stroke="#000000" stroke-width="1" stroke-opacity="0"></use></g></g><g><use xlink:href="#c2erwqHqq" opacity="1" fill="#000000" fill-opacity="0"></use><g><use xlink:href="#c2erwqHqq" opacity="1" fill-opacity="0" stroke="#ffa500" stroke-width="2" stroke-opacity="1"></use></g></g><g><use xlink:href="#c1nCYN2oeP" opacity="1" fill="#000000" fill-opacity="0"></use><g><use xlink:href="#c1nCYN2oeP" opacity="1" fill-opacity="0" stroke="#ffa500" stroke-width="2" stroke-opacity="1"></use></g></g><g><use xlink:href="#eRbqzl9Dj" opacity="1" fill="#ffa500" fill-opacity="1"></use><g><use xlink:href="#eRbqzl9Dj" opacity="1" fill-opacity="0" stroke="#000000" stroke-width="1" stroke-opacity="0"></use></g></g><g><use xlink:href="#gniJmjd9C" opacity="1" fill="#ffa500" fill-opacity="1"></use><g><use xlink:href="#gniJmjd9C" opacity="1" fill-opacity="0" stroke="#000000" stroke-width="1" stroke-opacity="0"></use></g></g><g><use xlink:href="#c6FVwxWCmR" opacity="1" fill="#ffa500" fill-opacity="1"></use><g><use xlink:href="#c6FVwxWCmR" opacity="1" fill-opacity="0" stroke="#000000" stroke-width="1" stroke-opacity="0"></use></g></g><g><use xlink:href="#bhH3OL2Em" opacity="1" fill="#ffa500" fill-opacity="1"></use><g><use xlink:href="#bhH3OL2Em" opacity="1" fill-opacity="0" stroke="#000000" stroke-width="1" stroke-opacity="0"></use></g></g><g><use xlink:href="#b5B2xqGfr" opacity="1" fill="#ffa500" fill-opacity="1"></use><g><use xlink:href="#b5B2xqGfr" opacity="1" fill-opacity="0" stroke="#000000" stroke-width="1" stroke-opacity="0"></use></g></g></g></g></svg>